M48
; DRILL file {KiCad (5.1.9)-1} date 04/11/21 12:35:26
; FORMAT={-:-/ absolute / metric / decimal}
; #@! TF.CreationDate,2021-04-11T12:35:26+02:00
; #@! TF.GenerationSoftware,Kicad,Pcbnew,(5.1.9)-1
; #@! TF.FileFunction,Plated,1,2,PTH
FMAT,2
METRIC
T1C1.000
T2C1.016
T3C1.524
%
G90
G05
T1
X67.75Y-75.5
X68.45Y-47.0
X68.45Y-49.5
X69.0Y-63.2
X70.9Y-44.8
X70.95Y-47.0
X70.95Y-49.5
X73.45Y-47.0
X73.45Y-49.5
X76.033Y-47.567
X77.5Y-96.9
X80.0Y-96.9
X82.5Y-96.9
X83.4Y-65.9
X83.7Y-59.7
X85.0Y-62.5
X85.3Y-68.8
X87.84Y-68.8
X87.9Y-50.9
X88.36Y-47.4
X90.0Y-73.6
X90.9Y-47.4
X96.75Y-58.236
X100.0Y-52.75
X101.5Y-38.5
X101.5Y-83.8
X105.5Y-63.1
X106.6Y-82.4
X107.5Y-97.0
X109.7Y-42.2
X110.0Y-97.0
X111.1Y-39.9
X112.4Y-51.9
X112.5Y-97.0
X114.45Y-57.8
X115.0Y-45.6
X115.75Y-67.35
X116.1Y-84.1
X116.3Y-79.3
X118.5Y-88.4
X118.9Y-96.2
X118.9Y-77.2
X119.6Y-81.5
X125.0Y-43.0
X126.5Y-39.3
X126.6Y-77.2
X127.54Y-43.0
X129.14Y-77.2
X130.08Y-43.0
X133.7Y-81.9
X133.7Y-84.44
X133.7Y-89.5
X133.7Y-92.04
X137.5Y-97.0
X140.0Y-97.0
X140.8Y-49.16
X140.8Y-51.7
X142.36Y-44.3
X142.5Y-97.0
X143.7Y-80.2
X144.7Y-94.5
X144.9Y-44.3
X144.9Y-48.2
X144.9Y-50.74
T2
X77.3Y-76.8
X77.3Y-92.04
X79.84Y-76.8
X79.84Y-92.04
X82.38Y-76.8
X82.38Y-92.04
X84.92Y-76.8
X84.92Y-92.04
X87.46Y-76.8
X87.46Y-92.04
X90.0Y-76.8
X90.0Y-92.04
X92.54Y-76.8
X92.54Y-92.04
X94.6Y-68.3
X95.08Y-76.8
X95.08Y-92.04
X97.14Y-68.3
X97.62Y-76.8
X97.62Y-92.04
X100.16Y-76.8
X100.16Y-92.04
X102.7Y-76.8
X102.7Y-92.04
X105.24Y-76.8
X105.24Y-92.04
X107.78Y-76.8
X107.78Y-92.04
X110.32Y-76.8
X110.32Y-92.04
X112.86Y-76.8
X112.86Y-92.04
T3
X130.56Y-33.1
X135.64Y-33.1
T0
M30
