G04 #@! TF.GenerationSoftware,KiCad,Pcbnew,(5.1.9)-1*
G04 #@! TF.CreationDate,2021-04-11T12:34:00+02:00*
G04 #@! TF.ProjectId,bab_top,6261625f-746f-4702-9e6b-696361645f70,rev?*
G04 #@! TF.SameCoordinates,Original*
G04 #@! TF.FileFunction,Copper,L2,Bot*
G04 #@! TF.FilePolarity,Positive*
%FSLAX46Y46*%
G04 Gerber Fmt 4.6, Leading zero omitted, Abs format (unit mm)*
G04 Created by KiCad (PCBNEW (5.1.9)-1) date 2021-04-11 12:34:00*
%MOMM*%
%LPD*%
G01*
G04 APERTURE LIST*
%ADD10C,0.100000*%
%ADD11C,0.150000*%
%ADD12C,0.300000*%
%ADD13C,0.400000*%
G04 #@! TA.AperFunction,Profile*
%ADD14C,0.150000*%
G04 #@! TD*
G04 #@! TA.AperFunction,ComponentPad*
%ADD15R,1.727200X2.032000*%
G04 #@! TD*
G04 #@! TA.AperFunction,ComponentPad*
%ADD16O,1.727200X2.032000*%
G04 #@! TD*
G04 #@! TA.AperFunction,ComponentPad*
%ADD17R,2.540000X2.540000*%
G04 #@! TD*
G04 #@! TA.AperFunction,ComponentPad*
%ADD18C,2.540000*%
G04 #@! TD*
G04 #@! TA.AperFunction,ComponentPad*
%ADD19C,1.800000*%
G04 #@! TD*
G04 #@! TA.AperFunction,WasherPad*
%ADD20C,3.000000*%
G04 #@! TD*
G04 #@! TA.AperFunction,ComponentPad*
%ADD21R,2.032000X2.032000*%
G04 #@! TD*
G04 #@! TA.AperFunction,ComponentPad*
%ADD22O,2.032000X2.032000*%
G04 #@! TD*
G04 #@! TA.AperFunction,ComponentPad*
%ADD23R,1.700000X1.700000*%
G04 #@! TD*
G04 #@! TA.AperFunction,ComponentPad*
%ADD24O,1.700000X1.700000*%
G04 #@! TD*
G04 #@! TA.AperFunction,ViaPad*
%ADD25C,1.800000*%
G04 #@! TD*
G04 #@! TA.AperFunction,ViaPad*
%ADD26C,2.400000*%
G04 #@! TD*
G04 #@! TA.AperFunction,Conductor*
%ADD27C,0.500000*%
G04 #@! TD*
G04 #@! TA.AperFunction,Conductor*
%ADD28C,1.000000*%
G04 #@! TD*
G04 #@! TA.AperFunction,Conductor*
%ADD29C,0.200000*%
G04 #@! TD*
G04 #@! TA.AperFunction,Conductor*
%ADD30C,0.100000*%
G04 #@! TD*
G04 APERTURE END LIST*
D10*
D11*
X177002200Y-166007200D02*
X177002200Y-198007200D01*
X285002200Y-198007200D01*
X285002200Y-166007200D01*
X177002200Y-166007200D01*
D10*
D11*
X10000000Y-10000000D02*
X10000000Y-200007200D01*
X287002200Y-200007200D01*
X287002200Y-10000000D01*
X10000000Y-10000000D01*
D10*
D11*
X12000000Y-12000000D02*
X12000000Y-198007200D01*
X285002200Y-198007200D01*
X285002200Y-12000000D01*
X12000000Y-12000000D01*
D10*
D11*
X60000000Y-12000000D02*
X60000000Y-10000000D01*
D10*
D11*
X110000000Y-12000000D02*
X110000000Y-10000000D01*
D10*
D11*
X160000000Y-12000000D02*
X160000000Y-10000000D01*
D10*
D11*
X210000000Y-12000000D02*
X210000000Y-10000000D01*
D10*
D11*
X260000000Y-12000000D02*
X260000000Y-10000000D01*
D10*
D11*
X36065476Y-11588095D02*
X35322619Y-11588095D01*
X35694047Y-11588095D02*
X35694047Y-10288095D01*
X35570238Y-10473809D01*
X35446428Y-10597619D01*
X35322619Y-10659523D01*
D10*
D11*
X85322619Y-10411904D02*
X85384523Y-10350000D01*
X85508333Y-10288095D01*
X85817857Y-10288095D01*
X85941666Y-10350000D01*
X86003571Y-10411904D01*
X86065476Y-10535714D01*
X86065476Y-10659523D01*
X86003571Y-10845238D01*
X85260714Y-11588095D01*
X86065476Y-11588095D01*
D10*
D11*
X135260714Y-10288095D02*
X136065476Y-10288095D01*
X135632142Y-10783333D01*
X135817857Y-10783333D01*
X135941666Y-10845238D01*
X136003571Y-10907142D01*
X136065476Y-11030952D01*
X136065476Y-11340476D01*
X136003571Y-11464285D01*
X135941666Y-11526190D01*
X135817857Y-11588095D01*
X135446428Y-11588095D01*
X135322619Y-11526190D01*
X135260714Y-11464285D01*
D10*
D11*
X185941666Y-10721428D02*
X185941666Y-11588095D01*
X185632142Y-10226190D02*
X185322619Y-11154761D01*
X186127380Y-11154761D01*
D10*
D11*
X236003571Y-10288095D02*
X235384523Y-10288095D01*
X235322619Y-10907142D01*
X235384523Y-10845238D01*
X235508333Y-10783333D01*
X235817857Y-10783333D01*
X235941666Y-10845238D01*
X236003571Y-10907142D01*
X236065476Y-11030952D01*
X236065476Y-11340476D01*
X236003571Y-11464285D01*
X235941666Y-11526190D01*
X235817857Y-11588095D01*
X235508333Y-11588095D01*
X235384523Y-11526190D01*
X235322619Y-11464285D01*
D10*
D11*
X285941666Y-10288095D02*
X285694047Y-10288095D01*
X285570238Y-10350000D01*
X285508333Y-10411904D01*
X285384523Y-10597619D01*
X285322619Y-10845238D01*
X285322619Y-11340476D01*
X285384523Y-11464285D01*
X285446428Y-11526190D01*
X285570238Y-11588095D01*
X285817857Y-11588095D01*
X285941666Y-11526190D01*
X286003571Y-11464285D01*
X286065476Y-11340476D01*
X286065476Y-11030952D01*
X286003571Y-10907142D01*
X285941666Y-10845238D01*
X285817857Y-10783333D01*
X285570238Y-10783333D01*
X285446428Y-10845238D01*
X285384523Y-10907142D01*
X285322619Y-11030952D01*
D10*
D11*
X60000000Y-198007200D02*
X60000000Y-200007200D01*
D10*
D11*
X110000000Y-198007200D02*
X110000000Y-200007200D01*
D10*
D11*
X160000000Y-198007200D02*
X160000000Y-200007200D01*
D10*
D11*
X210000000Y-198007200D02*
X210000000Y-200007200D01*
D10*
D11*
X260000000Y-198007200D02*
X260000000Y-200007200D01*
D10*
D11*
X36065476Y-199595295D02*
X35322619Y-199595295D01*
X35694047Y-199595295D02*
X35694047Y-198295295D01*
X35570238Y-198481009D01*
X35446428Y-198604819D01*
X35322619Y-198666723D01*
D10*
D11*
X85322619Y-198419104D02*
X85384523Y-198357200D01*
X85508333Y-198295295D01*
X85817857Y-198295295D01*
X85941666Y-198357200D01*
X86003571Y-198419104D01*
X86065476Y-198542914D01*
X86065476Y-198666723D01*
X86003571Y-198852438D01*
X85260714Y-199595295D01*
X86065476Y-199595295D01*
D10*
D11*
X135260714Y-198295295D02*
X136065476Y-198295295D01*
X135632142Y-198790533D01*
X135817857Y-198790533D01*
X135941666Y-198852438D01*
X136003571Y-198914342D01*
X136065476Y-199038152D01*
X136065476Y-199347676D01*
X136003571Y-199471485D01*
X135941666Y-199533390D01*
X135817857Y-199595295D01*
X135446428Y-199595295D01*
X135322619Y-199533390D01*
X135260714Y-199471485D01*
D10*
D11*
X185941666Y-198728628D02*
X185941666Y-199595295D01*
X185632142Y-198233390D02*
X185322619Y-199161961D01*
X186127380Y-199161961D01*
D10*
D11*
X236003571Y-198295295D02*
X235384523Y-198295295D01*
X235322619Y-198914342D01*
X235384523Y-198852438D01*
X235508333Y-198790533D01*
X235817857Y-198790533D01*
X235941666Y-198852438D01*
X236003571Y-198914342D01*
X236065476Y-199038152D01*
X236065476Y-199347676D01*
X236003571Y-199471485D01*
X235941666Y-199533390D01*
X235817857Y-199595295D01*
X235508333Y-199595295D01*
X235384523Y-199533390D01*
X235322619Y-199471485D01*
D10*
D11*
X285941666Y-198295295D02*
X285694047Y-198295295D01*
X285570238Y-198357200D01*
X285508333Y-198419104D01*
X285384523Y-198604819D01*
X285322619Y-198852438D01*
X285322619Y-199347676D01*
X285384523Y-199471485D01*
X285446428Y-199533390D01*
X285570238Y-199595295D01*
X285817857Y-199595295D01*
X285941666Y-199533390D01*
X286003571Y-199471485D01*
X286065476Y-199347676D01*
X286065476Y-199038152D01*
X286003571Y-198914342D01*
X285941666Y-198852438D01*
X285817857Y-198790533D01*
X285570238Y-198790533D01*
X285446428Y-198852438D01*
X285384523Y-198914342D01*
X285322619Y-199038152D01*
D10*
D11*
X10000000Y-60000000D02*
X12000000Y-60000000D01*
D10*
D11*
X10000000Y-110000000D02*
X12000000Y-110000000D01*
D10*
D11*
X10000000Y-160000000D02*
X12000000Y-160000000D01*
D10*
D11*
X10690476Y-35216666D02*
X11309523Y-35216666D01*
X10566666Y-35588095D02*
X11000000Y-34288095D01*
X11433333Y-35588095D01*
D10*
D11*
X11092857Y-84907142D02*
X11278571Y-84969047D01*
X11340476Y-85030952D01*
X11402380Y-85154761D01*
X11402380Y-85340476D01*
X11340476Y-85464285D01*
X11278571Y-85526190D01*
X11154761Y-85588095D01*
X10659523Y-85588095D01*
X10659523Y-84288095D01*
X11092857Y-84288095D01*
X11216666Y-84350000D01*
X11278571Y-84411904D01*
X11340476Y-84535714D01*
X11340476Y-84659523D01*
X11278571Y-84783333D01*
X11216666Y-84845238D01*
X11092857Y-84907142D01*
X10659523Y-84907142D01*
D10*
D11*
X11402380Y-135464285D02*
X11340476Y-135526190D01*
X11154761Y-135588095D01*
X11030952Y-135588095D01*
X10845238Y-135526190D01*
X10721428Y-135402380D01*
X10659523Y-135278571D01*
X10597619Y-135030952D01*
X10597619Y-134845238D01*
X10659523Y-134597619D01*
X10721428Y-134473809D01*
X10845238Y-134350000D01*
X11030952Y-134288095D01*
X11154761Y-134288095D01*
X11340476Y-134350000D01*
X11402380Y-134411904D01*
D10*
D11*
X10659523Y-185588095D02*
X10659523Y-184288095D01*
X10969047Y-184288095D01*
X11154761Y-184350000D01*
X11278571Y-184473809D01*
X11340476Y-184597619D01*
X11402380Y-184845238D01*
X11402380Y-185030952D01*
X11340476Y-185278571D01*
X11278571Y-185402380D01*
X11154761Y-185526190D01*
X10969047Y-185588095D01*
X10659523Y-185588095D01*
D10*
D11*
X287002200Y-60000000D02*
X285002200Y-60000000D01*
D10*
D11*
X287002200Y-110000000D02*
X285002200Y-110000000D01*
D10*
D11*
X287002200Y-160000000D02*
X285002200Y-160000000D01*
D10*
D11*
X285692676Y-35216666D02*
X286311723Y-35216666D01*
X285568866Y-35588095D02*
X286002200Y-34288095D01*
X286435533Y-35588095D01*
D10*
D11*
X286095057Y-84907142D02*
X286280771Y-84969047D01*
X286342676Y-85030952D01*
X286404580Y-85154761D01*
X286404580Y-85340476D01*
X286342676Y-85464285D01*
X286280771Y-85526190D01*
X286156961Y-85588095D01*
X285661723Y-85588095D01*
X285661723Y-84288095D01*
X286095057Y-84288095D01*
X286218866Y-84350000D01*
X286280771Y-84411904D01*
X286342676Y-84535714D01*
X286342676Y-84659523D01*
X286280771Y-84783333D01*
X286218866Y-84845238D01*
X286095057Y-84907142D01*
X285661723Y-84907142D01*
D10*
D11*
X286404580Y-135464285D02*
X286342676Y-135526190D01*
X286156961Y-135588095D01*
X286033152Y-135588095D01*
X285847438Y-135526190D01*
X285723628Y-135402380D01*
X285661723Y-135278571D01*
X285599819Y-135030952D01*
X285599819Y-134845238D01*
X285661723Y-134597619D01*
X285723628Y-134473809D01*
X285847438Y-134350000D01*
X286033152Y-134288095D01*
X286156961Y-134288095D01*
X286342676Y-134350000D01*
X286404580Y-134411904D01*
D10*
D11*
X285661723Y-185588095D02*
X285661723Y-184288095D01*
X285971247Y-184288095D01*
X286156961Y-184350000D01*
X286280771Y-184473809D01*
X286342676Y-184597619D01*
X286404580Y-184845238D01*
X286404580Y-185030952D01*
X286342676Y-185278571D01*
X286280771Y-185402380D01*
X286156961Y-185526190D01*
X285971247Y-185588095D01*
X285661723Y-185588095D01*
D10*
D11*
X200434342Y-193785771D02*
X200434342Y-192285771D01*
X200791485Y-192285771D01*
X201005771Y-192357200D01*
X201148628Y-192500057D01*
X201220057Y-192642914D01*
X201291485Y-192928628D01*
X201291485Y-193142914D01*
X201220057Y-193428628D01*
X201148628Y-193571485D01*
X201005771Y-193714342D01*
X200791485Y-193785771D01*
X200434342Y-193785771D01*
X202577200Y-193785771D02*
X202577200Y-193000057D01*
X202505771Y-192857200D01*
X202362914Y-192785771D01*
X202077200Y-192785771D01*
X201934342Y-192857200D01*
X202577200Y-193714342D02*
X202434342Y-193785771D01*
X202077200Y-193785771D01*
X201934342Y-193714342D01*
X201862914Y-193571485D01*
X201862914Y-193428628D01*
X201934342Y-193285771D01*
X202077200Y-193214342D01*
X202434342Y-193214342D01*
X202577200Y-193142914D01*
X203077200Y-192785771D02*
X203648628Y-192785771D01*
X203291485Y-192285771D02*
X203291485Y-193571485D01*
X203362914Y-193714342D01*
X203505771Y-193785771D01*
X203648628Y-193785771D01*
X204720057Y-193714342D02*
X204577200Y-193785771D01*
X204291485Y-193785771D01*
X204148628Y-193714342D01*
X204077200Y-193571485D01*
X204077200Y-193000057D01*
X204148628Y-192857200D01*
X204291485Y-192785771D01*
X204577200Y-192785771D01*
X204720057Y-192857200D01*
X204791485Y-193000057D01*
X204791485Y-193142914D01*
X204077200Y-193285771D01*
X205434342Y-193642914D02*
X205505771Y-193714342D01*
X205434342Y-193785771D01*
X205362914Y-193714342D01*
X205434342Y-193642914D01*
X205434342Y-193785771D01*
X205434342Y-192857200D02*
X205505771Y-192928628D01*
X205434342Y-193000057D01*
X205362914Y-192928628D01*
X205434342Y-192857200D01*
X205434342Y-193000057D01*
D10*
D11*
X177002200Y-194507200D02*
X285002200Y-194507200D01*
D10*
D11*
X178434342Y-196585771D02*
X178434342Y-195085771D01*
X179291485Y-196585771D02*
X178648628Y-195728628D01*
X179291485Y-195085771D02*
X178434342Y-195942914D01*
X179934342Y-196585771D02*
X179934342Y-195585771D01*
X179934342Y-195085771D02*
X179862914Y-195157200D01*
X179934342Y-195228628D01*
X180005771Y-195157200D01*
X179934342Y-195085771D01*
X179934342Y-195228628D01*
X181505771Y-196442914D02*
X181434342Y-196514342D01*
X181220057Y-196585771D01*
X181077200Y-196585771D01*
X180862914Y-196514342D01*
X180720057Y-196371485D01*
X180648628Y-196228628D01*
X180577200Y-195942914D01*
X180577200Y-195728628D01*
X180648628Y-195442914D01*
X180720057Y-195300057D01*
X180862914Y-195157200D01*
X181077200Y-195085771D01*
X181220057Y-195085771D01*
X181434342Y-195157200D01*
X181505771Y-195228628D01*
X182791485Y-196585771D02*
X182791485Y-195800057D01*
X182720057Y-195657200D01*
X182577200Y-195585771D01*
X182291485Y-195585771D01*
X182148628Y-195657200D01*
X182791485Y-196514342D02*
X182648628Y-196585771D01*
X182291485Y-196585771D01*
X182148628Y-196514342D01*
X182077200Y-196371485D01*
X182077200Y-196228628D01*
X182148628Y-196085771D01*
X182291485Y-196014342D01*
X182648628Y-196014342D01*
X182791485Y-195942914D01*
X184148628Y-196585771D02*
X184148628Y-195085771D01*
X184148628Y-196514342D02*
X184005771Y-196585771D01*
X183720057Y-196585771D01*
X183577200Y-196514342D01*
X183505771Y-196442914D01*
X183434342Y-196300057D01*
X183434342Y-195871485D01*
X183505771Y-195728628D01*
X183577200Y-195657200D01*
X183720057Y-195585771D01*
X184005771Y-195585771D01*
X184148628Y-195657200D01*
X186005771Y-195800057D02*
X186505771Y-195800057D01*
X186720057Y-196585771D02*
X186005771Y-196585771D01*
X186005771Y-195085771D01*
X186720057Y-195085771D01*
X187362914Y-196442914D02*
X187434342Y-196514342D01*
X187362914Y-196585771D01*
X187291485Y-196514342D01*
X187362914Y-196442914D01*
X187362914Y-196585771D01*
X188077200Y-196585771D02*
X188077200Y-195085771D01*
X188434342Y-195085771D01*
X188648628Y-195157200D01*
X188791485Y-195300057D01*
X188862914Y-195442914D01*
X188934342Y-195728628D01*
X188934342Y-195942914D01*
X188862914Y-196228628D01*
X188791485Y-196371485D01*
X188648628Y-196514342D01*
X188434342Y-196585771D01*
X188077200Y-196585771D01*
X189577200Y-196442914D02*
X189648628Y-196514342D01*
X189577200Y-196585771D01*
X189505771Y-196514342D01*
X189577200Y-196442914D01*
X189577200Y-196585771D01*
X190220057Y-196157200D02*
X190934342Y-196157200D01*
X190077200Y-196585771D02*
X190577200Y-195085771D01*
X191077200Y-196585771D01*
X191577200Y-196442914D02*
X191648628Y-196514342D01*
X191577200Y-196585771D01*
X191505771Y-196514342D01*
X191577200Y-196442914D01*
X191577200Y-196585771D01*
X194577200Y-196585771D02*
X194577200Y-195085771D01*
X194720057Y-196014342D02*
X195148628Y-196585771D01*
X195148628Y-195585771D02*
X194577200Y-196157200D01*
X195791485Y-196585771D02*
X195791485Y-195585771D01*
X195791485Y-195085771D02*
X195720057Y-195157200D01*
X195791485Y-195228628D01*
X195862914Y-195157200D01*
X195791485Y-195085771D01*
X195791485Y-195228628D01*
X197148628Y-196514342D02*
X197005771Y-196585771D01*
X196720057Y-196585771D01*
X196577200Y-196514342D01*
X196505771Y-196442914D01*
X196434342Y-196300057D01*
X196434342Y-195871485D01*
X196505771Y-195728628D01*
X196577200Y-195657200D01*
X196720057Y-195585771D01*
X197005771Y-195585771D01*
X197148628Y-195657200D01*
X198434342Y-196585771D02*
X198434342Y-195800057D01*
X198362914Y-195657200D01*
X198220057Y-195585771D01*
X197934342Y-195585771D01*
X197791485Y-195657200D01*
X198434342Y-196514342D02*
X198291485Y-196585771D01*
X197934342Y-196585771D01*
X197791485Y-196514342D01*
X197720057Y-196371485D01*
X197720057Y-196228628D01*
X197791485Y-196085771D01*
X197934342Y-196014342D01*
X198291485Y-196014342D01*
X198434342Y-195942914D01*
X199791485Y-196585771D02*
X199791485Y-195085771D01*
X199791485Y-196514342D02*
X199648628Y-196585771D01*
X199362914Y-196585771D01*
X199220057Y-196514342D01*
X199148628Y-196442914D01*
X199077200Y-196300057D01*
X199077200Y-195871485D01*
X199148628Y-195728628D01*
X199220057Y-195657200D01*
X199362914Y-195585771D01*
X199648628Y-195585771D01*
X199791485Y-195657200D01*
X202077200Y-197157200D02*
X202005771Y-197085771D01*
X201862914Y-196871485D01*
X201791485Y-196728628D01*
X201720057Y-196514342D01*
X201648628Y-196157200D01*
X201648628Y-195871485D01*
X201720057Y-195514342D01*
X201791485Y-195300057D01*
X201862914Y-195157200D01*
X202005771Y-194942914D01*
X202077200Y-194871485D01*
X203362914Y-195085771D02*
X202648628Y-195085771D01*
X202577200Y-195800057D01*
X202648628Y-195728628D01*
X202791485Y-195657200D01*
X203148628Y-195657200D01*
X203291485Y-195728628D01*
X203362914Y-195800057D01*
X203434342Y-195942914D01*
X203434342Y-196300057D01*
X203362914Y-196442914D01*
X203291485Y-196514342D01*
X203148628Y-196585771D01*
X202791485Y-196585771D01*
X202648628Y-196514342D01*
X202577200Y-196442914D01*
X204077200Y-196442914D02*
X204148628Y-196514342D01*
X204077200Y-196585771D01*
X204005771Y-196514342D01*
X204077200Y-196442914D01*
X204077200Y-196585771D01*
X205577200Y-196585771D02*
X204720057Y-196585771D01*
X205148628Y-196585771D02*
X205148628Y-195085771D01*
X205005771Y-195300057D01*
X204862914Y-195442914D01*
X204720057Y-195514342D01*
X206220057Y-196442914D02*
X206291485Y-196514342D01*
X206220057Y-196585771D01*
X206148628Y-196514342D01*
X206220057Y-196442914D01*
X206220057Y-196585771D01*
X207005771Y-196585771D02*
X207291485Y-196585771D01*
X207434342Y-196514342D01*
X207505771Y-196442914D01*
X207648628Y-196228628D01*
X207720057Y-195942914D01*
X207720057Y-195371485D01*
X207648628Y-195228628D01*
X207577200Y-195157200D01*
X207434342Y-195085771D01*
X207148628Y-195085771D01*
X207005771Y-195157200D01*
X206934342Y-195228628D01*
X206862914Y-195371485D01*
X206862914Y-195728628D01*
X206934342Y-195871485D01*
X207005771Y-195942914D01*
X207148628Y-196014342D01*
X207434342Y-196014342D01*
X207577200Y-195942914D01*
X207648628Y-195871485D01*
X207720057Y-195728628D01*
X208220057Y-197157200D02*
X208291485Y-197085771D01*
X208434342Y-196871485D01*
X208505771Y-196728628D01*
X208577200Y-196514342D01*
X208648628Y-196157200D01*
X208648628Y-195871485D01*
X208577200Y-195514342D01*
X208505771Y-195300057D01*
X208434342Y-195157200D01*
X208291485Y-194942914D01*
X208220057Y-194871485D01*
X209362914Y-196014342D02*
X210505771Y-196014342D01*
X212005771Y-196585771D02*
X211148628Y-196585771D01*
X211577200Y-196585771D02*
X211577200Y-195085771D01*
X211434342Y-195300057D01*
X211291485Y-195442914D01*
X211148628Y-195514342D01*
D10*
D11*
X177002200Y-191507200D02*
X285002200Y-191507200D01*
D10*
D12*
X264411485Y-193785771D02*
X263911485Y-193071485D01*
X263554342Y-193785771D02*
X263554342Y-192285771D01*
X264125771Y-192285771D01*
X264268628Y-192357200D01*
X264340057Y-192428628D01*
X264411485Y-192571485D01*
X264411485Y-192785771D01*
X264340057Y-192928628D01*
X264268628Y-193000057D01*
X264125771Y-193071485D01*
X263554342Y-193071485D01*
X265625771Y-193714342D02*
X265482914Y-193785771D01*
X265197200Y-193785771D01*
X265054342Y-193714342D01*
X264982914Y-193571485D01*
X264982914Y-193000057D01*
X265054342Y-192857200D01*
X265197200Y-192785771D01*
X265482914Y-192785771D01*
X265625771Y-192857200D01*
X265697200Y-193000057D01*
X265697200Y-193142914D01*
X264982914Y-193285771D01*
X266197200Y-192785771D02*
X266554342Y-193785771D01*
X266911485Y-192785771D01*
X267482914Y-193642914D02*
X267554342Y-193714342D01*
X267482914Y-193785771D01*
X267411485Y-193714342D01*
X267482914Y-193642914D01*
X267482914Y-193785771D01*
X267482914Y-192857200D02*
X267554342Y-192928628D01*
X267482914Y-193000057D01*
X267411485Y-192928628D01*
X267482914Y-192857200D01*
X267482914Y-193000057D01*
D10*
D11*
X178362914Y-193714342D02*
X178577200Y-193785771D01*
X178934342Y-193785771D01*
X179077200Y-193714342D01*
X179148628Y-193642914D01*
X179220057Y-193500057D01*
X179220057Y-193357200D01*
X179148628Y-193214342D01*
X179077200Y-193142914D01*
X178934342Y-193071485D01*
X178648628Y-193000057D01*
X178505771Y-192928628D01*
X178434342Y-192857200D01*
X178362914Y-192714342D01*
X178362914Y-192571485D01*
X178434342Y-192428628D01*
X178505771Y-192357200D01*
X178648628Y-192285771D01*
X179005771Y-192285771D01*
X179220057Y-192357200D01*
X179862914Y-193785771D02*
X179862914Y-192785771D01*
X179862914Y-192285771D02*
X179791485Y-192357200D01*
X179862914Y-192428628D01*
X179934342Y-192357200D01*
X179862914Y-192285771D01*
X179862914Y-192428628D01*
X180434342Y-192785771D02*
X181220057Y-192785771D01*
X180434342Y-193785771D01*
X181220057Y-193785771D01*
X182362914Y-193714342D02*
X182220057Y-193785771D01*
X181934342Y-193785771D01*
X181791485Y-193714342D01*
X181720057Y-193571485D01*
X181720057Y-193000057D01*
X181791485Y-192857200D01*
X181934342Y-192785771D01*
X182220057Y-192785771D01*
X182362914Y-192857200D01*
X182434342Y-193000057D01*
X182434342Y-193142914D01*
X181720057Y-193285771D01*
X183077200Y-193642914D02*
X183148628Y-193714342D01*
X183077200Y-193785771D01*
X183005771Y-193714342D01*
X183077200Y-193642914D01*
X183077200Y-193785771D01*
X183077200Y-192857200D02*
X183148628Y-192928628D01*
X183077200Y-193000057D01*
X183005771Y-192928628D01*
X183077200Y-192857200D01*
X183077200Y-193000057D01*
X184862914Y-193357200D02*
X185577200Y-193357200D01*
X184720057Y-193785771D02*
X185220057Y-192285771D01*
X185720057Y-193785771D01*
X186862914Y-192785771D02*
X186862914Y-193785771D01*
X186505771Y-192214342D02*
X186148628Y-193285771D01*
X187077200Y-193285771D01*
D10*
D11*
X263434342Y-196585771D02*
X263434342Y-195085771D01*
X264791485Y-196585771D02*
X264791485Y-195085771D01*
X264791485Y-196514342D02*
X264648628Y-196585771D01*
X264362914Y-196585771D01*
X264220057Y-196514342D01*
X264148628Y-196442914D01*
X264077200Y-196300057D01*
X264077200Y-195871485D01*
X264148628Y-195728628D01*
X264220057Y-195657200D01*
X264362914Y-195585771D01*
X264648628Y-195585771D01*
X264791485Y-195657200D01*
X265505771Y-196442914D02*
X265577200Y-196514342D01*
X265505771Y-196585771D01*
X265434342Y-196514342D01*
X265505771Y-196442914D01*
X265505771Y-196585771D01*
X265505771Y-195657200D02*
X265577200Y-195728628D01*
X265505771Y-195800057D01*
X265434342Y-195728628D01*
X265505771Y-195657200D01*
X265505771Y-195800057D01*
X268148628Y-196585771D02*
X267291485Y-196585771D01*
X267720057Y-196585771D02*
X267720057Y-195085771D01*
X267577200Y-195300057D01*
X267434342Y-195442914D01*
X267291485Y-195514342D01*
X269862914Y-195014342D02*
X268577200Y-196942914D01*
X271148628Y-196585771D02*
X270291485Y-196585771D01*
X270720057Y-196585771D02*
X270720057Y-195085771D01*
X270577200Y-195300057D01*
X270434342Y-195442914D01*
X270291485Y-195514342D01*
D10*
D11*
X177002200Y-187507200D02*
X285002200Y-187507200D01*
D10*
D13*
X178714580Y-188211961D02*
X179857438Y-188211961D01*
X179036009Y-190211961D02*
X179286009Y-188211961D01*
X180274104Y-190211961D02*
X180440771Y-188878628D01*
X180524104Y-188211961D02*
X180416961Y-188307200D01*
X180500295Y-188402438D01*
X180607438Y-188307200D01*
X180524104Y-188211961D01*
X180500295Y-188402438D01*
X181107438Y-188878628D02*
X181869342Y-188878628D01*
X181476485Y-188211961D02*
X181262200Y-189926247D01*
X181333628Y-190116723D01*
X181512200Y-190211961D01*
X181702676Y-190211961D01*
X182655057Y-190211961D02*
X182476485Y-190116723D01*
X182405057Y-189926247D01*
X182619342Y-188211961D01*
X184190771Y-190116723D02*
X183988390Y-190211961D01*
X183607438Y-190211961D01*
X183428866Y-190116723D01*
X183357438Y-189926247D01*
X183452676Y-189164342D01*
X183571723Y-188973866D01*
X183774104Y-188878628D01*
X184155057Y-188878628D01*
X184333628Y-188973866D01*
X184405057Y-189164342D01*
X184381247Y-189354819D01*
X183405057Y-189545295D01*
X185155057Y-190021485D02*
X185238390Y-190116723D01*
X185131247Y-190211961D01*
X185047914Y-190116723D01*
X185155057Y-190021485D01*
X185131247Y-190211961D01*
X185286009Y-188973866D02*
X185369342Y-189069104D01*
X185262200Y-189164342D01*
X185178866Y-189069104D01*
X185286009Y-188973866D01*
X185262200Y-189164342D01*
D10*
D11*
X178934342Y-185600057D02*
X178434342Y-185600057D01*
X178434342Y-186385771D02*
X178434342Y-184885771D01*
X179148628Y-184885771D01*
X179720057Y-186385771D02*
X179720057Y-185385771D01*
X179720057Y-184885771D02*
X179648628Y-184957200D01*
X179720057Y-185028628D01*
X179791485Y-184957200D01*
X179720057Y-184885771D01*
X179720057Y-185028628D01*
X180648628Y-186385771D02*
X180505771Y-186314342D01*
X180434342Y-186171485D01*
X180434342Y-184885771D01*
X181791485Y-186314342D02*
X181648628Y-186385771D01*
X181362914Y-186385771D01*
X181220057Y-186314342D01*
X181148628Y-186171485D01*
X181148628Y-185600057D01*
X181220057Y-185457200D01*
X181362914Y-185385771D01*
X181648628Y-185385771D01*
X181791485Y-185457200D01*
X181862914Y-185600057D01*
X181862914Y-185742914D01*
X181148628Y-185885771D01*
X182505771Y-186242914D02*
X182577200Y-186314342D01*
X182505771Y-186385771D01*
X182434342Y-186314342D01*
X182505771Y-186242914D01*
X182505771Y-186385771D01*
X182505771Y-185457200D02*
X182577200Y-185528628D01*
X182505771Y-185600057D01*
X182434342Y-185528628D01*
X182505771Y-185457200D01*
X182505771Y-185600057D01*
X184362914Y-186385771D02*
X184362914Y-184885771D01*
X184362914Y-185457200D02*
X184505771Y-185385771D01*
X184791485Y-185385771D01*
X184934342Y-185457200D01*
X185005771Y-185528628D01*
X185077200Y-185671485D01*
X185077200Y-186100057D01*
X185005771Y-186242914D01*
X184934342Y-186314342D01*
X184791485Y-186385771D01*
X184505771Y-186385771D01*
X184362914Y-186314342D01*
X186362914Y-186385771D02*
X186362914Y-185600057D01*
X186291485Y-185457200D01*
X186148628Y-185385771D01*
X185862914Y-185385771D01*
X185720057Y-185457200D01*
X186362914Y-186314342D02*
X186220057Y-186385771D01*
X185862914Y-186385771D01*
X185720057Y-186314342D01*
X185648628Y-186171485D01*
X185648628Y-186028628D01*
X185720057Y-185885771D01*
X185862914Y-185814342D01*
X186220057Y-185814342D01*
X186362914Y-185742914D01*
X187077200Y-186385771D02*
X187077200Y-184885771D01*
X187077200Y-185457200D02*
X187220057Y-185385771D01*
X187505771Y-185385771D01*
X187648628Y-185457200D01*
X187720057Y-185528628D01*
X187791485Y-185671485D01*
X187791485Y-186100057D01*
X187720057Y-186242914D01*
X187648628Y-186314342D01*
X187505771Y-186385771D01*
X187220057Y-186385771D01*
X187077200Y-186314342D01*
X188077200Y-186528628D02*
X189220057Y-186528628D01*
X189362914Y-185385771D02*
X189934342Y-185385771D01*
X189577200Y-184885771D02*
X189577200Y-186171485D01*
X189648628Y-186314342D01*
X189791485Y-186385771D01*
X189934342Y-186385771D01*
X190648628Y-186385771D02*
X190505771Y-186314342D01*
X190434342Y-186242914D01*
X190362914Y-186100057D01*
X190362914Y-185671485D01*
X190434342Y-185528628D01*
X190505771Y-185457200D01*
X190648628Y-185385771D01*
X190862914Y-185385771D01*
X191005771Y-185457200D01*
X191077200Y-185528628D01*
X191148628Y-185671485D01*
X191148628Y-186100057D01*
X191077200Y-186242914D01*
X191005771Y-186314342D01*
X190862914Y-186385771D01*
X190648628Y-186385771D01*
X191791485Y-185385771D02*
X191791485Y-186885771D01*
X191791485Y-185457200D02*
X191934342Y-185385771D01*
X192220057Y-185385771D01*
X192362914Y-185457200D01*
X192434342Y-185528628D01*
X192505771Y-185671485D01*
X192505771Y-186100057D01*
X192434342Y-186242914D01*
X192362914Y-186314342D01*
X192220057Y-186385771D01*
X191934342Y-186385771D01*
X191791485Y-186314342D01*
X193148628Y-186242914D02*
X193220057Y-186314342D01*
X193148628Y-186385771D01*
X193077200Y-186314342D01*
X193148628Y-186242914D01*
X193148628Y-186385771D01*
X193862914Y-186385771D02*
X193862914Y-184885771D01*
X194005771Y-185814342D02*
X194434342Y-186385771D01*
X194434342Y-185385771D02*
X193862914Y-185957200D01*
X195077200Y-186385771D02*
X195077200Y-185385771D01*
X195077200Y-184885771D02*
X195005771Y-184957200D01*
X195077200Y-185028628D01*
X195148628Y-184957200D01*
X195077200Y-184885771D01*
X195077200Y-185028628D01*
X196434342Y-186314342D02*
X196291485Y-186385771D01*
X196005771Y-186385771D01*
X195862914Y-186314342D01*
X195791485Y-186242914D01*
X195720057Y-186100057D01*
X195720057Y-185671485D01*
X195791485Y-185528628D01*
X195862914Y-185457200D01*
X196005771Y-185385771D01*
X196291485Y-185385771D01*
X196434342Y-185457200D01*
X197720057Y-186385771D02*
X197720057Y-185600057D01*
X197648628Y-185457200D01*
X197505771Y-185385771D01*
X197220057Y-185385771D01*
X197077200Y-185457200D01*
X197720057Y-186314342D02*
X197577200Y-186385771D01*
X197220057Y-186385771D01*
X197077200Y-186314342D01*
X197005771Y-186171485D01*
X197005771Y-186028628D01*
X197077200Y-185885771D01*
X197220057Y-185814342D01*
X197577200Y-185814342D01*
X197720057Y-185742914D01*
X199077200Y-186385771D02*
X199077200Y-184885771D01*
X199077200Y-186314342D02*
X198934342Y-186385771D01*
X198648628Y-186385771D01*
X198505771Y-186314342D01*
X198434342Y-186242914D01*
X198362914Y-186100057D01*
X198362914Y-185671485D01*
X198434342Y-185528628D01*
X198505771Y-185457200D01*
X198648628Y-185385771D01*
X198934342Y-185385771D01*
X199077200Y-185457200D01*
X199434342Y-186528628D02*
X200577200Y-186528628D01*
X200934342Y-185385771D02*
X200934342Y-186885771D01*
X200934342Y-185457200D02*
X201077200Y-185385771D01*
X201362914Y-185385771D01*
X201505771Y-185457200D01*
X201577200Y-185528628D01*
X201648628Y-185671485D01*
X201648628Y-186100057D01*
X201577200Y-186242914D01*
X201505771Y-186314342D01*
X201362914Y-186385771D01*
X201077200Y-186385771D01*
X200934342Y-186314342D01*
X202934342Y-186314342D02*
X202791485Y-186385771D01*
X202505771Y-186385771D01*
X202362914Y-186314342D01*
X202291485Y-186242914D01*
X202220057Y-186100057D01*
X202220057Y-185671485D01*
X202291485Y-185528628D01*
X202362914Y-185457200D01*
X202505771Y-185385771D01*
X202791485Y-185385771D01*
X202934342Y-185457200D01*
X203577200Y-186385771D02*
X203577200Y-184885771D01*
X203577200Y-185457200D02*
X203720057Y-185385771D01*
X204005771Y-185385771D01*
X204148628Y-185457200D01*
X204220057Y-185528628D01*
X204291485Y-185671485D01*
X204291485Y-186100057D01*
X204220057Y-186242914D01*
X204148628Y-186314342D01*
X204005771Y-186385771D01*
X203720057Y-186385771D01*
X203577200Y-186314342D01*
D10*
D11*
X177002200Y-181507200D02*
X285002200Y-181507200D01*
D10*
D11*
X178362914Y-183614342D02*
X178577200Y-183685771D01*
X178934342Y-183685771D01*
X179077200Y-183614342D01*
X179148628Y-183542914D01*
X179220057Y-183400057D01*
X179220057Y-183257200D01*
X179148628Y-183114342D01*
X179077200Y-183042914D01*
X178934342Y-182971485D01*
X178648628Y-182900057D01*
X178505771Y-182828628D01*
X178434342Y-182757200D01*
X178362914Y-182614342D01*
X178362914Y-182471485D01*
X178434342Y-182328628D01*
X178505771Y-182257200D01*
X178648628Y-182185771D01*
X179005771Y-182185771D01*
X179220057Y-182257200D01*
X179862914Y-183685771D02*
X179862914Y-182185771D01*
X180505771Y-183685771D02*
X180505771Y-182900057D01*
X180434342Y-182757200D01*
X180291485Y-182685771D01*
X180077200Y-182685771D01*
X179934342Y-182757200D01*
X179862914Y-182828628D01*
X181791485Y-183614342D02*
X181648628Y-183685771D01*
X181362914Y-183685771D01*
X181220057Y-183614342D01*
X181148628Y-183471485D01*
X181148628Y-182900057D01*
X181220057Y-182757200D01*
X181362914Y-182685771D01*
X181648628Y-182685771D01*
X181791485Y-182757200D01*
X181862914Y-182900057D01*
X181862914Y-183042914D01*
X181148628Y-183185771D01*
X183077200Y-183614342D02*
X182934342Y-183685771D01*
X182648628Y-183685771D01*
X182505771Y-183614342D01*
X182434342Y-183471485D01*
X182434342Y-182900057D01*
X182505771Y-182757200D01*
X182648628Y-182685771D01*
X182934342Y-182685771D01*
X183077200Y-182757200D01*
X183148628Y-182900057D01*
X183148628Y-183042914D01*
X182434342Y-183185771D01*
X183577200Y-182685771D02*
X184148628Y-182685771D01*
X183791485Y-182185771D02*
X183791485Y-183471485D01*
X183862914Y-183614342D01*
X184005771Y-183685771D01*
X184148628Y-183685771D01*
X184648628Y-183542914D02*
X184720057Y-183614342D01*
X184648628Y-183685771D01*
X184577200Y-183614342D01*
X184648628Y-183542914D01*
X184648628Y-183685771D01*
X184648628Y-182757200D02*
X184720057Y-182828628D01*
X184648628Y-182900057D01*
X184577200Y-182828628D01*
X184648628Y-182757200D01*
X184648628Y-182900057D01*
D10*
D11*
X197002200Y-191507200D02*
X197002200Y-194507200D01*
D10*
D11*
X261002200Y-191507200D02*
X261002200Y-198007200D01*
D14*
X150000000Y-30000000D02*
X150000000Y-120000000D01*
X60000000Y-30000000D02*
X60000000Y-120000000D01*
X150000000Y-30000000D02*
X60000000Y-30000000D01*
X60000000Y-120000000D02*
X150000000Y-120000000D01*
X146666666Y-115000000D02*
G75*
G03*
X146666666Y-115000000I-1666666J0D01*
G01*
X142500000Y-115000000D02*
X147500000Y-115000000D01*
X145000000Y-112500000D02*
X145000000Y-117500000D01*
X66633903Y-35008759D02*
G75*
G03*
X66633903Y-35008759I-1666666J0D01*
G01*
X62467237Y-35008759D02*
X67467237Y-35008759D01*
X64967237Y-32508759D02*
X64967237Y-37508759D01*
X66605474Y-105026938D02*
G75*
G03*
X66605474Y-105026938I-1666666J0D01*
G01*
X62438808Y-105026938D02*
X67438808Y-105026938D01*
X64938808Y-102526938D02*
X64938808Y-107526938D01*
X146666666Y-34989010D02*
G75*
G03*
X146666666Y-34989010I-1666666J0D01*
G01*
X142500000Y-34989010D02*
X147500000Y-34989010D01*
X145000000Y-32489010D02*
X145000000Y-37489010D01*
D15*
X77300000Y-76800000D03*
D16*
X79840000Y-76800000D03*
X82380000Y-76800000D03*
X84920000Y-76800000D03*
X87460000Y-76800000D03*
X90000000Y-76800000D03*
X92540000Y-76800000D03*
X95080000Y-76800000D03*
X97620000Y-76800000D03*
X100160000Y-76800000D03*
X102700000Y-76800000D03*
X105240000Y-76800000D03*
X107780000Y-76800000D03*
X110320000Y-76800000D03*
X112860000Y-76800000D03*
D15*
X77300000Y-92040000D03*
D16*
X79840000Y-92040000D03*
X82380000Y-92040000D03*
X84920000Y-92040000D03*
X87460000Y-92040000D03*
X90000000Y-92040000D03*
X92540000Y-92040000D03*
X95080000Y-92040000D03*
X97620000Y-92040000D03*
X100160000Y-92040000D03*
X102700000Y-92040000D03*
X105240000Y-92040000D03*
X107780000Y-92040000D03*
X110320000Y-92040000D03*
X112860000Y-92040000D03*
D17*
X135640000Y-33100000D03*
D18*
X130560000Y-33100000D03*
D19*
X73450000Y-49500000D03*
X70950000Y-49500000D03*
X68450000Y-49500000D03*
D20*
X75700000Y-57000000D03*
X66200000Y-57000000D03*
D19*
X73450000Y-47000000D03*
X70950000Y-47000000D03*
X68450000Y-47000000D03*
D21*
X94600000Y-68300000D03*
D22*
X97140000Y-68300000D03*
D19*
X142500000Y-97000000D03*
X140000000Y-97000000D03*
X137500000Y-97000000D03*
D20*
X144750000Y-104500000D03*
X135250000Y-104500000D03*
D19*
X112500000Y-97000000D03*
X110000000Y-97000000D03*
X107500000Y-97000000D03*
D20*
X114750000Y-104500000D03*
X105250000Y-104500000D03*
D19*
X82500000Y-96900000D03*
X80000000Y-96900000D03*
X77500000Y-96900000D03*
D20*
X84750000Y-104400000D03*
X75250000Y-104400000D03*
D23*
X125000000Y-43000000D03*
D24*
X127540000Y-43000000D03*
X130080000Y-43000000D03*
X133700000Y-92040000D03*
D23*
X133700000Y-89500000D03*
X133700000Y-81900000D03*
D24*
X133700000Y-84440000D03*
X88360000Y-47400000D03*
D23*
X90900000Y-47400000D03*
D24*
X144900000Y-50740000D03*
D23*
X144900000Y-48200000D03*
X85300000Y-68800000D03*
D24*
X87840000Y-68800000D03*
D23*
X140800000Y-51700000D03*
D24*
X140800000Y-49160000D03*
X142360000Y-44300000D03*
D23*
X144900000Y-44300000D03*
X126600000Y-77200000D03*
D24*
X129140000Y-77200000D03*
D25*
X69000000Y-63200000D03*
X76033273Y-47566727D03*
X114450000Y-57800000D03*
X106600000Y-82400000D03*
D26*
X143699640Y-80200360D03*
X116299999Y-79299999D03*
X101500000Y-83800000D03*
D25*
X87900000Y-50900000D03*
X101500000Y-38500000D03*
X126499999Y-39300000D03*
X96750000Y-58235773D03*
X100000000Y-52750000D03*
X83399998Y-65900000D03*
X115000000Y-45600000D03*
X105500000Y-63100000D03*
X67750000Y-75500000D03*
X115750000Y-67350000D03*
X112399988Y-51900000D03*
X118900000Y-96200000D03*
X118500000Y-88400000D03*
X144700000Y-94500000D03*
X111100000Y-39900000D03*
X85000000Y-62500000D03*
X118900002Y-77200000D03*
X109700000Y-42200000D03*
X90000000Y-73600000D03*
X70900000Y-44800000D03*
X83700000Y-59700000D03*
X116100000Y-84100000D03*
D26*
X119600000Y-81500000D03*
D27*
X76033273Y-47566727D02*
X76033273Y-49358729D01*
X76033273Y-49358729D02*
X69000000Y-56392002D01*
X69000000Y-56392002D02*
X69000000Y-63200000D01*
X107500000Y-97000000D02*
X86600000Y-97000000D01*
X86600000Y-97000000D02*
X84500000Y-99100000D01*
X79700000Y-99100000D02*
X77500000Y-96900000D01*
X84500000Y-99100000D02*
X79700000Y-99100000D01*
X136600001Y-97899999D02*
X137500000Y-97000000D01*
X135400000Y-99100000D02*
X136600001Y-97899999D01*
X109600000Y-99100000D02*
X135400000Y-99100000D01*
X107500000Y-97000000D02*
X109600000Y-99100000D01*
X113550001Y-58699999D02*
X114450000Y-57800000D01*
X113550001Y-75055612D02*
X113550001Y-58699999D01*
X114473610Y-75979221D02*
X113550001Y-75055612D01*
X114473610Y-77620779D02*
X114473610Y-75979221D01*
X109694389Y-82400000D02*
X114473610Y-77620779D01*
X106600000Y-82400000D02*
X109694389Y-82400000D01*
D28*
X142799279Y-79299999D02*
X143699640Y-80200360D01*
X116299999Y-79299999D02*
X122099999Y-79299999D01*
X122099999Y-79299999D02*
X123900000Y-81100000D01*
X131700001Y-79299999D02*
X142799279Y-79299999D01*
X123900000Y-81100000D02*
X129900000Y-81100000D01*
X129900000Y-81100000D02*
X131700001Y-79299999D01*
X103197056Y-83800000D02*
X101500000Y-83800000D01*
X104097056Y-84700000D02*
X103197056Y-83800000D01*
X116299999Y-79299999D02*
X110899998Y-84700000D01*
X110899998Y-84700000D02*
X104097056Y-84700000D01*
D27*
X87900000Y-50900000D02*
X86000000Y-49000000D01*
X86000000Y-49000000D02*
X86000000Y-45100000D01*
X86000000Y-45100000D02*
X88600000Y-42500000D01*
X97500000Y-42500000D02*
X101500000Y-38500000D01*
X88600000Y-42500000D02*
X97500000Y-42500000D01*
X125600000Y-38400001D02*
X126499999Y-39300000D01*
X124800000Y-37600001D02*
X125600000Y-38400001D01*
X102399999Y-37600001D02*
X124800000Y-37600001D01*
X101500000Y-38500000D02*
X102399999Y-37600001D01*
X96750000Y-58235773D02*
X96750000Y-56000000D01*
X96750000Y-56000000D02*
X100000000Y-52750000D01*
X89085773Y-65900000D02*
X84672790Y-65900000D01*
X84672790Y-65900000D02*
X83399998Y-65900000D01*
X96750000Y-58235773D02*
X89085773Y-65900000D01*
X127540000Y-44202081D02*
X127540000Y-43000000D01*
X126142081Y-45600000D02*
X127540000Y-44202081D01*
X115000000Y-45600000D02*
X126142081Y-45600000D01*
X106100000Y-59500000D02*
X111000000Y-54600000D01*
X106100000Y-59500000D02*
X106100000Y-62500000D01*
X106100000Y-62500000D02*
X105500000Y-63100000D01*
X111499989Y-52799999D02*
X112399988Y-51900000D01*
X111000000Y-53299988D02*
X111499989Y-52799999D01*
X111000000Y-54600000D02*
X111000000Y-53299988D01*
X126600000Y-77200000D02*
X118900002Y-77200000D01*
X109700000Y-42200000D02*
X109700000Y-48400000D01*
X90000000Y-68100000D02*
X90000000Y-72327208D01*
X90000000Y-72327208D02*
X90000000Y-73600000D01*
X109700000Y-48400000D02*
X90000000Y-68100000D01*
X83700000Y-52900000D02*
X83700000Y-58427208D01*
X83700000Y-58427208D02*
X83700000Y-59700000D01*
X75600000Y-44800000D02*
X83700000Y-52900000D01*
X70900000Y-44800000D02*
X75600000Y-44800000D01*
X114200000Y-86000000D02*
X116100000Y-84100000D01*
X93500000Y-86000000D02*
X114200000Y-86000000D01*
X92540000Y-76800000D02*
X92540000Y-85040000D01*
X92540000Y-85040000D02*
X93500000Y-86000000D01*
D28*
X77300000Y-89800000D02*
X77300000Y-92040000D01*
X79300000Y-87800000D02*
X77300000Y-89800000D01*
X115300000Y-87800000D02*
X79300000Y-87800000D01*
X119600000Y-81500000D02*
X119600000Y-83500000D01*
X119600000Y-83500000D02*
X115300000Y-87800000D01*
D29*
X139900000Y-40025051D02*
X139901921Y-40044560D01*
X139907612Y-40063319D01*
X139916853Y-40080608D01*
X139929289Y-40095762D01*
X139944443Y-40108198D01*
X139961732Y-40117439D01*
X139980491Y-40123130D01*
X140000000Y-40125051D01*
X149675000Y-40125051D01*
X149675001Y-109900000D01*
X140000000Y-109900000D01*
X139980337Y-109901952D01*
X139961586Y-109907672D01*
X139944312Y-109916940D01*
X139929178Y-109929401D01*
X139916766Y-109944574D01*
X139907552Y-109961877D01*
X139901891Y-109980645D01*
X139900000Y-110000157D01*
X139915211Y-119675000D01*
X70100000Y-119675000D01*
X70100000Y-104193168D01*
X73150000Y-104193168D01*
X73150000Y-104606832D01*
X73230702Y-105012547D01*
X73389004Y-105394723D01*
X73618823Y-105738672D01*
X73911328Y-106031177D01*
X74255277Y-106260996D01*
X74637453Y-106419298D01*
X75043168Y-106500000D01*
X75456832Y-106500000D01*
X75862547Y-106419298D01*
X76244723Y-106260996D01*
X76588672Y-106031177D01*
X76881177Y-105738672D01*
X77110996Y-105394723D01*
X77269298Y-105012547D01*
X77350000Y-104606832D01*
X77350000Y-104193168D01*
X82650000Y-104193168D01*
X82650000Y-104606832D01*
X82730702Y-105012547D01*
X82889004Y-105394723D01*
X83118823Y-105738672D01*
X83411328Y-106031177D01*
X83755277Y-106260996D01*
X84137453Y-106419298D01*
X84543168Y-106500000D01*
X84956832Y-106500000D01*
X85362547Y-106419298D01*
X85744723Y-106260996D01*
X86088672Y-106031177D01*
X86381177Y-105738672D01*
X86610996Y-105394723D01*
X86769298Y-105012547D01*
X86850000Y-104606832D01*
X86850000Y-104293168D01*
X103150000Y-104293168D01*
X103150000Y-104706832D01*
X103230702Y-105112547D01*
X103389004Y-105494723D01*
X103618823Y-105838672D01*
X103911328Y-106131177D01*
X104255277Y-106360996D01*
X104637453Y-106519298D01*
X105043168Y-106600000D01*
X105456832Y-106600000D01*
X105862547Y-106519298D01*
X106244723Y-106360996D01*
X106588672Y-106131177D01*
X106881177Y-105838672D01*
X107110996Y-105494723D01*
X107269298Y-105112547D01*
X107350000Y-104706832D01*
X107350000Y-104293168D01*
X112650000Y-104293168D01*
X112650000Y-104706832D01*
X112730702Y-105112547D01*
X112889004Y-105494723D01*
X113118823Y-105838672D01*
X113411328Y-106131177D01*
X113755277Y-106360996D01*
X114137453Y-106519298D01*
X114543168Y-106600000D01*
X114956832Y-106600000D01*
X115362547Y-106519298D01*
X115744723Y-106360996D01*
X116088672Y-106131177D01*
X116381177Y-105838672D01*
X116610996Y-105494723D01*
X116769298Y-105112547D01*
X116850000Y-104706832D01*
X116850000Y-104293168D01*
X133150000Y-104293168D01*
X133150000Y-104706832D01*
X133230702Y-105112547D01*
X133389004Y-105494723D01*
X133618823Y-105838672D01*
X133911328Y-106131177D01*
X134255277Y-106360996D01*
X134637453Y-106519298D01*
X135043168Y-106600000D01*
X135456832Y-106600000D01*
X135862547Y-106519298D01*
X136244723Y-106360996D01*
X136588672Y-106131177D01*
X136881177Y-105838672D01*
X137110996Y-105494723D01*
X137269298Y-105112547D01*
X137350000Y-104706832D01*
X137350000Y-104293168D01*
X142650000Y-104293168D01*
X142650000Y-104706832D01*
X142730702Y-105112547D01*
X142889004Y-105494723D01*
X143118823Y-105838672D01*
X143411328Y-106131177D01*
X143755277Y-106360996D01*
X144137453Y-106519298D01*
X144543168Y-106600000D01*
X144956832Y-106600000D01*
X145362547Y-106519298D01*
X145744723Y-106360996D01*
X146088672Y-106131177D01*
X146381177Y-105838672D01*
X146610996Y-105494723D01*
X146769298Y-105112547D01*
X146850000Y-104706832D01*
X146850000Y-104293168D01*
X146769298Y-103887453D01*
X146610996Y-103505277D01*
X146381177Y-103161328D01*
X146088672Y-102868823D01*
X145744723Y-102639004D01*
X145362547Y-102480702D01*
X144956832Y-102400000D01*
X144543168Y-102400000D01*
X144137453Y-102480702D01*
X143755277Y-102639004D01*
X143411328Y-102868823D01*
X143118823Y-103161328D01*
X142889004Y-103505277D01*
X142730702Y-103887453D01*
X142650000Y-104293168D01*
X137350000Y-104293168D01*
X137269298Y-103887453D01*
X137110996Y-103505277D01*
X136881177Y-103161328D01*
X136588672Y-102868823D01*
X136244723Y-102639004D01*
X135862547Y-102480702D01*
X135456832Y-102400000D01*
X135043168Y-102400000D01*
X134637453Y-102480702D01*
X134255277Y-102639004D01*
X133911328Y-102868823D01*
X133618823Y-103161328D01*
X133389004Y-103505277D01*
X133230702Y-103887453D01*
X133150000Y-104293168D01*
X116850000Y-104293168D01*
X116769298Y-103887453D01*
X116610996Y-103505277D01*
X116381177Y-103161328D01*
X116088672Y-102868823D01*
X115744723Y-102639004D01*
X115362547Y-102480702D01*
X114956832Y-102400000D01*
X114543168Y-102400000D01*
X114137453Y-102480702D01*
X113755277Y-102639004D01*
X113411328Y-102868823D01*
X113118823Y-103161328D01*
X112889004Y-103505277D01*
X112730702Y-103887453D01*
X112650000Y-104293168D01*
X107350000Y-104293168D01*
X107269298Y-103887453D01*
X107110996Y-103505277D01*
X106881177Y-103161328D01*
X106588672Y-102868823D01*
X106244723Y-102639004D01*
X105862547Y-102480702D01*
X105456832Y-102400000D01*
X105043168Y-102400000D01*
X104637453Y-102480702D01*
X104255277Y-102639004D01*
X103911328Y-102868823D01*
X103618823Y-103161328D01*
X103389004Y-103505277D01*
X103230702Y-103887453D01*
X103150000Y-104293168D01*
X86850000Y-104293168D01*
X86850000Y-104193168D01*
X86769298Y-103787453D01*
X86610996Y-103405277D01*
X86381177Y-103061328D01*
X86088672Y-102768823D01*
X85744723Y-102539004D01*
X85362547Y-102380702D01*
X84956832Y-102300000D01*
X84543168Y-102300000D01*
X84137453Y-102380702D01*
X83755277Y-102539004D01*
X83411328Y-102768823D01*
X83118823Y-103061328D01*
X82889004Y-103405277D01*
X82730702Y-103787453D01*
X82650000Y-104193168D01*
X77350000Y-104193168D01*
X77269298Y-103787453D01*
X77110996Y-103405277D01*
X76881177Y-103061328D01*
X76588672Y-102768823D01*
X76244723Y-102539004D01*
X75862547Y-102380702D01*
X75456832Y-102300000D01*
X75043168Y-102300000D01*
X74637453Y-102380702D01*
X74255277Y-102539004D01*
X73911328Y-102768823D01*
X73618823Y-103061328D01*
X73389004Y-103405277D01*
X73230702Y-103787453D01*
X73150000Y-104193168D01*
X70100000Y-104193168D01*
X70100000Y-100000000D01*
X70098079Y-99980491D01*
X70092388Y-99961732D01*
X70083147Y-99944443D01*
X70070711Y-99929289D01*
X70055557Y-99916853D01*
X70038268Y-99907612D01*
X70019509Y-99901921D01*
X70000000Y-99900000D01*
X60325000Y-99900000D01*
X60325000Y-96752263D01*
X76000000Y-96752263D01*
X76000000Y-97047737D01*
X76057644Y-97337534D01*
X76170717Y-97610517D01*
X76334874Y-97856194D01*
X76543806Y-98065126D01*
X76789483Y-98229283D01*
X77062466Y-98342356D01*
X77352263Y-98400000D01*
X77647737Y-98400000D01*
X77773003Y-98375083D01*
X79069439Y-99671520D01*
X79096052Y-99703948D01*
X79225481Y-99810168D01*
X79373145Y-99889097D01*
X79533371Y-99937700D01*
X79658251Y-99950000D01*
X79658259Y-99950000D01*
X79700000Y-99954111D01*
X79741741Y-99950000D01*
X84458259Y-99950000D01*
X84500000Y-99954111D01*
X84541741Y-99950000D01*
X84541749Y-99950000D01*
X84666629Y-99937700D01*
X84826855Y-99889097D01*
X84974519Y-99810168D01*
X85103948Y-99703948D01*
X85130566Y-99671514D01*
X86952082Y-97850000D01*
X106263917Y-97850000D01*
X106334874Y-97956194D01*
X106543806Y-98165126D01*
X106789483Y-98329283D01*
X107062466Y-98442356D01*
X107352263Y-98500000D01*
X107647737Y-98500000D01*
X107773002Y-98475083D01*
X108969443Y-99671525D01*
X108996052Y-99703948D01*
X109028475Y-99730557D01*
X109028479Y-99730561D01*
X109106912Y-99794929D01*
X109125481Y-99810168D01*
X109273145Y-99889097D01*
X109433371Y-99937700D01*
X109558251Y-99950000D01*
X109558261Y-99950000D01*
X109599999Y-99954111D01*
X109641737Y-99950000D01*
X135358259Y-99950000D01*
X135400000Y-99954111D01*
X135441741Y-99950000D01*
X135441749Y-99950000D01*
X135566629Y-99937700D01*
X135726855Y-99889097D01*
X135874519Y-99810168D01*
X136003948Y-99703948D01*
X136030566Y-99671514D01*
X137226998Y-98475083D01*
X137352263Y-98500000D01*
X137647737Y-98500000D01*
X137937534Y-98442356D01*
X138210517Y-98329283D01*
X138456194Y-98165126D01*
X138665126Y-97956194D01*
X138750000Y-97829172D01*
X138834874Y-97956194D01*
X139043806Y-98165126D01*
X139289483Y-98329283D01*
X139562466Y-98442356D01*
X139852263Y-98500000D01*
X140147737Y-98500000D01*
X140437534Y-98442356D01*
X140710517Y-98329283D01*
X140956194Y-98165126D01*
X141165126Y-97956194D01*
X141183980Y-97927976D01*
X141789813Y-97927976D01*
X141891872Y-98099017D01*
X142117965Y-98196540D01*
X142358739Y-98248080D01*
X142604942Y-98251657D01*
X142847112Y-98207133D01*
X143075942Y-98116220D01*
X143108128Y-98099017D01*
X143210187Y-97927976D01*
X142500000Y-97217789D01*
X141789813Y-97927976D01*
X141183980Y-97927976D01*
X141329283Y-97710517D01*
X141384482Y-97577255D01*
X141400983Y-97608128D01*
X141572024Y-97710187D01*
X142282211Y-97000000D01*
X142717789Y-97000000D01*
X143427976Y-97710187D01*
X143599017Y-97608128D01*
X143696540Y-97382035D01*
X143748080Y-97141261D01*
X143751657Y-96895058D01*
X143707133Y-96652888D01*
X143616220Y-96424058D01*
X143599017Y-96391872D01*
X143427976Y-96289813D01*
X142717789Y-97000000D01*
X142282211Y-97000000D01*
X141572024Y-96289813D01*
X141400983Y-96391872D01*
X141386042Y-96426511D01*
X141329283Y-96289483D01*
X141183981Y-96072024D01*
X141789813Y-96072024D01*
X142500000Y-96782211D01*
X143210187Y-96072024D01*
X143108128Y-95900983D01*
X142882035Y-95803460D01*
X142641261Y-95751920D01*
X142395058Y-95748343D01*
X142152888Y-95792867D01*
X141924058Y-95883780D01*
X141891872Y-95900983D01*
X141789813Y-96072024D01*
X141183981Y-96072024D01*
X141165126Y-96043806D01*
X140956194Y-95834874D01*
X140710517Y-95670717D01*
X140437534Y-95557644D01*
X140147737Y-95500000D01*
X139852263Y-95500000D01*
X139562466Y-95557644D01*
X139289483Y-95670717D01*
X139043806Y-95834874D01*
X138834874Y-96043806D01*
X138750000Y-96170828D01*
X138665126Y-96043806D01*
X138456194Y-95834874D01*
X138210517Y-95670717D01*
X137937534Y-95557644D01*
X137647737Y-95500000D01*
X137352263Y-95500000D01*
X137062466Y-95557644D01*
X136789483Y-95670717D01*
X136543806Y-95834874D01*
X136334874Y-96043806D01*
X136170717Y-96289483D01*
X136057644Y-96562466D01*
X136000000Y-96852263D01*
X136000000Y-97147737D01*
X136024917Y-97273002D01*
X135047920Y-98250000D01*
X112613955Y-98250000D01*
X112847112Y-98207133D01*
X113075942Y-98116220D01*
X113108128Y-98099017D01*
X113210187Y-97927976D01*
X112500000Y-97217789D01*
X111789813Y-97927976D01*
X111891872Y-98099017D01*
X112117965Y-98196540D01*
X112358739Y-98248080D01*
X112490892Y-98250000D01*
X110829172Y-98250000D01*
X110956194Y-98165126D01*
X111165126Y-97956194D01*
X111329283Y-97710517D01*
X111384482Y-97577255D01*
X111400983Y-97608128D01*
X111572024Y-97710187D01*
X112282211Y-97000000D01*
X112717789Y-97000000D01*
X113427976Y-97710187D01*
X113599017Y-97608128D01*
X113696540Y-97382035D01*
X113748080Y-97141261D01*
X113751657Y-96895058D01*
X113707133Y-96652888D01*
X113616220Y-96424058D01*
X113599017Y-96391872D01*
X113427976Y-96289813D01*
X112717789Y-97000000D01*
X112282211Y-97000000D01*
X111572024Y-96289813D01*
X111400983Y-96391872D01*
X111386042Y-96426511D01*
X111329283Y-96289483D01*
X111183981Y-96072024D01*
X111789813Y-96072024D01*
X112500000Y-96782211D01*
X113210187Y-96072024D01*
X113108128Y-95900983D01*
X112882035Y-95803460D01*
X112641261Y-95751920D01*
X112395058Y-95748343D01*
X112152888Y-95792867D01*
X111924058Y-95883780D01*
X111891872Y-95900983D01*
X111789813Y-96072024D01*
X111183981Y-96072024D01*
X111165126Y-96043806D01*
X110956194Y-95834874D01*
X110710517Y-95670717D01*
X110437534Y-95557644D01*
X110147737Y-95500000D01*
X109852263Y-95500000D01*
X109562466Y-95557644D01*
X109289483Y-95670717D01*
X109043806Y-95834874D01*
X108834874Y-96043806D01*
X108750000Y-96170828D01*
X108665126Y-96043806D01*
X108456194Y-95834874D01*
X108210517Y-95670717D01*
X107937534Y-95557644D01*
X107647737Y-95500000D01*
X107352263Y-95500000D01*
X107062466Y-95557644D01*
X106789483Y-95670717D01*
X106543806Y-95834874D01*
X106334874Y-96043806D01*
X106263917Y-96150000D01*
X86641737Y-96150000D01*
X86599999Y-96145889D01*
X86558261Y-96150000D01*
X86558251Y-96150000D01*
X86433371Y-96162300D01*
X86273145Y-96210903D01*
X86125481Y-96289832D01*
X86125479Y-96289833D01*
X86125480Y-96289833D01*
X86028479Y-96369439D01*
X86028475Y-96369443D01*
X85996052Y-96396052D01*
X85969443Y-96428475D01*
X84147920Y-98250000D01*
X80660502Y-98250000D01*
X80710517Y-98229283D01*
X80956194Y-98065126D01*
X81165126Y-97856194D01*
X81183980Y-97827976D01*
X81789813Y-97827976D01*
X81891872Y-97999017D01*
X82117965Y-98096540D01*
X82358739Y-98148080D01*
X82604942Y-98151657D01*
X82847112Y-98107133D01*
X83075942Y-98016220D01*
X83108128Y-97999017D01*
X83210187Y-97827976D01*
X82500000Y-97117789D01*
X81789813Y-97827976D01*
X81183980Y-97827976D01*
X81329283Y-97610517D01*
X81384482Y-97477255D01*
X81400983Y-97508128D01*
X81572024Y-97610187D01*
X82282211Y-96900000D01*
X82717789Y-96900000D01*
X83427976Y-97610187D01*
X83599017Y-97508128D01*
X83696540Y-97282035D01*
X83748080Y-97041261D01*
X83751657Y-96795058D01*
X83707133Y-96552888D01*
X83616220Y-96324058D01*
X83599017Y-96291872D01*
X83427976Y-96189813D01*
X82717789Y-96900000D01*
X82282211Y-96900000D01*
X81572024Y-96189813D01*
X81400983Y-96291872D01*
X81386042Y-96326511D01*
X81329283Y-96189483D01*
X81183981Y-95972024D01*
X81789813Y-95972024D01*
X82500000Y-96682211D01*
X83210187Y-95972024D01*
X83108128Y-95800983D01*
X82882035Y-95703460D01*
X82641261Y-95651920D01*
X82395058Y-95648343D01*
X82152888Y-95692867D01*
X81924058Y-95783780D01*
X81891872Y-95800983D01*
X81789813Y-95972024D01*
X81183981Y-95972024D01*
X81165126Y-95943806D01*
X80956194Y-95734874D01*
X80710517Y-95570717D01*
X80437534Y-95457644D01*
X80147737Y-95400000D01*
X79852263Y-95400000D01*
X79562466Y-95457644D01*
X79289483Y-95570717D01*
X79043806Y-95734874D01*
X78834874Y-95943806D01*
X78750000Y-96070828D01*
X78665126Y-95943806D01*
X78456194Y-95734874D01*
X78210517Y-95570717D01*
X77937534Y-95457644D01*
X77647737Y-95400000D01*
X77352263Y-95400000D01*
X77062466Y-95457644D01*
X76789483Y-95570717D01*
X76543806Y-95734874D01*
X76334874Y-95943806D01*
X76170717Y-96189483D01*
X76057644Y-96462466D01*
X76000000Y-96752263D01*
X60325000Y-96752263D01*
X60325000Y-91024000D01*
X75833497Y-91024000D01*
X75833497Y-93056000D01*
X75845082Y-93173621D01*
X75879390Y-93286721D01*
X75935104Y-93390955D01*
X76010083Y-93482317D01*
X76101445Y-93557296D01*
X76205679Y-93613010D01*
X76318779Y-93647318D01*
X76436400Y-93658903D01*
X78163600Y-93658903D01*
X78281221Y-93647318D01*
X78394321Y-93613010D01*
X78498555Y-93557296D01*
X78589917Y-93482317D01*
X78664896Y-93390955D01*
X78720610Y-93286721D01*
X78754918Y-93173621D01*
X78766503Y-93056000D01*
X78766503Y-92746333D01*
X78806158Y-92827816D01*
X78949986Y-93017299D01*
X79128017Y-93175082D01*
X79333409Y-93295101D01*
X79499582Y-93357277D01*
X79686000Y-93307920D01*
X79686000Y-92194000D01*
X79666000Y-92194000D01*
X79666000Y-91886000D01*
X79686000Y-91886000D01*
X79686000Y-90772080D01*
X79994000Y-90772080D01*
X79994000Y-91886000D01*
X80014000Y-91886000D01*
X80014000Y-92194000D01*
X79994000Y-92194000D01*
X79994000Y-93307920D01*
X80180418Y-93357277D01*
X80346591Y-93295101D01*
X80551983Y-93175082D01*
X80730014Y-93017299D01*
X80873842Y-92827816D01*
X80977941Y-92613914D01*
X80978158Y-92613088D01*
X81021268Y-92755204D01*
X81157173Y-93009466D01*
X81340071Y-93232328D01*
X81562933Y-93415227D01*
X81817195Y-93551132D01*
X82093084Y-93634822D01*
X82380000Y-93663081D01*
X82666915Y-93634822D01*
X82942804Y-93551132D01*
X83197066Y-93415227D01*
X83419928Y-93232329D01*
X83602827Y-93009467D01*
X83650000Y-92921211D01*
X83697173Y-93009466D01*
X83880071Y-93232328D01*
X84102933Y-93415227D01*
X84357195Y-93551132D01*
X84633084Y-93634822D01*
X84920000Y-93663081D01*
X85206915Y-93634822D01*
X85482804Y-93551132D01*
X85737066Y-93415227D01*
X85959928Y-93232329D01*
X86142827Y-93009467D01*
X86190000Y-92921211D01*
X86237173Y-93009466D01*
X86420071Y-93232328D01*
X86642933Y-93415227D01*
X86897195Y-93551132D01*
X87173084Y-93634822D01*
X87460000Y-93663081D01*
X87746915Y-93634822D01*
X88022804Y-93551132D01*
X88277066Y-93415227D01*
X88499928Y-93232329D01*
X88682827Y-93009467D01*
X88730000Y-92921211D01*
X88777173Y-93009466D01*
X88960071Y-93232328D01*
X89182933Y-93415227D01*
X89437195Y-93551132D01*
X89713084Y-93634822D01*
X90000000Y-93663081D01*
X90286915Y-93634822D01*
X90562804Y-93551132D01*
X90817066Y-93415227D01*
X91039928Y-93232329D01*
X91222827Y-93009467D01*
X91270000Y-92921211D01*
X91317173Y-93009466D01*
X91500071Y-93232328D01*
X91722933Y-93415227D01*
X91977195Y-93551132D01*
X92253084Y-93634822D01*
X92540000Y-93663081D01*
X92826915Y-93634822D01*
X93102804Y-93551132D01*
X93357066Y-93415227D01*
X93579928Y-93232329D01*
X93762827Y-93009467D01*
X93810000Y-92921211D01*
X93857173Y-93009466D01*
X94040071Y-93232328D01*
X94262933Y-93415227D01*
X94517195Y-93551132D01*
X94793084Y-93634822D01*
X95080000Y-93663081D01*
X95366915Y-93634822D01*
X95642804Y-93551132D01*
X95897066Y-93415227D01*
X96119928Y-93232329D01*
X96302827Y-93009467D01*
X96350000Y-92921211D01*
X96397173Y-93009466D01*
X96580071Y-93232328D01*
X96802933Y-93415227D01*
X97057195Y-93551132D01*
X97333084Y-93634822D01*
X97620000Y-93663081D01*
X97906915Y-93634822D01*
X98182804Y-93551132D01*
X98437066Y-93415227D01*
X98659928Y-93232329D01*
X98842827Y-93009467D01*
X98890000Y-92921211D01*
X98937173Y-93009466D01*
X99120071Y-93232328D01*
X99342933Y-93415227D01*
X99597195Y-93551132D01*
X99873084Y-93634822D01*
X100160000Y-93663081D01*
X100446915Y-93634822D01*
X100722804Y-93551132D01*
X100977066Y-93415227D01*
X101199928Y-93232329D01*
X101382827Y-93009467D01*
X101430000Y-92921211D01*
X101477173Y-93009466D01*
X101660071Y-93232328D01*
X101882933Y-93415227D01*
X102137195Y-93551132D01*
X102413084Y-93634822D01*
X102700000Y-93663081D01*
X102986915Y-93634822D01*
X103262804Y-93551132D01*
X103517066Y-93415227D01*
X103739928Y-93232329D01*
X103922827Y-93009467D01*
X103970000Y-92921211D01*
X104017173Y-93009466D01*
X104200071Y-93232328D01*
X104422933Y-93415227D01*
X104677195Y-93551132D01*
X104953084Y-93634822D01*
X105240000Y-93663081D01*
X105526915Y-93634822D01*
X105802804Y-93551132D01*
X106057066Y-93415227D01*
X106279928Y-93232329D01*
X106462827Y-93009467D01*
X106510000Y-92921211D01*
X106557173Y-93009466D01*
X106740071Y-93232328D01*
X106962933Y-93415227D01*
X107217195Y-93551132D01*
X107493084Y-93634822D01*
X107780000Y-93663081D01*
X108066915Y-93634822D01*
X108342804Y-93551132D01*
X108597066Y-93415227D01*
X108819928Y-93232329D01*
X109002827Y-93009467D01*
X109050000Y-92921211D01*
X109097173Y-93009466D01*
X109280071Y-93232328D01*
X109502933Y-93415227D01*
X109757195Y-93551132D01*
X110033084Y-93634822D01*
X110320000Y-93663081D01*
X110606915Y-93634822D01*
X110882804Y-93551132D01*
X111137066Y-93415227D01*
X111359928Y-93232329D01*
X111542827Y-93009467D01*
X111590000Y-92921211D01*
X111637173Y-93009466D01*
X111820071Y-93232328D01*
X112042933Y-93415227D01*
X112297195Y-93551132D01*
X112573084Y-93634822D01*
X112860000Y-93663081D01*
X113146915Y-93634822D01*
X113422804Y-93551132D01*
X113677066Y-93415227D01*
X113899928Y-93232329D01*
X114082827Y-93009467D01*
X114218732Y-92755205D01*
X114302422Y-92479316D01*
X114323600Y-92264294D01*
X114323600Y-91815707D01*
X114302422Y-91600685D01*
X114218732Y-91324796D01*
X114082827Y-91070533D01*
X113899929Y-90847671D01*
X113677067Y-90664773D01*
X113422805Y-90528868D01*
X113146916Y-90445178D01*
X112860000Y-90416919D01*
X112573085Y-90445178D01*
X112297196Y-90528868D01*
X112042934Y-90664773D01*
X111820072Y-90847671D01*
X111637173Y-91070533D01*
X111590000Y-91158788D01*
X111542827Y-91070533D01*
X111359929Y-90847671D01*
X111137067Y-90664773D01*
X110882805Y-90528868D01*
X110606916Y-90445178D01*
X110320000Y-90416919D01*
X110033085Y-90445178D01*
X109757196Y-90528868D01*
X109502934Y-90664773D01*
X109280072Y-90847671D01*
X109097173Y-91070533D01*
X109050000Y-91158788D01*
X109002827Y-91070533D01*
X108819929Y-90847671D01*
X108597067Y-90664773D01*
X108342805Y-90528868D01*
X108066916Y-90445178D01*
X107780000Y-90416919D01*
X107493085Y-90445178D01*
X107217196Y-90528868D01*
X106962934Y-90664773D01*
X106740072Y-90847671D01*
X106557173Y-91070533D01*
X106510000Y-91158788D01*
X106462827Y-91070533D01*
X106279929Y-90847671D01*
X106057067Y-90664773D01*
X105802805Y-90528868D01*
X105526916Y-90445178D01*
X105240000Y-90416919D01*
X104953085Y-90445178D01*
X104677196Y-90528868D01*
X104422934Y-90664773D01*
X104200072Y-90847671D01*
X104017173Y-91070533D01*
X103970000Y-91158788D01*
X103922827Y-91070533D01*
X103739929Y-90847671D01*
X103517067Y-90664773D01*
X103262805Y-90528868D01*
X102986916Y-90445178D01*
X102700000Y-90416919D01*
X102413085Y-90445178D01*
X102137196Y-90528868D01*
X101882934Y-90664773D01*
X101660072Y-90847671D01*
X101477173Y-91070533D01*
X101430000Y-91158788D01*
X101382827Y-91070533D01*
X101199929Y-90847671D01*
X100977067Y-90664773D01*
X100722805Y-90528868D01*
X100446916Y-90445178D01*
X100160000Y-90416919D01*
X99873085Y-90445178D01*
X99597196Y-90528868D01*
X99342934Y-90664773D01*
X99120072Y-90847671D01*
X98937173Y-91070533D01*
X98890000Y-91158788D01*
X98842827Y-91070533D01*
X98659929Y-90847671D01*
X98437067Y-90664773D01*
X98182805Y-90528868D01*
X97906916Y-90445178D01*
X97620000Y-90416919D01*
X97333085Y-90445178D01*
X97057196Y-90528868D01*
X96802934Y-90664773D01*
X96580072Y-90847671D01*
X96397173Y-91070533D01*
X96350000Y-91158788D01*
X96302827Y-91070533D01*
X96119929Y-90847671D01*
X95897067Y-90664773D01*
X95642805Y-90528868D01*
X95366916Y-90445178D01*
X95080000Y-90416919D01*
X94793085Y-90445178D01*
X94517196Y-90528868D01*
X94262934Y-90664773D01*
X94040072Y-90847671D01*
X93857173Y-91070533D01*
X93810000Y-91158788D01*
X93762827Y-91070533D01*
X93579929Y-90847671D01*
X93357067Y-90664773D01*
X93102805Y-90528868D01*
X92826916Y-90445178D01*
X92540000Y-90416919D01*
X92253085Y-90445178D01*
X91977196Y-90528868D01*
X91722934Y-90664773D01*
X91500072Y-90847671D01*
X91317173Y-91070533D01*
X91270000Y-91158788D01*
X91222827Y-91070533D01*
X91039929Y-90847671D01*
X90817067Y-90664773D01*
X90562805Y-90528868D01*
X90286916Y-90445178D01*
X90000000Y-90416919D01*
X89713085Y-90445178D01*
X89437196Y-90528868D01*
X89182934Y-90664773D01*
X88960072Y-90847671D01*
X88777173Y-91070533D01*
X88730000Y-91158788D01*
X88682827Y-91070533D01*
X88499929Y-90847671D01*
X88277067Y-90664773D01*
X88022805Y-90528868D01*
X87746916Y-90445178D01*
X87460000Y-90416919D01*
X87173085Y-90445178D01*
X86897196Y-90528868D01*
X86642934Y-90664773D01*
X86420072Y-90847671D01*
X86237173Y-91070533D01*
X86190000Y-91158788D01*
X86142827Y-91070533D01*
X85959929Y-90847671D01*
X85737067Y-90664773D01*
X85482805Y-90528868D01*
X85206916Y-90445178D01*
X84920000Y-90416919D01*
X84633085Y-90445178D01*
X84357196Y-90528868D01*
X84102934Y-90664773D01*
X83880072Y-90847671D01*
X83697173Y-91070533D01*
X83650000Y-91158788D01*
X83602827Y-91070533D01*
X83419929Y-90847671D01*
X83197067Y-90664773D01*
X82942805Y-90528868D01*
X82666916Y-90445178D01*
X82380000Y-90416919D01*
X82093085Y-90445178D01*
X81817196Y-90528868D01*
X81562934Y-90664773D01*
X81340072Y-90847671D01*
X81157173Y-91070533D01*
X81021268Y-91324795D01*
X80978158Y-91466911D01*
X80977941Y-91466086D01*
X80873842Y-91252184D01*
X80730014Y-91062701D01*
X80551983Y-90904918D01*
X80346591Y-90784899D01*
X80180418Y-90722723D01*
X79994000Y-90772080D01*
X79686000Y-90772080D01*
X79499582Y-90722723D01*
X79333409Y-90784899D01*
X79128017Y-90904918D01*
X78949986Y-91062701D01*
X78806158Y-91252184D01*
X78766503Y-91333667D01*
X78766503Y-91024000D01*
X78754918Y-90906379D01*
X78720610Y-90793279D01*
X78664896Y-90689045D01*
X78589917Y-90597683D01*
X78498555Y-90522704D01*
X78400000Y-90470025D01*
X78400000Y-90255634D01*
X79755635Y-88900000D01*
X115245966Y-88900000D01*
X115300000Y-88905322D01*
X115354034Y-88900000D01*
X115354036Y-88900000D01*
X115515638Y-88884084D01*
X115722988Y-88821184D01*
X115914084Y-88719042D01*
X115998212Y-88650000D01*
X132247097Y-88650000D01*
X132247097Y-90350000D01*
X132258682Y-90467621D01*
X132292990Y-90580721D01*
X132348704Y-90684955D01*
X132423683Y-90776317D01*
X132515045Y-90851296D01*
X132619279Y-90907010D01*
X132732379Y-90941318D01*
X132746665Y-90942725D01*
X132573711Y-91115679D01*
X132415027Y-91353167D01*
X132305723Y-91617051D01*
X132250000Y-91897187D01*
X132250000Y-92182813D01*
X132305723Y-92462949D01*
X132415027Y-92726833D01*
X132573711Y-92964321D01*
X132775679Y-93166289D01*
X133013167Y-93324973D01*
X133277051Y-93434277D01*
X133557187Y-93490000D01*
X133842813Y-93490000D01*
X134122949Y-93434277D01*
X134386833Y-93324973D01*
X134624321Y-93166289D01*
X134826289Y-92964321D01*
X134984973Y-92726833D01*
X135094277Y-92462949D01*
X135150000Y-92182813D01*
X135150000Y-91897187D01*
X135094277Y-91617051D01*
X134984973Y-91353167D01*
X134826289Y-91115679D01*
X134653335Y-90942725D01*
X134667621Y-90941318D01*
X134780721Y-90907010D01*
X134884955Y-90851296D01*
X134976317Y-90776317D01*
X135051296Y-90684955D01*
X135107010Y-90580721D01*
X135141318Y-90467621D01*
X135152903Y-90350000D01*
X135152903Y-88650000D01*
X135141318Y-88532379D01*
X135107010Y-88419279D01*
X135051296Y-88315045D01*
X134976317Y-88223683D01*
X134884955Y-88148704D01*
X134780721Y-88092990D01*
X134667621Y-88058682D01*
X134550000Y-88047097D01*
X132850000Y-88047097D01*
X132732379Y-88058682D01*
X132619279Y-88092990D01*
X132515045Y-88148704D01*
X132423683Y-88223683D01*
X132348704Y-88315045D01*
X132292990Y-88419279D01*
X132258682Y-88532379D01*
X132247097Y-88650000D01*
X115998212Y-88650000D01*
X116081581Y-88581581D01*
X116116033Y-88539601D01*
X120339606Y-84316029D01*
X120381581Y-84281581D01*
X120460113Y-84185889D01*
X120519042Y-84114085D01*
X120621183Y-83922989D01*
X120621184Y-83922988D01*
X120684084Y-83715638D01*
X120700000Y-83554036D01*
X120700000Y-83554035D01*
X120705322Y-83500001D01*
X120700000Y-83445967D01*
X120700000Y-82929845D01*
X120747433Y-82898151D01*
X120998151Y-82647433D01*
X121195139Y-82352620D01*
X121330827Y-82025041D01*
X121400000Y-81677284D01*
X121400000Y-81322716D01*
X121330827Y-80974959D01*
X121195139Y-80647380D01*
X121029844Y-80399999D01*
X121644365Y-80399999D01*
X123083971Y-81839606D01*
X123118419Y-81881581D01*
X123285916Y-82019042D01*
X123477012Y-82121184D01*
X123684362Y-82184084D01*
X123845964Y-82200000D01*
X123845966Y-82200000D01*
X123900000Y-82205322D01*
X123954034Y-82200000D01*
X129845966Y-82200000D01*
X129900000Y-82205322D01*
X129954034Y-82200000D01*
X129954036Y-82200000D01*
X130115638Y-82184084D01*
X130322988Y-82121184D01*
X130514084Y-82019042D01*
X130681581Y-81881581D01*
X130716033Y-81839601D01*
X131505634Y-81050000D01*
X132247097Y-81050000D01*
X132247097Y-82750000D01*
X132258682Y-82867621D01*
X132292990Y-82980721D01*
X132348704Y-83084955D01*
X132423683Y-83176317D01*
X132515045Y-83251296D01*
X132619279Y-83307010D01*
X132732379Y-83341318D01*
X132746665Y-83342725D01*
X132573711Y-83515679D01*
X132415027Y-83753167D01*
X132305723Y-84017051D01*
X132250000Y-84297187D01*
X132250000Y-84582813D01*
X132305723Y-84862949D01*
X132415027Y-85126833D01*
X132573711Y-85364321D01*
X132775679Y-85566289D01*
X133013167Y-85724973D01*
X133277051Y-85834277D01*
X133557187Y-85890000D01*
X133842813Y-85890000D01*
X134122949Y-85834277D01*
X134386833Y-85724973D01*
X134624321Y-85566289D01*
X134826289Y-85364321D01*
X134984973Y-85126833D01*
X135094277Y-84862949D01*
X135150000Y-84582813D01*
X135150000Y-84297187D01*
X135094277Y-84017051D01*
X134984973Y-83753167D01*
X134826289Y-83515679D01*
X134653335Y-83342725D01*
X134667621Y-83341318D01*
X134780721Y-83307010D01*
X134884955Y-83251296D01*
X134976317Y-83176317D01*
X135051296Y-83084955D01*
X135107010Y-82980721D01*
X135141318Y-82867621D01*
X135152903Y-82750000D01*
X135152903Y-81050000D01*
X135141318Y-80932379D01*
X135107010Y-80819279D01*
X135051296Y-80715045D01*
X134976317Y-80623683D01*
X134884955Y-80548704D01*
X134780721Y-80492990D01*
X134667621Y-80458682D01*
X134550000Y-80447097D01*
X132850000Y-80447097D01*
X132732379Y-80458682D01*
X132619279Y-80492990D01*
X132515045Y-80548704D01*
X132423683Y-80623683D01*
X132348704Y-80715045D01*
X132292990Y-80819279D01*
X132258682Y-80932379D01*
X132247097Y-81050000D01*
X131505634Y-81050000D01*
X132155636Y-80399999D01*
X141904087Y-80399999D01*
X141968813Y-80725401D01*
X142104501Y-81052980D01*
X142301489Y-81347793D01*
X142552207Y-81598511D01*
X142847020Y-81795499D01*
X143174599Y-81931187D01*
X143522356Y-82000360D01*
X143876924Y-82000360D01*
X144224681Y-81931187D01*
X144552260Y-81795499D01*
X144847073Y-81598511D01*
X145097791Y-81347793D01*
X145294779Y-81052980D01*
X145430467Y-80725401D01*
X145499640Y-80377644D01*
X145499640Y-80023076D01*
X145430467Y-79675319D01*
X145294779Y-79347740D01*
X145097791Y-79052927D01*
X144847073Y-78802209D01*
X144552260Y-78605221D01*
X144224681Y-78469533D01*
X143876924Y-78400360D01*
X143522356Y-78400360D01*
X143453657Y-78414025D01*
X143413363Y-78380957D01*
X143222267Y-78278815D01*
X143014917Y-78215915D01*
X142853315Y-78199999D01*
X142853313Y-78199999D01*
X142799279Y-78194677D01*
X142745245Y-78199999D01*
X131754035Y-78199999D01*
X131700001Y-78194677D01*
X131645967Y-78199999D01*
X131645965Y-78199999D01*
X131484363Y-78215915D01*
X131277013Y-78278815D01*
X131085917Y-78380957D01*
X130918420Y-78518418D01*
X130883972Y-78560393D01*
X129444366Y-80000000D01*
X124355635Y-80000000D01*
X122916032Y-78560398D01*
X122881580Y-78518418D01*
X122714083Y-78380957D01*
X122522987Y-78278815D01*
X122315637Y-78215915D01*
X122154035Y-78199999D01*
X122154033Y-78199999D01*
X122099999Y-78194677D01*
X122045965Y-78199999D01*
X120021323Y-78199999D01*
X120065128Y-78156194D01*
X120136085Y-78050000D01*
X125147097Y-78050000D01*
X125158682Y-78167621D01*
X125192990Y-78280721D01*
X125248704Y-78384955D01*
X125323683Y-78476317D01*
X125415045Y-78551296D01*
X125519279Y-78607010D01*
X125632379Y-78641318D01*
X125750000Y-78652903D01*
X127450000Y-78652903D01*
X127567621Y-78641318D01*
X127680721Y-78607010D01*
X127784955Y-78551296D01*
X127876317Y-78476317D01*
X127951296Y-78384955D01*
X128007010Y-78280721D01*
X128041318Y-78167621D01*
X128052903Y-78050000D01*
X128052903Y-77697300D01*
X128076775Y-77756390D01*
X128205751Y-77953124D01*
X128370630Y-78120916D01*
X128565075Y-78253317D01*
X128781614Y-78345240D01*
X128801727Y-78351334D01*
X128986000Y-78301790D01*
X128986000Y-77354000D01*
X129294000Y-77354000D01*
X129294000Y-78301790D01*
X129478273Y-78351334D01*
X129498386Y-78345240D01*
X129714925Y-78253317D01*
X129909370Y-78120916D01*
X130074249Y-77953124D01*
X130203225Y-77756390D01*
X130291342Y-77538274D01*
X130242585Y-77354000D01*
X129294000Y-77354000D01*
X128986000Y-77354000D01*
X128966000Y-77354000D01*
X128966000Y-77046000D01*
X128986000Y-77046000D01*
X128986000Y-76098210D01*
X129294000Y-76098210D01*
X129294000Y-77046000D01*
X130242585Y-77046000D01*
X130291342Y-76861726D01*
X130203225Y-76643610D01*
X130074249Y-76446876D01*
X129909370Y-76279084D01*
X129714925Y-76146683D01*
X129498386Y-76054760D01*
X129478273Y-76048666D01*
X129294000Y-76098210D01*
X128986000Y-76098210D01*
X128801727Y-76048666D01*
X128781614Y-76054760D01*
X128565075Y-76146683D01*
X128370630Y-76279084D01*
X128205751Y-76446876D01*
X128076775Y-76643610D01*
X128052903Y-76702700D01*
X128052903Y-76350000D01*
X128041318Y-76232379D01*
X128007010Y-76119279D01*
X127951296Y-76015045D01*
X127876317Y-75923683D01*
X127784955Y-75848704D01*
X127680721Y-75792990D01*
X127567621Y-75758682D01*
X127450000Y-75747097D01*
X125750000Y-75747097D01*
X125632379Y-75758682D01*
X125519279Y-75792990D01*
X125415045Y-75848704D01*
X125323683Y-75923683D01*
X125248704Y-76015045D01*
X125192990Y-76119279D01*
X125158682Y-76232379D01*
X125147097Y-76350000D01*
X120136085Y-76350000D01*
X120065128Y-76243806D01*
X119856196Y-76034874D01*
X119610519Y-75870717D01*
X119337536Y-75757644D01*
X119047739Y-75700000D01*
X118752265Y-75700000D01*
X118462468Y-75757644D01*
X118189485Y-75870717D01*
X117943808Y-76034874D01*
X117734876Y-76243806D01*
X117570719Y-76489483D01*
X117457646Y-76762466D01*
X117400002Y-77052263D01*
X117400002Y-77347737D01*
X117457646Y-77637534D01*
X117570719Y-77910517D01*
X117734876Y-78156194D01*
X117778681Y-78199999D01*
X117729844Y-78199999D01*
X117698150Y-78152566D01*
X117447432Y-77901848D01*
X117152619Y-77704860D01*
X116825040Y-77569172D01*
X116477283Y-77499999D01*
X116122715Y-77499999D01*
X115774958Y-77569172D01*
X115447379Y-77704860D01*
X115308125Y-77797906D01*
X115311310Y-77787408D01*
X115323610Y-77662528D01*
X115323610Y-77662521D01*
X115327721Y-77620780D01*
X115323610Y-77579039D01*
X115323610Y-76020958D01*
X115327721Y-75979220D01*
X115323610Y-75937482D01*
X115323610Y-75937472D01*
X115311310Y-75812592D01*
X115262707Y-75652366D01*
X115183778Y-75504702D01*
X115165740Y-75482723D01*
X115104171Y-75407700D01*
X115104167Y-75407696D01*
X115077558Y-75375273D01*
X115045135Y-75348664D01*
X114400001Y-74703531D01*
X114400001Y-59300000D01*
X114597737Y-59300000D01*
X114887534Y-59242356D01*
X115160517Y-59129283D01*
X115406194Y-58965126D01*
X115615126Y-58756194D01*
X115779283Y-58510517D01*
X115892356Y-58237534D01*
X115950000Y-57947737D01*
X115950000Y-57652263D01*
X115892356Y-57362466D01*
X115779283Y-57089483D01*
X115615126Y-56843806D01*
X115406194Y-56634874D01*
X115160517Y-56470717D01*
X114887534Y-56357644D01*
X114597737Y-56300000D01*
X114302263Y-56300000D01*
X114012466Y-56357644D01*
X113739483Y-56470717D01*
X113493806Y-56634874D01*
X113284874Y-56843806D01*
X113120717Y-57089483D01*
X113007644Y-57362466D01*
X112950000Y-57652263D01*
X112950000Y-57947737D01*
X112974808Y-58072453D01*
X112946054Y-58096051D01*
X112839834Y-58225480D01*
X112813622Y-58274519D01*
X112760904Y-58373145D01*
X112712301Y-58533370D01*
X112695890Y-58699999D01*
X112700002Y-58741750D01*
X112700001Y-75013871D01*
X112695890Y-75055612D01*
X112700001Y-75097353D01*
X112700001Y-75097360D01*
X112709299Y-75191762D01*
X112573085Y-75205178D01*
X112297196Y-75288868D01*
X112042934Y-75424773D01*
X111820072Y-75607671D01*
X111637173Y-75830533D01*
X111590000Y-75918788D01*
X111542827Y-75830533D01*
X111359929Y-75607671D01*
X111137067Y-75424773D01*
X110882805Y-75288868D01*
X110606916Y-75205178D01*
X110320000Y-75176919D01*
X110033085Y-75205178D01*
X109757196Y-75288868D01*
X109502934Y-75424773D01*
X109280072Y-75607671D01*
X109097173Y-75830533D01*
X109050000Y-75918788D01*
X109002827Y-75830533D01*
X108819929Y-75607671D01*
X108597067Y-75424773D01*
X108342805Y-75288868D01*
X108066916Y-75205178D01*
X107780000Y-75176919D01*
X107493085Y-75205178D01*
X107217196Y-75288868D01*
X106962934Y-75424773D01*
X106740072Y-75607671D01*
X106557173Y-75830533D01*
X106510000Y-75918788D01*
X106462827Y-75830533D01*
X106279929Y-75607671D01*
X106057067Y-75424773D01*
X105802805Y-75288868D01*
X105526916Y-75205178D01*
X105240000Y-75176919D01*
X104953085Y-75205178D01*
X104677196Y-75288868D01*
X104422934Y-75424773D01*
X104200072Y-75607671D01*
X104017173Y-75830533D01*
X103970000Y-75918788D01*
X103922827Y-75830533D01*
X103739929Y-75607671D01*
X103517067Y-75424773D01*
X103262805Y-75288868D01*
X102986916Y-75205178D01*
X102700000Y-75176919D01*
X102413085Y-75205178D01*
X102137196Y-75288868D01*
X101882934Y-75424773D01*
X101660072Y-75607671D01*
X101477173Y-75830533D01*
X101430000Y-75918788D01*
X101382827Y-75830533D01*
X101199929Y-75607671D01*
X100977067Y-75424773D01*
X100722805Y-75288868D01*
X100446916Y-75205178D01*
X100160000Y-75176919D01*
X99873085Y-75205178D01*
X99597196Y-75288868D01*
X99342934Y-75424773D01*
X99120072Y-75607671D01*
X98937173Y-75830533D01*
X98890000Y-75918788D01*
X98842827Y-75830533D01*
X98659929Y-75607671D01*
X98437067Y-75424773D01*
X98182805Y-75288868D01*
X97906916Y-75205178D01*
X97620000Y-75176919D01*
X97333085Y-75205178D01*
X97057196Y-75288868D01*
X96802934Y-75424773D01*
X96580072Y-75607671D01*
X96397173Y-75830533D01*
X96350000Y-75918788D01*
X96302827Y-75830533D01*
X96119929Y-75607671D01*
X95897067Y-75424773D01*
X95642805Y-75288868D01*
X95366916Y-75205178D01*
X95080000Y-75176919D01*
X94793085Y-75205178D01*
X94517196Y-75288868D01*
X94262934Y-75424773D01*
X94040072Y-75607671D01*
X93857173Y-75830533D01*
X93810000Y-75918788D01*
X93762827Y-75830533D01*
X93579929Y-75607671D01*
X93357067Y-75424773D01*
X93102805Y-75288868D01*
X92826916Y-75205178D01*
X92540000Y-75176919D01*
X92253085Y-75205178D01*
X91977196Y-75288868D01*
X91722934Y-75424773D01*
X91500072Y-75607671D01*
X91317173Y-75830533D01*
X91270000Y-75918788D01*
X91222827Y-75830533D01*
X91039929Y-75607671D01*
X90817067Y-75424773D01*
X90562805Y-75288868D01*
X90286916Y-75205178D01*
X90000000Y-75176919D01*
X89713085Y-75205178D01*
X89437196Y-75288868D01*
X89182934Y-75424773D01*
X88960072Y-75607671D01*
X88777173Y-75830533D01*
X88730000Y-75918788D01*
X88682827Y-75830533D01*
X88499929Y-75607671D01*
X88277067Y-75424773D01*
X88022805Y-75288868D01*
X87746916Y-75205178D01*
X87460000Y-75176919D01*
X87173085Y-75205178D01*
X86897196Y-75288868D01*
X86642934Y-75424773D01*
X86420072Y-75607671D01*
X86237173Y-75830533D01*
X86101268Y-76084795D01*
X86058158Y-76226911D01*
X86057941Y-76226086D01*
X85953842Y-76012184D01*
X85810014Y-75822701D01*
X85631983Y-75664918D01*
X85426591Y-75544899D01*
X85260418Y-75482723D01*
X85074000Y-75532080D01*
X85074000Y-76646000D01*
X85094000Y-76646000D01*
X85094000Y-76954000D01*
X85074000Y-76954000D01*
X85074000Y-78067920D01*
X85260418Y-78117277D01*
X85426591Y-78055101D01*
X85631983Y-77935082D01*
X85810014Y-77777299D01*
X85953842Y-77587816D01*
X86057941Y-77373914D01*
X86058158Y-77373089D01*
X86101268Y-77515204D01*
X86237173Y-77769466D01*
X86420071Y-77992328D01*
X86642933Y-78175227D01*
X86897195Y-78311132D01*
X87173084Y-78394822D01*
X87460000Y-78423081D01*
X87746915Y-78394822D01*
X88022804Y-78311132D01*
X88277066Y-78175227D01*
X88499928Y-77992329D01*
X88682827Y-77769467D01*
X88730000Y-77681211D01*
X88777173Y-77769466D01*
X88960071Y-77992328D01*
X89182933Y-78175227D01*
X89437195Y-78311132D01*
X89713084Y-78394822D01*
X90000000Y-78423081D01*
X90286915Y-78394822D01*
X90562804Y-78311132D01*
X90817066Y-78175227D01*
X91039928Y-77992329D01*
X91222827Y-77769467D01*
X91270000Y-77681211D01*
X91317173Y-77769466D01*
X91500071Y-77992328D01*
X91690000Y-78148200D01*
X91690001Y-84998249D01*
X91685889Y-85040000D01*
X91702300Y-85206629D01*
X91750903Y-85366854D01*
X91750904Y-85366855D01*
X91829833Y-85514519D01*
X91936053Y-85643948D01*
X91968481Y-85670561D01*
X92869438Y-86571519D01*
X92896052Y-86603948D01*
X93013091Y-86700000D01*
X79354033Y-86700000D01*
X79299999Y-86694678D01*
X79245965Y-86700000D01*
X79245964Y-86700000D01*
X79084362Y-86715916D01*
X78877012Y-86778816D01*
X78788057Y-86826363D01*
X78685915Y-86880958D01*
X78606176Y-86946399D01*
X78518419Y-87018419D01*
X78483973Y-87060392D01*
X76560399Y-88983967D01*
X76518419Y-89018419D01*
X76380958Y-89185916D01*
X76278816Y-89377013D01*
X76215916Y-89584363D01*
X76200000Y-89745964D01*
X76194678Y-89800000D01*
X76200000Y-89854034D01*
X76200000Y-90470025D01*
X76101445Y-90522704D01*
X76010083Y-90597683D01*
X75935104Y-90689045D01*
X75879390Y-90793279D01*
X75845082Y-90906379D01*
X75833497Y-91024000D01*
X60325000Y-91024000D01*
X60325000Y-75784000D01*
X75833497Y-75784000D01*
X75833497Y-77816000D01*
X75845082Y-77933621D01*
X75879390Y-78046721D01*
X75935104Y-78150955D01*
X76010083Y-78242317D01*
X76101445Y-78317296D01*
X76205679Y-78373010D01*
X76318779Y-78407318D01*
X76436400Y-78418903D01*
X78163600Y-78418903D01*
X78281221Y-78407318D01*
X78394321Y-78373010D01*
X78498555Y-78317296D01*
X78589917Y-78242317D01*
X78664896Y-78150955D01*
X78720610Y-78046721D01*
X78754101Y-77936314D01*
X78800071Y-77992328D01*
X79022933Y-78175227D01*
X79277195Y-78311132D01*
X79553084Y-78394822D01*
X79840000Y-78423081D01*
X80126915Y-78394822D01*
X80402804Y-78311132D01*
X80657066Y-78175227D01*
X80879928Y-77992329D01*
X81062827Y-77769467D01*
X81110000Y-77681211D01*
X81157173Y-77769466D01*
X81340071Y-77992328D01*
X81562933Y-78175227D01*
X81817195Y-78311132D01*
X82093084Y-78394822D01*
X82380000Y-78423081D01*
X82666915Y-78394822D01*
X82942804Y-78311132D01*
X83197066Y-78175227D01*
X83419928Y-77992329D01*
X83602827Y-77769467D01*
X83738732Y-77515205D01*
X83781842Y-77373089D01*
X83782059Y-77373914D01*
X83886158Y-77587816D01*
X84029986Y-77777299D01*
X84208017Y-77935082D01*
X84413409Y-78055101D01*
X84579582Y-78117277D01*
X84766000Y-78067920D01*
X84766000Y-76954000D01*
X84746000Y-76954000D01*
X84746000Y-76646000D01*
X84766000Y-76646000D01*
X84766000Y-75532080D01*
X84579582Y-75482723D01*
X84413409Y-75544899D01*
X84208017Y-75664918D01*
X84029986Y-75822701D01*
X83886158Y-76012184D01*
X83782059Y-76226086D01*
X83781842Y-76226911D01*
X83738732Y-76084796D01*
X83602827Y-75830533D01*
X83419929Y-75607671D01*
X83197067Y-75424773D01*
X82942805Y-75288868D01*
X82666916Y-75205178D01*
X82380000Y-75176919D01*
X82093085Y-75205178D01*
X81817196Y-75288868D01*
X81562934Y-75424773D01*
X81340072Y-75607671D01*
X81157173Y-75830533D01*
X81110000Y-75918788D01*
X81062827Y-75830533D01*
X80879929Y-75607671D01*
X80657067Y-75424773D01*
X80402805Y-75288868D01*
X80126916Y-75205178D01*
X79840000Y-75176919D01*
X79553085Y-75205178D01*
X79277196Y-75288868D01*
X79022934Y-75424773D01*
X78800072Y-75607671D01*
X78754101Y-75663686D01*
X78720610Y-75553279D01*
X78664896Y-75449045D01*
X78589917Y-75357683D01*
X78498555Y-75282704D01*
X78394321Y-75226990D01*
X78281221Y-75192682D01*
X78163600Y-75181097D01*
X76436400Y-75181097D01*
X76318779Y-75192682D01*
X76205679Y-75226990D01*
X76101445Y-75282704D01*
X76010083Y-75357683D01*
X75935104Y-75449045D01*
X75879390Y-75553279D01*
X75845082Y-75666379D01*
X75833497Y-75784000D01*
X60325000Y-75784000D01*
X60325000Y-69650000D01*
X84098306Y-69650000D01*
X84105064Y-69718612D01*
X84125077Y-69784587D01*
X84157577Y-69845391D01*
X84201315Y-69898685D01*
X84254609Y-69942423D01*
X84315413Y-69974923D01*
X84381388Y-69994936D01*
X84450000Y-70001694D01*
X85058500Y-70000000D01*
X85146000Y-69912500D01*
X85146000Y-68954000D01*
X84187500Y-68954000D01*
X84100000Y-69041500D01*
X84098306Y-69650000D01*
X60325000Y-69650000D01*
X60325000Y-67950000D01*
X84098306Y-67950000D01*
X84100000Y-68558500D01*
X84187500Y-68646000D01*
X85146000Y-68646000D01*
X85146000Y-67687500D01*
X85058500Y-67600000D01*
X84450000Y-67598306D01*
X84381388Y-67605064D01*
X84315413Y-67625077D01*
X84254609Y-67657577D01*
X84201315Y-67701315D01*
X84157577Y-67754609D01*
X84125077Y-67815413D01*
X84105064Y-67881388D01*
X84098306Y-67950000D01*
X60325000Y-67950000D01*
X60325000Y-65752263D01*
X81899998Y-65752263D01*
X81899998Y-66047737D01*
X81957642Y-66337534D01*
X82070715Y-66610517D01*
X82234872Y-66856194D01*
X82443804Y-67065126D01*
X82689481Y-67229283D01*
X82962464Y-67342356D01*
X83252261Y-67400000D01*
X83547735Y-67400000D01*
X83837532Y-67342356D01*
X84110515Y-67229283D01*
X84356192Y-67065126D01*
X84565124Y-66856194D01*
X84636081Y-66750000D01*
X89044032Y-66750000D01*
X89085773Y-66754111D01*
X89127514Y-66750000D01*
X89127522Y-66750000D01*
X89252402Y-66737700D01*
X89412628Y-66689097D01*
X89560292Y-66610168D01*
X89689721Y-66503948D01*
X89716339Y-66471514D01*
X96476998Y-59710856D01*
X96602263Y-59735773D01*
X96897737Y-59735773D01*
X97187534Y-59678129D01*
X97242599Y-59655320D01*
X89428486Y-67469434D01*
X89396052Y-67496052D01*
X89289832Y-67625482D01*
X89249298Y-67701315D01*
X89210903Y-67773146D01*
X89179801Y-67875679D01*
X89162300Y-67933372D01*
X89150000Y-68058252D01*
X89150000Y-68058259D01*
X89145889Y-68100000D01*
X89150000Y-68141741D01*
X89150000Y-68173588D01*
X89124973Y-68113167D01*
X88966289Y-67875679D01*
X88764321Y-67673711D01*
X88526833Y-67515027D01*
X88262949Y-67405723D01*
X87982813Y-67350000D01*
X87697187Y-67350000D01*
X87417051Y-67405723D01*
X87153167Y-67515027D01*
X86915679Y-67673711D01*
X86713711Y-67875679D01*
X86555027Y-68113167D01*
X86500876Y-68243900D01*
X86501694Y-67950000D01*
X86494936Y-67881388D01*
X86474923Y-67815413D01*
X86442423Y-67754609D01*
X86398685Y-67701315D01*
X86345391Y-67657577D01*
X86284587Y-67625077D01*
X86218612Y-67605064D01*
X86150000Y-67598306D01*
X85541500Y-67600000D01*
X85454000Y-67687500D01*
X85454000Y-68646000D01*
X85474000Y-68646000D01*
X85474000Y-68954000D01*
X85454000Y-68954000D01*
X85454000Y-69912500D01*
X85541500Y-70000000D01*
X86150000Y-70001694D01*
X86218612Y-69994936D01*
X86284587Y-69974923D01*
X86345391Y-69942423D01*
X86398685Y-69898685D01*
X86442423Y-69845391D01*
X86474923Y-69784587D01*
X86494936Y-69718612D01*
X86501694Y-69650000D01*
X86500876Y-69356100D01*
X86555027Y-69486833D01*
X86713711Y-69724321D01*
X86915679Y-69926289D01*
X87153167Y-70084973D01*
X87417051Y-70194277D01*
X87697187Y-70250000D01*
X87982813Y-70250000D01*
X88262949Y-70194277D01*
X88526833Y-70084973D01*
X88764321Y-69926289D01*
X88966289Y-69724321D01*
X89124973Y-69486833D01*
X89150000Y-69426412D01*
X89150001Y-72285450D01*
X89150000Y-72285460D01*
X89150000Y-72363917D01*
X89043806Y-72434874D01*
X88834874Y-72643806D01*
X88670717Y-72889483D01*
X88557644Y-73162466D01*
X88500000Y-73452263D01*
X88500000Y-73747737D01*
X88557644Y-74037534D01*
X88670717Y-74310517D01*
X88834874Y-74556194D01*
X89043806Y-74765126D01*
X89289483Y-74929283D01*
X89562466Y-75042356D01*
X89852263Y-75100000D01*
X90147737Y-75100000D01*
X90437534Y-75042356D01*
X90710517Y-74929283D01*
X90956194Y-74765126D01*
X91165126Y-74556194D01*
X91329283Y-74310517D01*
X91442356Y-74037534D01*
X91500000Y-73747737D01*
X91500000Y-73452263D01*
X91442356Y-73162466D01*
X91329283Y-72889483D01*
X91165126Y-72643806D01*
X90956194Y-72434874D01*
X90850000Y-72363917D01*
X90850000Y-69316000D01*
X93232306Y-69316000D01*
X93239064Y-69384612D01*
X93259077Y-69450587D01*
X93291577Y-69511391D01*
X93335315Y-69564685D01*
X93388609Y-69608423D01*
X93449413Y-69640923D01*
X93515388Y-69660936D01*
X93584000Y-69667694D01*
X94358500Y-69666000D01*
X94446000Y-69578500D01*
X94446000Y-68454000D01*
X93321500Y-68454000D01*
X93234000Y-68541500D01*
X93232306Y-69316000D01*
X90850000Y-69316000D01*
X90850000Y-68452080D01*
X92018080Y-67284000D01*
X93232306Y-67284000D01*
X93234000Y-68058500D01*
X93321500Y-68146000D01*
X94446000Y-68146000D01*
X94446000Y-67021500D01*
X94754000Y-67021500D01*
X94754000Y-68146000D01*
X94774000Y-68146000D01*
X94774000Y-68454000D01*
X94754000Y-68454000D01*
X94754000Y-69578500D01*
X94841500Y-69666000D01*
X95616000Y-69667694D01*
X95684612Y-69660936D01*
X95750587Y-69640923D01*
X95811391Y-69608423D01*
X95864685Y-69564685D01*
X95908423Y-69511391D01*
X95940923Y-69450587D01*
X95955887Y-69401256D01*
X96109860Y-69555229D01*
X96374537Y-69732081D01*
X96668630Y-69853898D01*
X96980838Y-69916000D01*
X97299162Y-69916000D01*
X97611370Y-69853898D01*
X97905463Y-69732081D01*
X98170140Y-69555229D01*
X98395229Y-69330140D01*
X98572081Y-69065463D01*
X98693898Y-68771370D01*
X98756000Y-68459162D01*
X98756000Y-68140838D01*
X98693898Y-67828630D01*
X98572081Y-67534537D01*
X98395229Y-67269860D01*
X98170140Y-67044771D01*
X97905463Y-66867919D01*
X97611370Y-66746102D01*
X97299162Y-66684000D01*
X96980838Y-66684000D01*
X96668630Y-66746102D01*
X96374537Y-66867919D01*
X96109860Y-67044771D01*
X95955887Y-67198744D01*
X95940923Y-67149413D01*
X95908423Y-67088609D01*
X95864685Y-67035315D01*
X95811391Y-66991577D01*
X95750587Y-66959077D01*
X95684612Y-66939064D01*
X95616000Y-66932306D01*
X94841500Y-66934000D01*
X94754000Y-67021500D01*
X94446000Y-67021500D01*
X94358500Y-66934000D01*
X93584000Y-66932306D01*
X93515388Y-66939064D01*
X93449413Y-66959077D01*
X93388609Y-66991577D01*
X93335315Y-67035315D01*
X93291577Y-67088609D01*
X93259077Y-67149413D01*
X93239064Y-67215388D01*
X93232306Y-67284000D01*
X92018080Y-67284000D01*
X108452080Y-50850000D01*
X139347097Y-50850000D01*
X139347097Y-52550000D01*
X139358682Y-52667621D01*
X139392990Y-52780721D01*
X139448704Y-52884955D01*
X139523683Y-52976317D01*
X139615045Y-53051296D01*
X139719279Y-53107010D01*
X139832379Y-53141318D01*
X139950000Y-53152903D01*
X141650000Y-53152903D01*
X141767621Y-53141318D01*
X141880721Y-53107010D01*
X141984955Y-53051296D01*
X142076317Y-52976317D01*
X142151296Y-52884955D01*
X142207010Y-52780721D01*
X142241318Y-52667621D01*
X142252903Y-52550000D01*
X142252903Y-50850000D01*
X142241318Y-50732379D01*
X142207010Y-50619279D01*
X142195202Y-50597187D01*
X143450000Y-50597187D01*
X143450000Y-50882813D01*
X143505723Y-51162949D01*
X143615027Y-51426833D01*
X143773711Y-51664321D01*
X143975679Y-51866289D01*
X144213167Y-52024973D01*
X144477051Y-52134277D01*
X144757187Y-52190000D01*
X145042813Y-52190000D01*
X145322949Y-52134277D01*
X145586833Y-52024973D01*
X145824321Y-51866289D01*
X146026289Y-51664321D01*
X146184973Y-51426833D01*
X146294277Y-51162949D01*
X146350000Y-50882813D01*
X146350000Y-50597187D01*
X146294277Y-50317051D01*
X146184973Y-50053167D01*
X146026289Y-49815679D01*
X145824321Y-49613711D01*
X145586833Y-49455027D01*
X145456100Y-49400876D01*
X145750000Y-49401694D01*
X145818612Y-49394936D01*
X145884587Y-49374923D01*
X145945391Y-49342423D01*
X145998685Y-49298685D01*
X146042423Y-49245391D01*
X146074923Y-49184587D01*
X146094936Y-49118612D01*
X146101694Y-49050000D01*
X146100000Y-48441500D01*
X146012500Y-48354000D01*
X145054000Y-48354000D01*
X145054000Y-48374000D01*
X144746000Y-48374000D01*
X144746000Y-48354000D01*
X143787500Y-48354000D01*
X143700000Y-48441500D01*
X143698306Y-49050000D01*
X143705064Y-49118612D01*
X143725077Y-49184587D01*
X143757577Y-49245391D01*
X143801315Y-49298685D01*
X143854609Y-49342423D01*
X143915413Y-49374923D01*
X143981388Y-49394936D01*
X144050000Y-49401694D01*
X144343900Y-49400876D01*
X144213167Y-49455027D01*
X143975679Y-49613711D01*
X143773711Y-49815679D01*
X143615027Y-50053167D01*
X143505723Y-50317051D01*
X143450000Y-50597187D01*
X142195202Y-50597187D01*
X142151296Y-50515045D01*
X142076317Y-50423683D01*
X141984955Y-50348704D01*
X141880721Y-50292990D01*
X141767621Y-50258682D01*
X141753335Y-50257275D01*
X141926289Y-50084321D01*
X142084973Y-49846833D01*
X142194277Y-49582949D01*
X142250000Y-49302813D01*
X142250000Y-49017187D01*
X142194277Y-48737051D01*
X142084973Y-48473167D01*
X141926289Y-48235679D01*
X141724321Y-48033711D01*
X141486833Y-47875027D01*
X141222949Y-47765723D01*
X140942813Y-47710000D01*
X140657187Y-47710000D01*
X140377051Y-47765723D01*
X140113167Y-47875027D01*
X139875679Y-48033711D01*
X139673711Y-48235679D01*
X139515027Y-48473167D01*
X139405723Y-48737051D01*
X139350000Y-49017187D01*
X139350000Y-49302813D01*
X139405723Y-49582949D01*
X139515027Y-49846833D01*
X139673711Y-50084321D01*
X139846665Y-50257275D01*
X139832379Y-50258682D01*
X139719279Y-50292990D01*
X139615045Y-50348704D01*
X139523683Y-50423683D01*
X139448704Y-50515045D01*
X139392990Y-50619279D01*
X139358682Y-50732379D01*
X139347097Y-50850000D01*
X108452080Y-50850000D01*
X110271520Y-49030561D01*
X110303948Y-49003948D01*
X110410168Y-48874519D01*
X110489097Y-48726855D01*
X110537700Y-48566630D01*
X110542191Y-48521029D01*
X110550000Y-48441749D01*
X110550000Y-48441742D01*
X110554111Y-48400001D01*
X110550000Y-48358260D01*
X110550000Y-47350000D01*
X143698306Y-47350000D01*
X143700000Y-47958500D01*
X143787500Y-48046000D01*
X144746000Y-48046000D01*
X144746000Y-47087500D01*
X145054000Y-47087500D01*
X145054000Y-48046000D01*
X146012500Y-48046000D01*
X146100000Y-47958500D01*
X146101694Y-47350000D01*
X146094936Y-47281388D01*
X146074923Y-47215413D01*
X146042423Y-47154609D01*
X145998685Y-47101315D01*
X145945391Y-47057577D01*
X145884587Y-47025077D01*
X145818612Y-47005064D01*
X145750000Y-46998306D01*
X145141500Y-47000000D01*
X145054000Y-47087500D01*
X144746000Y-47087500D01*
X144658500Y-47000000D01*
X144050000Y-46998306D01*
X143981388Y-47005064D01*
X143915413Y-47025077D01*
X143854609Y-47057577D01*
X143801315Y-47101315D01*
X143757577Y-47154609D01*
X143725077Y-47215413D01*
X143705064Y-47281388D01*
X143698306Y-47350000D01*
X110550000Y-47350000D01*
X110550000Y-45452263D01*
X113500000Y-45452263D01*
X113500000Y-45747737D01*
X113557644Y-46037534D01*
X113670717Y-46310517D01*
X113834874Y-46556194D01*
X114043806Y-46765126D01*
X114289483Y-46929283D01*
X114562466Y-47042356D01*
X114852263Y-47100000D01*
X115147737Y-47100000D01*
X115437534Y-47042356D01*
X115710517Y-46929283D01*
X115956194Y-46765126D01*
X116165126Y-46556194D01*
X116236083Y-46450000D01*
X126100340Y-46450000D01*
X126142081Y-46454111D01*
X126183822Y-46450000D01*
X126183830Y-46450000D01*
X126308710Y-46437700D01*
X126468936Y-46389097D01*
X126616600Y-46310168D01*
X126746029Y-46203948D01*
X126772647Y-46171514D01*
X128111521Y-44832641D01*
X128143948Y-44806029D01*
X128250168Y-44676600D01*
X128329097Y-44528936D01*
X128346021Y-44473145D01*
X128377700Y-44368711D01*
X128381958Y-44325481D01*
X128390000Y-44243830D01*
X128390000Y-44243823D01*
X128394111Y-44202082D01*
X128391442Y-44174985D01*
X128464321Y-44126289D01*
X128666289Y-43924321D01*
X128810000Y-43709242D01*
X128953711Y-43924321D01*
X129155679Y-44126289D01*
X129393167Y-44284973D01*
X129657051Y-44394277D01*
X129937187Y-44450000D01*
X130222813Y-44450000D01*
X130502949Y-44394277D01*
X130766833Y-44284973D01*
X130958078Y-44157187D01*
X140910000Y-44157187D01*
X140910000Y-44442813D01*
X140965723Y-44722949D01*
X141075027Y-44986833D01*
X141233711Y-45224321D01*
X141435679Y-45426289D01*
X141673167Y-45584973D01*
X141937051Y-45694277D01*
X142217187Y-45750000D01*
X142502813Y-45750000D01*
X142782949Y-45694277D01*
X143046833Y-45584973D01*
X143284321Y-45426289D01*
X143457275Y-45253335D01*
X143458682Y-45267621D01*
X143492990Y-45380721D01*
X143548704Y-45484955D01*
X143623683Y-45576317D01*
X143715045Y-45651296D01*
X143819279Y-45707010D01*
X143932379Y-45741318D01*
X144050000Y-45752903D01*
X145750000Y-45752903D01*
X145867621Y-45741318D01*
X145980721Y-45707010D01*
X146084955Y-45651296D01*
X146176317Y-45576317D01*
X146251296Y-45484955D01*
X146307010Y-45380721D01*
X146341318Y-45267621D01*
X146352903Y-45150000D01*
X146352903Y-43450000D01*
X146341318Y-43332379D01*
X146307010Y-43219279D01*
X146251296Y-43115045D01*
X146176317Y-43023683D01*
X146084955Y-42948704D01*
X145980721Y-42892990D01*
X145867621Y-42858682D01*
X145750000Y-42847097D01*
X144050000Y-42847097D01*
X143932379Y-42858682D01*
X143819279Y-42892990D01*
X143715045Y-42948704D01*
X143623683Y-43023683D01*
X143548704Y-43115045D01*
X143492990Y-43219279D01*
X143458682Y-43332379D01*
X143457275Y-43346665D01*
X143284321Y-43173711D01*
X143046833Y-43015027D01*
X142782949Y-42905723D01*
X142502813Y-42850000D01*
X142217187Y-42850000D01*
X141937051Y-42905723D01*
X141673167Y-43015027D01*
X141435679Y-43173711D01*
X141233711Y-43375679D01*
X141075027Y-43613167D01*
X140965723Y-43877051D01*
X140910000Y-44157187D01*
X130958078Y-44157187D01*
X131004321Y-44126289D01*
X131206289Y-43924321D01*
X131364973Y-43686833D01*
X131474277Y-43422949D01*
X131530000Y-43142813D01*
X131530000Y-42857187D01*
X131474277Y-42577051D01*
X131364973Y-42313167D01*
X131206289Y-42075679D01*
X131004321Y-41873711D01*
X130766833Y-41715027D01*
X130502949Y-41605723D01*
X130222813Y-41550000D01*
X129937187Y-41550000D01*
X129657051Y-41605723D01*
X129393167Y-41715027D01*
X129155679Y-41873711D01*
X128953711Y-42075679D01*
X128810000Y-42290758D01*
X128666289Y-42075679D01*
X128464321Y-41873711D01*
X128226833Y-41715027D01*
X127962949Y-41605723D01*
X127682813Y-41550000D01*
X127397187Y-41550000D01*
X127117051Y-41605723D01*
X126853167Y-41715027D01*
X126615679Y-41873711D01*
X126413711Y-42075679D01*
X126255027Y-42313167D01*
X126200876Y-42443900D01*
X126201694Y-42150000D01*
X126194936Y-42081388D01*
X126174923Y-42015413D01*
X126142423Y-41954609D01*
X126098685Y-41901315D01*
X126045391Y-41857577D01*
X125984587Y-41825077D01*
X125918612Y-41805064D01*
X125850000Y-41798306D01*
X125241500Y-41800000D01*
X125154000Y-41887500D01*
X125154000Y-42846000D01*
X125174000Y-42846000D01*
X125174000Y-43154000D01*
X125154000Y-43154000D01*
X125154000Y-44112500D01*
X125241500Y-44200000D01*
X125850000Y-44201694D01*
X125918612Y-44194936D01*
X125984587Y-44174923D01*
X126045391Y-44142423D01*
X126098685Y-44098685D01*
X126142423Y-44045391D01*
X126174923Y-43984587D01*
X126194936Y-43918612D01*
X126201694Y-43850000D01*
X126200876Y-43556100D01*
X126255027Y-43686833D01*
X126413711Y-43924321D01*
X126514695Y-44025305D01*
X125790001Y-44750000D01*
X116236083Y-44750000D01*
X116165126Y-44643806D01*
X115956194Y-44434874D01*
X115710517Y-44270717D01*
X115437534Y-44157644D01*
X115147737Y-44100000D01*
X114852263Y-44100000D01*
X114562466Y-44157644D01*
X114289483Y-44270717D01*
X114043806Y-44434874D01*
X113834874Y-44643806D01*
X113670717Y-44889483D01*
X113557644Y-45162466D01*
X113500000Y-45452263D01*
X110550000Y-45452263D01*
X110550000Y-43850000D01*
X123798306Y-43850000D01*
X123805064Y-43918612D01*
X123825077Y-43984587D01*
X123857577Y-44045391D01*
X123901315Y-44098685D01*
X123954609Y-44142423D01*
X124015413Y-44174923D01*
X124081388Y-44194936D01*
X124150000Y-44201694D01*
X124758500Y-44200000D01*
X124846000Y-44112500D01*
X124846000Y-43154000D01*
X123887500Y-43154000D01*
X123800000Y-43241500D01*
X123798306Y-43850000D01*
X110550000Y-43850000D01*
X110550000Y-43436083D01*
X110656194Y-43365126D01*
X110865126Y-43156194D01*
X111029283Y-42910517D01*
X111142356Y-42637534D01*
X111200000Y-42347737D01*
X111200000Y-42150000D01*
X123798306Y-42150000D01*
X123800000Y-42758500D01*
X123887500Y-42846000D01*
X124846000Y-42846000D01*
X124846000Y-41887500D01*
X124758500Y-41800000D01*
X124150000Y-41798306D01*
X124081388Y-41805064D01*
X124015413Y-41825077D01*
X123954609Y-41857577D01*
X123901315Y-41901315D01*
X123857577Y-41954609D01*
X123825077Y-42015413D01*
X123805064Y-42081388D01*
X123798306Y-42150000D01*
X111200000Y-42150000D01*
X111200000Y-42052263D01*
X111142356Y-41762466D01*
X111029283Y-41489483D01*
X110865126Y-41243806D01*
X110656194Y-41034874D01*
X110410517Y-40870717D01*
X110137534Y-40757644D01*
X109847737Y-40700000D01*
X109552263Y-40700000D01*
X109262466Y-40757644D01*
X108989483Y-40870717D01*
X108743806Y-41034874D01*
X108534874Y-41243806D01*
X108370717Y-41489483D01*
X108257644Y-41762466D01*
X108200000Y-42052263D01*
X108200000Y-42347737D01*
X108257644Y-42637534D01*
X108370717Y-42910517D01*
X108534874Y-43156194D01*
X108743806Y-43365126D01*
X108850000Y-43436083D01*
X108850001Y-48047918D01*
X98169547Y-58728372D01*
X98192356Y-58673307D01*
X98250000Y-58383510D01*
X98250000Y-58088036D01*
X98192356Y-57798239D01*
X98079283Y-57525256D01*
X97915126Y-57279579D01*
X97706194Y-57070647D01*
X97600000Y-56999690D01*
X97600000Y-56352080D01*
X99726997Y-54225083D01*
X99852263Y-54250000D01*
X100147737Y-54250000D01*
X100437534Y-54192356D01*
X100710517Y-54079283D01*
X100956194Y-53915126D01*
X101165126Y-53706194D01*
X101329283Y-53460517D01*
X101442356Y-53187534D01*
X101500000Y-52897737D01*
X101500000Y-52602263D01*
X101442356Y-52312466D01*
X101329283Y-52039483D01*
X101165126Y-51793806D01*
X100956194Y-51584874D01*
X100710517Y-51420717D01*
X100437534Y-51307644D01*
X100147737Y-51250000D01*
X99852263Y-51250000D01*
X99562466Y-51307644D01*
X99289483Y-51420717D01*
X99043806Y-51584874D01*
X98834874Y-51793806D01*
X98670717Y-52039483D01*
X98557644Y-52312466D01*
X98500000Y-52602263D01*
X98500000Y-52897737D01*
X98524917Y-53023003D01*
X96178481Y-55369439D01*
X96146053Y-55396052D01*
X96039833Y-55525481D01*
X96024428Y-55554302D01*
X95960903Y-55673146D01*
X95912300Y-55833371D01*
X95895889Y-56000000D01*
X95900001Y-56041751D01*
X95900001Y-56999690D01*
X95793806Y-57070647D01*
X95584874Y-57279579D01*
X95420717Y-57525256D01*
X95307644Y-57798239D01*
X95250000Y-58088036D01*
X95250000Y-58383510D01*
X95274917Y-58508775D01*
X88733693Y-65050000D01*
X84636081Y-65050000D01*
X84565124Y-64943806D01*
X84356192Y-64734874D01*
X84110515Y-64570717D01*
X83837532Y-64457644D01*
X83547735Y-64400000D01*
X83252261Y-64400000D01*
X82962464Y-64457644D01*
X82689481Y-64570717D01*
X82443804Y-64734874D01*
X82234872Y-64943806D01*
X82070715Y-65189483D01*
X81957642Y-65462466D01*
X81899998Y-65752263D01*
X60325000Y-65752263D01*
X60325000Y-56793168D01*
X64100000Y-56793168D01*
X64100000Y-57206832D01*
X64180702Y-57612547D01*
X64339004Y-57994723D01*
X64568823Y-58338672D01*
X64861328Y-58631177D01*
X65205277Y-58860996D01*
X65587453Y-59019298D01*
X65993168Y-59100000D01*
X66406832Y-59100000D01*
X66812547Y-59019298D01*
X67194723Y-58860996D01*
X67538672Y-58631177D01*
X67831177Y-58338672D01*
X68060996Y-57994723D01*
X68150000Y-57779847D01*
X68150001Y-61963917D01*
X68043806Y-62034874D01*
X67834874Y-62243806D01*
X67670717Y-62489483D01*
X67557644Y-62762466D01*
X67500000Y-63052263D01*
X67500000Y-63347737D01*
X67557644Y-63637534D01*
X67670717Y-63910517D01*
X67834874Y-64156194D01*
X68043806Y-64365126D01*
X68289483Y-64529283D01*
X68562466Y-64642356D01*
X68852263Y-64700000D01*
X69147737Y-64700000D01*
X69437534Y-64642356D01*
X69710517Y-64529283D01*
X69956194Y-64365126D01*
X70165126Y-64156194D01*
X70329283Y-63910517D01*
X70442356Y-63637534D01*
X70500000Y-63347737D01*
X70500000Y-63052263D01*
X70442356Y-62762466D01*
X70329283Y-62489483D01*
X70165126Y-62243806D01*
X69956194Y-62034874D01*
X69850000Y-61963917D01*
X69850000Y-56793168D01*
X73600000Y-56793168D01*
X73600000Y-57206832D01*
X73680702Y-57612547D01*
X73839004Y-57994723D01*
X74068823Y-58338672D01*
X74361328Y-58631177D01*
X74705277Y-58860996D01*
X75087453Y-59019298D01*
X75493168Y-59100000D01*
X75906832Y-59100000D01*
X76312547Y-59019298D01*
X76694723Y-58860996D01*
X77038672Y-58631177D01*
X77331177Y-58338672D01*
X77560996Y-57994723D01*
X77719298Y-57612547D01*
X77800000Y-57206832D01*
X77800000Y-56793168D01*
X77719298Y-56387453D01*
X77560996Y-56005277D01*
X77331177Y-55661328D01*
X77038672Y-55368823D01*
X76694723Y-55139004D01*
X76312547Y-54980702D01*
X75906832Y-54900000D01*
X75493168Y-54900000D01*
X75087453Y-54980702D01*
X74705277Y-55139004D01*
X74361328Y-55368823D01*
X74068823Y-55661328D01*
X73839004Y-56005277D01*
X73680702Y-56387453D01*
X73600000Y-56793168D01*
X69850000Y-56793168D01*
X69850000Y-56744082D01*
X76604793Y-49989290D01*
X76637221Y-49962677D01*
X76743441Y-49833248D01*
X76822370Y-49685584D01*
X76844172Y-49613711D01*
X76870973Y-49525359D01*
X76883153Y-49401694D01*
X76883273Y-49400478D01*
X76883273Y-49400471D01*
X76887384Y-49358730D01*
X76883273Y-49316989D01*
X76883273Y-48802810D01*
X76989467Y-48731853D01*
X77198399Y-48522921D01*
X77362556Y-48277244D01*
X77475629Y-48004261D01*
X77496625Y-47898706D01*
X82850000Y-53252081D01*
X82850001Y-58385450D01*
X82850000Y-58385460D01*
X82850000Y-58463917D01*
X82743806Y-58534874D01*
X82534874Y-58743806D01*
X82370717Y-58989483D01*
X82257644Y-59262466D01*
X82200000Y-59552263D01*
X82200000Y-59847737D01*
X82257644Y-60137534D01*
X82370717Y-60410517D01*
X82534874Y-60656194D01*
X82743806Y-60865126D01*
X82989483Y-61029283D01*
X83262466Y-61142356D01*
X83552263Y-61200000D01*
X83847737Y-61200000D01*
X84137534Y-61142356D01*
X84410517Y-61029283D01*
X84656194Y-60865126D01*
X84865126Y-60656194D01*
X85029283Y-60410517D01*
X85142356Y-60137534D01*
X85200000Y-59847737D01*
X85200000Y-59552263D01*
X85142356Y-59262466D01*
X85029283Y-58989483D01*
X84865126Y-58743806D01*
X84656194Y-58534874D01*
X84550000Y-58463917D01*
X84550000Y-52941741D01*
X84554111Y-52900000D01*
X84550000Y-52858259D01*
X84550000Y-52858251D01*
X84537700Y-52733371D01*
X84489097Y-52573145D01*
X84410168Y-52425481D01*
X84303948Y-52296052D01*
X84271521Y-52269440D01*
X77102081Y-45100000D01*
X85145889Y-45100000D01*
X85150001Y-45141751D01*
X85150000Y-48958259D01*
X85145889Y-49000000D01*
X85150000Y-49041741D01*
X85150000Y-49041748D01*
X85156739Y-49110168D01*
X85162300Y-49166629D01*
X85170027Y-49192101D01*
X85210903Y-49326854D01*
X85289832Y-49474518D01*
X85396052Y-49603948D01*
X85428486Y-49630566D01*
X86424917Y-50626997D01*
X86400000Y-50752263D01*
X86400000Y-51047737D01*
X86457644Y-51337534D01*
X86570717Y-51610517D01*
X86734874Y-51856194D01*
X86943806Y-52065126D01*
X87189483Y-52229283D01*
X87462466Y-52342356D01*
X87752263Y-52400000D01*
X88047737Y-52400000D01*
X88337534Y-52342356D01*
X88610517Y-52229283D01*
X88856194Y-52065126D01*
X89065126Y-51856194D01*
X89229283Y-51610517D01*
X89342356Y-51337534D01*
X89400000Y-51047737D01*
X89400000Y-50752263D01*
X89342356Y-50462466D01*
X89229283Y-50189483D01*
X89065126Y-49943806D01*
X88856194Y-49734874D01*
X88610517Y-49570717D01*
X88337534Y-49457644D01*
X88047737Y-49400000D01*
X87752263Y-49400000D01*
X87626997Y-49424917D01*
X86850000Y-48647920D01*
X86850000Y-47257187D01*
X86910000Y-47257187D01*
X86910000Y-47542813D01*
X86965723Y-47822949D01*
X87075027Y-48086833D01*
X87233711Y-48324321D01*
X87435679Y-48526289D01*
X87673167Y-48684973D01*
X87937051Y-48794277D01*
X88217187Y-48850000D01*
X88502813Y-48850000D01*
X88782949Y-48794277D01*
X89046833Y-48684973D01*
X89284321Y-48526289D01*
X89457275Y-48353335D01*
X89458682Y-48367621D01*
X89492990Y-48480721D01*
X89548704Y-48584955D01*
X89623683Y-48676317D01*
X89715045Y-48751296D01*
X89819279Y-48807010D01*
X89932379Y-48841318D01*
X90050000Y-48852903D01*
X91750000Y-48852903D01*
X91867621Y-48841318D01*
X91980721Y-48807010D01*
X92084955Y-48751296D01*
X92176317Y-48676317D01*
X92251296Y-48584955D01*
X92307010Y-48480721D01*
X92341318Y-48367621D01*
X92352903Y-48250000D01*
X92352903Y-46550000D01*
X92341318Y-46432379D01*
X92307010Y-46319279D01*
X92251296Y-46215045D01*
X92176317Y-46123683D01*
X92084955Y-46048704D01*
X91980721Y-45992990D01*
X91867621Y-45958682D01*
X91750000Y-45947097D01*
X90050000Y-45947097D01*
X89932379Y-45958682D01*
X89819279Y-45992990D01*
X89715045Y-46048704D01*
X89623683Y-46123683D01*
X89548704Y-46215045D01*
X89492990Y-46319279D01*
X89458682Y-46432379D01*
X89457275Y-46446665D01*
X89284321Y-46273711D01*
X89046833Y-46115027D01*
X88782949Y-46005723D01*
X88502813Y-45950000D01*
X88217187Y-45950000D01*
X87937051Y-46005723D01*
X87673167Y-46115027D01*
X87435679Y-46273711D01*
X87233711Y-46475679D01*
X87075027Y-46713167D01*
X86965723Y-46977051D01*
X86910000Y-47257187D01*
X86850000Y-47257187D01*
X86850000Y-45452080D01*
X88952081Y-43350000D01*
X97458259Y-43350000D01*
X97500000Y-43354111D01*
X97541741Y-43350000D01*
X97541749Y-43350000D01*
X97666629Y-43337700D01*
X97826855Y-43289097D01*
X97974519Y-43210168D01*
X98103948Y-43103948D01*
X98130566Y-43071514D01*
X101226998Y-39975083D01*
X101352263Y-40000000D01*
X101647737Y-40000000D01*
X101937534Y-39942356D01*
X102210517Y-39829283D01*
X102456194Y-39665126D01*
X102665126Y-39456194D01*
X102829283Y-39210517D01*
X102942356Y-38937534D01*
X103000000Y-38647737D01*
X103000000Y-38450001D01*
X124447920Y-38450001D01*
X125024916Y-39026998D01*
X124999999Y-39152263D01*
X124999999Y-39447737D01*
X125057643Y-39737534D01*
X125170716Y-40010517D01*
X125334873Y-40256194D01*
X125543805Y-40465126D01*
X125789482Y-40629283D01*
X126062465Y-40742356D01*
X126352262Y-40800000D01*
X126647736Y-40800000D01*
X126937533Y-40742356D01*
X127210516Y-40629283D01*
X127456193Y-40465126D01*
X127665125Y-40256194D01*
X127829282Y-40010517D01*
X127942355Y-39737534D01*
X127999999Y-39447737D01*
X127999999Y-39152263D01*
X127942355Y-38862466D01*
X127829282Y-38589483D01*
X127665125Y-38343806D01*
X127456193Y-38134874D01*
X127210516Y-37970717D01*
X126937533Y-37857644D01*
X126647736Y-37800000D01*
X126352262Y-37800000D01*
X126226997Y-37824917D01*
X125430566Y-37028487D01*
X125403948Y-36996053D01*
X125274519Y-36889833D01*
X125126855Y-36810904D01*
X124966629Y-36762301D01*
X124841749Y-36750001D01*
X124841741Y-36750001D01*
X124800000Y-36745890D01*
X124758259Y-36750001D01*
X102441740Y-36750001D01*
X102399999Y-36745890D01*
X102358258Y-36750001D01*
X102358250Y-36750001D01*
X102233370Y-36762301D01*
X102073144Y-36810904D01*
X101925480Y-36889833D01*
X101796051Y-36996053D01*
X101772453Y-37024807D01*
X101647737Y-37000000D01*
X101352263Y-37000000D01*
X101062466Y-37057644D01*
X100789483Y-37170717D01*
X100543806Y-37334874D01*
X100334874Y-37543806D01*
X100170717Y-37789483D01*
X100057644Y-38062466D01*
X100000000Y-38352263D01*
X100000000Y-38647737D01*
X100024917Y-38773002D01*
X97147920Y-41650000D01*
X88641740Y-41650000D01*
X88599999Y-41645889D01*
X88558258Y-41650000D01*
X88558251Y-41650000D01*
X88449013Y-41660759D01*
X88433370Y-41662300D01*
X88273145Y-41710903D01*
X88125481Y-41789832D01*
X87996052Y-41896052D01*
X87969439Y-41928480D01*
X85428481Y-44469439D01*
X85396053Y-44496052D01*
X85369440Y-44528480D01*
X85369439Y-44528481D01*
X85369066Y-44528936D01*
X85289833Y-44625481D01*
X85285616Y-44633371D01*
X85210903Y-44773146D01*
X85162300Y-44933371D01*
X85145889Y-45100000D01*
X77102081Y-45100000D01*
X76230566Y-44228486D01*
X76203948Y-44196052D01*
X76074519Y-44089832D01*
X75926855Y-44010903D01*
X75766629Y-43962300D01*
X75641749Y-43950000D01*
X75641741Y-43950000D01*
X75600000Y-43945889D01*
X75558259Y-43950000D01*
X72136083Y-43950000D01*
X72065126Y-43843806D01*
X71856194Y-43634874D01*
X71610517Y-43470717D01*
X71337534Y-43357644D01*
X71047737Y-43300000D01*
X70752263Y-43300000D01*
X70462466Y-43357644D01*
X70189483Y-43470717D01*
X69943806Y-43634874D01*
X69734874Y-43843806D01*
X69570717Y-44089483D01*
X69457644Y-44362466D01*
X69400000Y-44652263D01*
X69400000Y-44947737D01*
X69457644Y-45237534D01*
X69570717Y-45510517D01*
X69734874Y-45756194D01*
X69903680Y-45925000D01*
X69784874Y-46043806D01*
X69700000Y-46170828D01*
X69615126Y-46043806D01*
X69406194Y-45834874D01*
X69160517Y-45670717D01*
X68887534Y-45557644D01*
X68597737Y-45500000D01*
X68302263Y-45500000D01*
X68012466Y-45557644D01*
X67739483Y-45670717D01*
X67493806Y-45834874D01*
X67284874Y-46043806D01*
X67120717Y-46289483D01*
X67007644Y-46562466D01*
X66950000Y-46852263D01*
X66950000Y-47147737D01*
X67007644Y-47437534D01*
X67120717Y-47710517D01*
X67284874Y-47956194D01*
X67493806Y-48165126D01*
X67620828Y-48250000D01*
X67493806Y-48334874D01*
X67284874Y-48543806D01*
X67120717Y-48789483D01*
X67007644Y-49062466D01*
X66950000Y-49352263D01*
X66950000Y-49647737D01*
X67007644Y-49937534D01*
X67120717Y-50210517D01*
X67284874Y-50456194D01*
X67493806Y-50665126D01*
X67739483Y-50829283D01*
X68012466Y-50942356D01*
X68302263Y-51000000D01*
X68597737Y-51000000D01*
X68887534Y-50942356D01*
X69160517Y-50829283D01*
X69406194Y-50665126D01*
X69615126Y-50456194D01*
X69700000Y-50329172D01*
X69784874Y-50456194D01*
X69993806Y-50665126D01*
X70239483Y-50829283D01*
X70512466Y-50942356D01*
X70802263Y-51000000D01*
X71097737Y-51000000D01*
X71387534Y-50942356D01*
X71660517Y-50829283D01*
X71906194Y-50665126D01*
X72115126Y-50456194D01*
X72200000Y-50329172D01*
X72284874Y-50456194D01*
X72493806Y-50665126D01*
X72739483Y-50829283D01*
X73012466Y-50942356D01*
X73208560Y-50981361D01*
X68428486Y-55761436D01*
X68396052Y-55788054D01*
X68289832Y-55917484D01*
X68210903Y-56065148D01*
X68162300Y-56225374D01*
X68160353Y-56245146D01*
X68060996Y-56005277D01*
X67831177Y-55661328D01*
X67538672Y-55368823D01*
X67194723Y-55139004D01*
X66812547Y-54980702D01*
X66406832Y-54900000D01*
X65993168Y-54900000D01*
X65587453Y-54980702D01*
X65205277Y-55139004D01*
X64861328Y-55368823D01*
X64568823Y-55661328D01*
X64339004Y-56005277D01*
X64180702Y-56387453D01*
X64100000Y-56793168D01*
X60325000Y-56793168D01*
X60325000Y-40100000D01*
X70000000Y-40100000D01*
X70019509Y-40098079D01*
X70038268Y-40092388D01*
X70055557Y-40083147D01*
X70070711Y-40070711D01*
X70083147Y-40055557D01*
X70092388Y-40038268D01*
X70098079Y-40019509D01*
X70100000Y-40000000D01*
X70100000Y-34292620D01*
X129585168Y-34292620D01*
X129732061Y-34501561D01*
X130021400Y-34636153D01*
X130331438Y-34711712D01*
X130650260Y-34725334D01*
X130965612Y-34676495D01*
X131265377Y-34567071D01*
X131387939Y-34501561D01*
X131534832Y-34292620D01*
X130560000Y-33317789D01*
X129585168Y-34292620D01*
X70100000Y-34292620D01*
X70100000Y-33190260D01*
X128934666Y-33190260D01*
X128983505Y-33505612D01*
X129092929Y-33805377D01*
X129158439Y-33927939D01*
X129367380Y-34074832D01*
X130342211Y-33100000D01*
X130777789Y-33100000D01*
X131752620Y-34074832D01*
X131961561Y-33927939D01*
X132096153Y-33638600D01*
X132171712Y-33328562D01*
X132185334Y-33009740D01*
X132136495Y-32694388D01*
X132027071Y-32394623D01*
X131961561Y-32272061D01*
X131752620Y-32125168D01*
X130777789Y-33100000D01*
X130342211Y-33100000D01*
X129367380Y-32125168D01*
X129158439Y-32272061D01*
X129023847Y-32561400D01*
X128948288Y-32871438D01*
X128934666Y-33190260D01*
X70100000Y-33190260D01*
X70100000Y-31907380D01*
X129585168Y-31907380D01*
X130560000Y-32882211D01*
X131534832Y-31907380D01*
X131480432Y-31830000D01*
X133767097Y-31830000D01*
X133767097Y-34370000D01*
X133778682Y-34487621D01*
X133812990Y-34600721D01*
X133868704Y-34704955D01*
X133943683Y-34796317D01*
X134035045Y-34871296D01*
X134139279Y-34927010D01*
X134252379Y-34961318D01*
X134370000Y-34972903D01*
X136910000Y-34972903D01*
X137027621Y-34961318D01*
X137140721Y-34927010D01*
X137244955Y-34871296D01*
X137336317Y-34796317D01*
X137411296Y-34704955D01*
X137467010Y-34600721D01*
X137501318Y-34487621D01*
X137512903Y-34370000D01*
X137512903Y-31830000D01*
X137501318Y-31712379D01*
X137467010Y-31599279D01*
X137411296Y-31495045D01*
X137336317Y-31403683D01*
X137244955Y-31328704D01*
X137140721Y-31272990D01*
X137027621Y-31238682D01*
X136910000Y-31227097D01*
X134370000Y-31227097D01*
X134252379Y-31238682D01*
X134139279Y-31272990D01*
X134035045Y-31328704D01*
X133943683Y-31403683D01*
X133868704Y-31495045D01*
X133812990Y-31599279D01*
X133778682Y-31712379D01*
X133767097Y-31830000D01*
X131480432Y-31830000D01*
X131387939Y-31698439D01*
X131098600Y-31563847D01*
X130788562Y-31488288D01*
X130469740Y-31474666D01*
X130154388Y-31523505D01*
X129854623Y-31632929D01*
X129732061Y-31698439D01*
X129585168Y-31907380D01*
X70100000Y-31907380D01*
X70100000Y-30325000D01*
X139900000Y-30325000D01*
X139900000Y-40025051D01*
G04 #@! TA.AperFunction,Conductor*
D30*
G36*
X139900000Y-40025051D02*
G01*
X139901921Y-40044560D01*
X139907612Y-40063319D01*
X139916853Y-40080608D01*
X139929289Y-40095762D01*
X139944443Y-40108198D01*
X139961732Y-40117439D01*
X139980491Y-40123130D01*
X140000000Y-40125051D01*
X149675000Y-40125051D01*
X149675001Y-109900000D01*
X140000000Y-109900000D01*
X139980337Y-109901952D01*
X139961586Y-109907672D01*
X139944312Y-109916940D01*
X139929178Y-109929401D01*
X139916766Y-109944574D01*
X139907552Y-109961877D01*
X139901891Y-109980645D01*
X139900000Y-110000157D01*
X139915211Y-119675000D01*
X70100000Y-119675000D01*
X70100000Y-104193168D01*
X73150000Y-104193168D01*
X73150000Y-104606832D01*
X73230702Y-105012547D01*
X73389004Y-105394723D01*
X73618823Y-105738672D01*
X73911328Y-106031177D01*
X74255277Y-106260996D01*
X74637453Y-106419298D01*
X75043168Y-106500000D01*
X75456832Y-106500000D01*
X75862547Y-106419298D01*
X76244723Y-106260996D01*
X76588672Y-106031177D01*
X76881177Y-105738672D01*
X77110996Y-105394723D01*
X77269298Y-105012547D01*
X77350000Y-104606832D01*
X77350000Y-104193168D01*
X82650000Y-104193168D01*
X82650000Y-104606832D01*
X82730702Y-105012547D01*
X82889004Y-105394723D01*
X83118823Y-105738672D01*
X83411328Y-106031177D01*
X83755277Y-106260996D01*
X84137453Y-106419298D01*
X84543168Y-106500000D01*
X84956832Y-106500000D01*
X85362547Y-106419298D01*
X85744723Y-106260996D01*
X86088672Y-106031177D01*
X86381177Y-105738672D01*
X86610996Y-105394723D01*
X86769298Y-105012547D01*
X86850000Y-104606832D01*
X86850000Y-104293168D01*
X103150000Y-104293168D01*
X103150000Y-104706832D01*
X103230702Y-105112547D01*
X103389004Y-105494723D01*
X103618823Y-105838672D01*
X103911328Y-106131177D01*
X104255277Y-106360996D01*
X104637453Y-106519298D01*
X105043168Y-106600000D01*
X105456832Y-106600000D01*
X105862547Y-106519298D01*
X106244723Y-106360996D01*
X106588672Y-106131177D01*
X106881177Y-105838672D01*
X107110996Y-105494723D01*
X107269298Y-105112547D01*
X107350000Y-104706832D01*
X107350000Y-104293168D01*
X112650000Y-104293168D01*
X112650000Y-104706832D01*
X112730702Y-105112547D01*
X112889004Y-105494723D01*
X113118823Y-105838672D01*
X113411328Y-106131177D01*
X113755277Y-106360996D01*
X114137453Y-106519298D01*
X114543168Y-106600000D01*
X114956832Y-106600000D01*
X115362547Y-106519298D01*
X115744723Y-106360996D01*
X116088672Y-106131177D01*
X116381177Y-105838672D01*
X116610996Y-105494723D01*
X116769298Y-105112547D01*
X116850000Y-104706832D01*
X116850000Y-104293168D01*
X133150000Y-104293168D01*
X133150000Y-104706832D01*
X133230702Y-105112547D01*
X133389004Y-105494723D01*
X133618823Y-105838672D01*
X133911328Y-106131177D01*
X134255277Y-106360996D01*
X134637453Y-106519298D01*
X135043168Y-106600000D01*
X135456832Y-106600000D01*
X135862547Y-106519298D01*
X136244723Y-106360996D01*
X136588672Y-106131177D01*
X136881177Y-105838672D01*
X137110996Y-105494723D01*
X137269298Y-105112547D01*
X137350000Y-104706832D01*
X137350000Y-104293168D01*
X142650000Y-104293168D01*
X142650000Y-104706832D01*
X142730702Y-105112547D01*
X142889004Y-105494723D01*
X143118823Y-105838672D01*
X143411328Y-106131177D01*
X143755277Y-106360996D01*
X144137453Y-106519298D01*
X144543168Y-106600000D01*
X144956832Y-106600000D01*
X145362547Y-106519298D01*
X145744723Y-106360996D01*
X146088672Y-106131177D01*
X146381177Y-105838672D01*
X146610996Y-105494723D01*
X146769298Y-105112547D01*
X146850000Y-104706832D01*
X146850000Y-104293168D01*
X146769298Y-103887453D01*
X146610996Y-103505277D01*
X146381177Y-103161328D01*
X146088672Y-102868823D01*
X145744723Y-102639004D01*
X145362547Y-102480702D01*
X144956832Y-102400000D01*
X144543168Y-102400000D01*
X144137453Y-102480702D01*
X143755277Y-102639004D01*
X143411328Y-102868823D01*
X143118823Y-103161328D01*
X142889004Y-103505277D01*
X142730702Y-103887453D01*
X142650000Y-104293168D01*
X137350000Y-104293168D01*
X137269298Y-103887453D01*
X137110996Y-103505277D01*
X136881177Y-103161328D01*
X136588672Y-102868823D01*
X136244723Y-102639004D01*
X135862547Y-102480702D01*
X135456832Y-102400000D01*
X135043168Y-102400000D01*
X134637453Y-102480702D01*
X134255277Y-102639004D01*
X133911328Y-102868823D01*
X133618823Y-103161328D01*
X133389004Y-103505277D01*
X133230702Y-103887453D01*
X133150000Y-104293168D01*
X116850000Y-104293168D01*
X116769298Y-103887453D01*
X116610996Y-103505277D01*
X116381177Y-103161328D01*
X116088672Y-102868823D01*
X115744723Y-102639004D01*
X115362547Y-102480702D01*
X114956832Y-102400000D01*
X114543168Y-102400000D01*
X114137453Y-102480702D01*
X113755277Y-102639004D01*
X113411328Y-102868823D01*
X113118823Y-103161328D01*
X112889004Y-103505277D01*
X112730702Y-103887453D01*
X112650000Y-104293168D01*
X107350000Y-104293168D01*
X107269298Y-103887453D01*
X107110996Y-103505277D01*
X106881177Y-103161328D01*
X106588672Y-102868823D01*
X106244723Y-102639004D01*
X105862547Y-102480702D01*
X105456832Y-102400000D01*
X105043168Y-102400000D01*
X104637453Y-102480702D01*
X104255277Y-102639004D01*
X103911328Y-102868823D01*
X103618823Y-103161328D01*
X103389004Y-103505277D01*
X103230702Y-103887453D01*
X103150000Y-104293168D01*
X86850000Y-104293168D01*
X86850000Y-104193168D01*
X86769298Y-103787453D01*
X86610996Y-103405277D01*
X86381177Y-103061328D01*
X86088672Y-102768823D01*
X85744723Y-102539004D01*
X85362547Y-102380702D01*
X84956832Y-102300000D01*
X84543168Y-102300000D01*
X84137453Y-102380702D01*
X83755277Y-102539004D01*
X83411328Y-102768823D01*
X83118823Y-103061328D01*
X82889004Y-103405277D01*
X82730702Y-103787453D01*
X82650000Y-104193168D01*
X77350000Y-104193168D01*
X77269298Y-103787453D01*
X77110996Y-103405277D01*
X76881177Y-103061328D01*
X76588672Y-102768823D01*
X76244723Y-102539004D01*
X75862547Y-102380702D01*
X75456832Y-102300000D01*
X75043168Y-102300000D01*
X74637453Y-102380702D01*
X74255277Y-102539004D01*
X73911328Y-102768823D01*
X73618823Y-103061328D01*
X73389004Y-103405277D01*
X73230702Y-103787453D01*
X73150000Y-104193168D01*
X70100000Y-104193168D01*
X70100000Y-100000000D01*
X70098079Y-99980491D01*
X70092388Y-99961732D01*
X70083147Y-99944443D01*
X70070711Y-99929289D01*
X70055557Y-99916853D01*
X70038268Y-99907612D01*
X70019509Y-99901921D01*
X70000000Y-99900000D01*
X60325000Y-99900000D01*
X60325000Y-96752263D01*
X76000000Y-96752263D01*
X76000000Y-97047737D01*
X76057644Y-97337534D01*
X76170717Y-97610517D01*
X76334874Y-97856194D01*
X76543806Y-98065126D01*
X76789483Y-98229283D01*
X77062466Y-98342356D01*
X77352263Y-98400000D01*
X77647737Y-98400000D01*
X77773003Y-98375083D01*
X79069439Y-99671520D01*
X79096052Y-99703948D01*
X79225481Y-99810168D01*
X79373145Y-99889097D01*
X79533371Y-99937700D01*
X79658251Y-99950000D01*
X79658259Y-99950000D01*
X79700000Y-99954111D01*
X79741741Y-99950000D01*
X84458259Y-99950000D01*
X84500000Y-99954111D01*
X84541741Y-99950000D01*
X84541749Y-99950000D01*
X84666629Y-99937700D01*
X84826855Y-99889097D01*
X84974519Y-99810168D01*
X85103948Y-99703948D01*
X85130566Y-99671514D01*
X86952082Y-97850000D01*
X106263917Y-97850000D01*
X106334874Y-97956194D01*
X106543806Y-98165126D01*
X106789483Y-98329283D01*
X107062466Y-98442356D01*
X107352263Y-98500000D01*
X107647737Y-98500000D01*
X107773002Y-98475083D01*
X108969443Y-99671525D01*
X108996052Y-99703948D01*
X109028475Y-99730557D01*
X109028479Y-99730561D01*
X109106912Y-99794929D01*
X109125481Y-99810168D01*
X109273145Y-99889097D01*
X109433371Y-99937700D01*
X109558251Y-99950000D01*
X109558261Y-99950000D01*
X109599999Y-99954111D01*
X109641737Y-99950000D01*
X135358259Y-99950000D01*
X135400000Y-99954111D01*
X135441741Y-99950000D01*
X135441749Y-99950000D01*
X135566629Y-99937700D01*
X135726855Y-99889097D01*
X135874519Y-99810168D01*
X136003948Y-99703948D01*
X136030566Y-99671514D01*
X137226998Y-98475083D01*
X137352263Y-98500000D01*
X137647737Y-98500000D01*
X137937534Y-98442356D01*
X138210517Y-98329283D01*
X138456194Y-98165126D01*
X138665126Y-97956194D01*
X138750000Y-97829172D01*
X138834874Y-97956194D01*
X139043806Y-98165126D01*
X139289483Y-98329283D01*
X139562466Y-98442356D01*
X139852263Y-98500000D01*
X140147737Y-98500000D01*
X140437534Y-98442356D01*
X140710517Y-98329283D01*
X140956194Y-98165126D01*
X141165126Y-97956194D01*
X141183980Y-97927976D01*
X141789813Y-97927976D01*
X141891872Y-98099017D01*
X142117965Y-98196540D01*
X142358739Y-98248080D01*
X142604942Y-98251657D01*
X142847112Y-98207133D01*
X143075942Y-98116220D01*
X143108128Y-98099017D01*
X143210187Y-97927976D01*
X142500000Y-97217789D01*
X141789813Y-97927976D01*
X141183980Y-97927976D01*
X141329283Y-97710517D01*
X141384482Y-97577255D01*
X141400983Y-97608128D01*
X141572024Y-97710187D01*
X142282211Y-97000000D01*
X142717789Y-97000000D01*
X143427976Y-97710187D01*
X143599017Y-97608128D01*
X143696540Y-97382035D01*
X143748080Y-97141261D01*
X143751657Y-96895058D01*
X143707133Y-96652888D01*
X143616220Y-96424058D01*
X143599017Y-96391872D01*
X143427976Y-96289813D01*
X142717789Y-97000000D01*
X142282211Y-97000000D01*
X141572024Y-96289813D01*
X141400983Y-96391872D01*
X141386042Y-96426511D01*
X141329283Y-96289483D01*
X141183981Y-96072024D01*
X141789813Y-96072024D01*
X142500000Y-96782211D01*
X143210187Y-96072024D01*
X143108128Y-95900983D01*
X142882035Y-95803460D01*
X142641261Y-95751920D01*
X142395058Y-95748343D01*
X142152888Y-95792867D01*
X141924058Y-95883780D01*
X141891872Y-95900983D01*
X141789813Y-96072024D01*
X141183981Y-96072024D01*
X141165126Y-96043806D01*
X140956194Y-95834874D01*
X140710517Y-95670717D01*
X140437534Y-95557644D01*
X140147737Y-95500000D01*
X139852263Y-95500000D01*
X139562466Y-95557644D01*
X139289483Y-95670717D01*
X139043806Y-95834874D01*
X138834874Y-96043806D01*
X138750000Y-96170828D01*
X138665126Y-96043806D01*
X138456194Y-95834874D01*
X138210517Y-95670717D01*
X137937534Y-95557644D01*
X137647737Y-95500000D01*
X137352263Y-95500000D01*
X137062466Y-95557644D01*
X136789483Y-95670717D01*
X136543806Y-95834874D01*
X136334874Y-96043806D01*
X136170717Y-96289483D01*
X136057644Y-96562466D01*
X136000000Y-96852263D01*
X136000000Y-97147737D01*
X136024917Y-97273002D01*
X135047920Y-98250000D01*
X112613955Y-98250000D01*
X112847112Y-98207133D01*
X113075942Y-98116220D01*
X113108128Y-98099017D01*
X113210187Y-97927976D01*
X112500000Y-97217789D01*
X111789813Y-97927976D01*
X111891872Y-98099017D01*
X112117965Y-98196540D01*
X112358739Y-98248080D01*
X112490892Y-98250000D01*
X110829172Y-98250000D01*
X110956194Y-98165126D01*
X111165126Y-97956194D01*
X111329283Y-97710517D01*
X111384482Y-97577255D01*
X111400983Y-97608128D01*
X111572024Y-97710187D01*
X112282211Y-97000000D01*
X112717789Y-97000000D01*
X113427976Y-97710187D01*
X113599017Y-97608128D01*
X113696540Y-97382035D01*
X113748080Y-97141261D01*
X113751657Y-96895058D01*
X113707133Y-96652888D01*
X113616220Y-96424058D01*
X113599017Y-96391872D01*
X113427976Y-96289813D01*
X112717789Y-97000000D01*
X112282211Y-97000000D01*
X111572024Y-96289813D01*
X111400983Y-96391872D01*
X111386042Y-96426511D01*
X111329283Y-96289483D01*
X111183981Y-96072024D01*
X111789813Y-96072024D01*
X112500000Y-96782211D01*
X113210187Y-96072024D01*
X113108128Y-95900983D01*
X112882035Y-95803460D01*
X112641261Y-95751920D01*
X112395058Y-95748343D01*
X112152888Y-95792867D01*
X111924058Y-95883780D01*
X111891872Y-95900983D01*
X111789813Y-96072024D01*
X111183981Y-96072024D01*
X111165126Y-96043806D01*
X110956194Y-95834874D01*
X110710517Y-95670717D01*
X110437534Y-95557644D01*
X110147737Y-95500000D01*
X109852263Y-95500000D01*
X109562466Y-95557644D01*
X109289483Y-95670717D01*
X109043806Y-95834874D01*
X108834874Y-96043806D01*
X108750000Y-96170828D01*
X108665126Y-96043806D01*
X108456194Y-95834874D01*
X108210517Y-95670717D01*
X107937534Y-95557644D01*
X107647737Y-95500000D01*
X107352263Y-95500000D01*
X107062466Y-95557644D01*
X106789483Y-95670717D01*
X106543806Y-95834874D01*
X106334874Y-96043806D01*
X106263917Y-96150000D01*
X86641737Y-96150000D01*
X86599999Y-96145889D01*
X86558261Y-96150000D01*
X86558251Y-96150000D01*
X86433371Y-96162300D01*
X86273145Y-96210903D01*
X86125481Y-96289832D01*
X86125479Y-96289833D01*
X86125480Y-96289833D01*
X86028479Y-96369439D01*
X86028475Y-96369443D01*
X85996052Y-96396052D01*
X85969443Y-96428475D01*
X84147920Y-98250000D01*
X80660502Y-98250000D01*
X80710517Y-98229283D01*
X80956194Y-98065126D01*
X81165126Y-97856194D01*
X81183980Y-97827976D01*
X81789813Y-97827976D01*
X81891872Y-97999017D01*
X82117965Y-98096540D01*
X82358739Y-98148080D01*
X82604942Y-98151657D01*
X82847112Y-98107133D01*
X83075942Y-98016220D01*
X83108128Y-97999017D01*
X83210187Y-97827976D01*
X82500000Y-97117789D01*
X81789813Y-97827976D01*
X81183980Y-97827976D01*
X81329283Y-97610517D01*
X81384482Y-97477255D01*
X81400983Y-97508128D01*
X81572024Y-97610187D01*
X82282211Y-96900000D01*
X82717789Y-96900000D01*
X83427976Y-97610187D01*
X83599017Y-97508128D01*
X83696540Y-97282035D01*
X83748080Y-97041261D01*
X83751657Y-96795058D01*
X83707133Y-96552888D01*
X83616220Y-96324058D01*
X83599017Y-96291872D01*
X83427976Y-96189813D01*
X82717789Y-96900000D01*
X82282211Y-96900000D01*
X81572024Y-96189813D01*
X81400983Y-96291872D01*
X81386042Y-96326511D01*
X81329283Y-96189483D01*
X81183981Y-95972024D01*
X81789813Y-95972024D01*
X82500000Y-96682211D01*
X83210187Y-95972024D01*
X83108128Y-95800983D01*
X82882035Y-95703460D01*
X82641261Y-95651920D01*
X82395058Y-95648343D01*
X82152888Y-95692867D01*
X81924058Y-95783780D01*
X81891872Y-95800983D01*
X81789813Y-95972024D01*
X81183981Y-95972024D01*
X81165126Y-95943806D01*
X80956194Y-95734874D01*
X80710517Y-95570717D01*
X80437534Y-95457644D01*
X80147737Y-95400000D01*
X79852263Y-95400000D01*
X79562466Y-95457644D01*
X79289483Y-95570717D01*
X79043806Y-95734874D01*
X78834874Y-95943806D01*
X78750000Y-96070828D01*
X78665126Y-95943806D01*
X78456194Y-95734874D01*
X78210517Y-95570717D01*
X77937534Y-95457644D01*
X77647737Y-95400000D01*
X77352263Y-95400000D01*
X77062466Y-95457644D01*
X76789483Y-95570717D01*
X76543806Y-95734874D01*
X76334874Y-95943806D01*
X76170717Y-96189483D01*
X76057644Y-96462466D01*
X76000000Y-96752263D01*
X60325000Y-96752263D01*
X60325000Y-91024000D01*
X75833497Y-91024000D01*
X75833497Y-93056000D01*
X75845082Y-93173621D01*
X75879390Y-93286721D01*
X75935104Y-93390955D01*
X76010083Y-93482317D01*
X76101445Y-93557296D01*
X76205679Y-93613010D01*
X76318779Y-93647318D01*
X76436400Y-93658903D01*
X78163600Y-93658903D01*
X78281221Y-93647318D01*
X78394321Y-93613010D01*
X78498555Y-93557296D01*
X78589917Y-93482317D01*
X78664896Y-93390955D01*
X78720610Y-93286721D01*
X78754918Y-93173621D01*
X78766503Y-93056000D01*
X78766503Y-92746333D01*
X78806158Y-92827816D01*
X78949986Y-93017299D01*
X79128017Y-93175082D01*
X79333409Y-93295101D01*
X79499582Y-93357277D01*
X79686000Y-93307920D01*
X79686000Y-92194000D01*
X79666000Y-92194000D01*
X79666000Y-91886000D01*
X79686000Y-91886000D01*
X79686000Y-90772080D01*
X79994000Y-90772080D01*
X79994000Y-91886000D01*
X80014000Y-91886000D01*
X80014000Y-92194000D01*
X79994000Y-92194000D01*
X79994000Y-93307920D01*
X80180418Y-93357277D01*
X80346591Y-93295101D01*
X80551983Y-93175082D01*
X80730014Y-93017299D01*
X80873842Y-92827816D01*
X80977941Y-92613914D01*
X80978158Y-92613088D01*
X81021268Y-92755204D01*
X81157173Y-93009466D01*
X81340071Y-93232328D01*
X81562933Y-93415227D01*
X81817195Y-93551132D01*
X82093084Y-93634822D01*
X82380000Y-93663081D01*
X82666915Y-93634822D01*
X82942804Y-93551132D01*
X83197066Y-93415227D01*
X83419928Y-93232329D01*
X83602827Y-93009467D01*
X83650000Y-92921211D01*
X83697173Y-93009466D01*
X83880071Y-93232328D01*
X84102933Y-93415227D01*
X84357195Y-93551132D01*
X84633084Y-93634822D01*
X84920000Y-93663081D01*
X85206915Y-93634822D01*
X85482804Y-93551132D01*
X85737066Y-93415227D01*
X85959928Y-93232329D01*
X86142827Y-93009467D01*
X86190000Y-92921211D01*
X86237173Y-93009466D01*
X86420071Y-93232328D01*
X86642933Y-93415227D01*
X86897195Y-93551132D01*
X87173084Y-93634822D01*
X87460000Y-93663081D01*
X87746915Y-93634822D01*
X88022804Y-93551132D01*
X88277066Y-93415227D01*
X88499928Y-93232329D01*
X88682827Y-93009467D01*
X88730000Y-92921211D01*
X88777173Y-93009466D01*
X88960071Y-93232328D01*
X89182933Y-93415227D01*
X89437195Y-93551132D01*
X89713084Y-93634822D01*
X90000000Y-93663081D01*
X90286915Y-93634822D01*
X90562804Y-93551132D01*
X90817066Y-93415227D01*
X91039928Y-93232329D01*
X91222827Y-93009467D01*
X91270000Y-92921211D01*
X91317173Y-93009466D01*
X91500071Y-93232328D01*
X91722933Y-93415227D01*
X91977195Y-93551132D01*
X92253084Y-93634822D01*
X92540000Y-93663081D01*
X92826915Y-93634822D01*
X93102804Y-93551132D01*
X93357066Y-93415227D01*
X93579928Y-93232329D01*
X93762827Y-93009467D01*
X93810000Y-92921211D01*
X93857173Y-93009466D01*
X94040071Y-93232328D01*
X94262933Y-93415227D01*
X94517195Y-93551132D01*
X94793084Y-93634822D01*
X95080000Y-93663081D01*
X95366915Y-93634822D01*
X95642804Y-93551132D01*
X95897066Y-93415227D01*
X96119928Y-93232329D01*
X96302827Y-93009467D01*
X96350000Y-92921211D01*
X96397173Y-93009466D01*
X96580071Y-93232328D01*
X96802933Y-93415227D01*
X97057195Y-93551132D01*
X97333084Y-93634822D01*
X97620000Y-93663081D01*
X97906915Y-93634822D01*
X98182804Y-93551132D01*
X98437066Y-93415227D01*
X98659928Y-93232329D01*
X98842827Y-93009467D01*
X98890000Y-92921211D01*
X98937173Y-93009466D01*
X99120071Y-93232328D01*
X99342933Y-93415227D01*
X99597195Y-93551132D01*
X99873084Y-93634822D01*
X100160000Y-93663081D01*
X100446915Y-93634822D01*
X100722804Y-93551132D01*
X100977066Y-93415227D01*
X101199928Y-93232329D01*
X101382827Y-93009467D01*
X101430000Y-92921211D01*
X101477173Y-93009466D01*
X101660071Y-93232328D01*
X101882933Y-93415227D01*
X102137195Y-93551132D01*
X102413084Y-93634822D01*
X102700000Y-93663081D01*
X102986915Y-93634822D01*
X103262804Y-93551132D01*
X103517066Y-93415227D01*
X103739928Y-93232329D01*
X103922827Y-93009467D01*
X103970000Y-92921211D01*
X104017173Y-93009466D01*
X104200071Y-93232328D01*
X104422933Y-93415227D01*
X104677195Y-93551132D01*
X104953084Y-93634822D01*
X105240000Y-93663081D01*
X105526915Y-93634822D01*
X105802804Y-93551132D01*
X106057066Y-93415227D01*
X106279928Y-93232329D01*
X106462827Y-93009467D01*
X106510000Y-92921211D01*
X106557173Y-93009466D01*
X106740071Y-93232328D01*
X106962933Y-93415227D01*
X107217195Y-93551132D01*
X107493084Y-93634822D01*
X107780000Y-93663081D01*
X108066915Y-93634822D01*
X108342804Y-93551132D01*
X108597066Y-93415227D01*
X108819928Y-93232329D01*
X109002827Y-93009467D01*
X109050000Y-92921211D01*
X109097173Y-93009466D01*
X109280071Y-93232328D01*
X109502933Y-93415227D01*
X109757195Y-93551132D01*
X110033084Y-93634822D01*
X110320000Y-93663081D01*
X110606915Y-93634822D01*
X110882804Y-93551132D01*
X111137066Y-93415227D01*
X111359928Y-93232329D01*
X111542827Y-93009467D01*
X111590000Y-92921211D01*
X111637173Y-93009466D01*
X111820071Y-93232328D01*
X112042933Y-93415227D01*
X112297195Y-93551132D01*
X112573084Y-93634822D01*
X112860000Y-93663081D01*
X113146915Y-93634822D01*
X113422804Y-93551132D01*
X113677066Y-93415227D01*
X113899928Y-93232329D01*
X114082827Y-93009467D01*
X114218732Y-92755205D01*
X114302422Y-92479316D01*
X114323600Y-92264294D01*
X114323600Y-91815707D01*
X114302422Y-91600685D01*
X114218732Y-91324796D01*
X114082827Y-91070533D01*
X113899929Y-90847671D01*
X113677067Y-90664773D01*
X113422805Y-90528868D01*
X113146916Y-90445178D01*
X112860000Y-90416919D01*
X112573085Y-90445178D01*
X112297196Y-90528868D01*
X112042934Y-90664773D01*
X111820072Y-90847671D01*
X111637173Y-91070533D01*
X111590000Y-91158788D01*
X111542827Y-91070533D01*
X111359929Y-90847671D01*
X111137067Y-90664773D01*
X110882805Y-90528868D01*
X110606916Y-90445178D01*
X110320000Y-90416919D01*
X110033085Y-90445178D01*
X109757196Y-90528868D01*
X109502934Y-90664773D01*
X109280072Y-90847671D01*
X109097173Y-91070533D01*
X109050000Y-91158788D01*
X109002827Y-91070533D01*
X108819929Y-90847671D01*
X108597067Y-90664773D01*
X108342805Y-90528868D01*
X108066916Y-90445178D01*
X107780000Y-90416919D01*
X107493085Y-90445178D01*
X107217196Y-90528868D01*
X106962934Y-90664773D01*
X106740072Y-90847671D01*
X106557173Y-91070533D01*
X106510000Y-91158788D01*
X106462827Y-91070533D01*
X106279929Y-90847671D01*
X106057067Y-90664773D01*
X105802805Y-90528868D01*
X105526916Y-90445178D01*
X105240000Y-90416919D01*
X104953085Y-90445178D01*
X104677196Y-90528868D01*
X104422934Y-90664773D01*
X104200072Y-90847671D01*
X104017173Y-91070533D01*
X103970000Y-91158788D01*
X103922827Y-91070533D01*
X103739929Y-90847671D01*
X103517067Y-90664773D01*
X103262805Y-90528868D01*
X102986916Y-90445178D01*
X102700000Y-90416919D01*
X102413085Y-90445178D01*
X102137196Y-90528868D01*
X101882934Y-90664773D01*
X101660072Y-90847671D01*
X101477173Y-91070533D01*
X101430000Y-91158788D01*
X101382827Y-91070533D01*
X101199929Y-90847671D01*
X100977067Y-90664773D01*
X100722805Y-90528868D01*
X100446916Y-90445178D01*
X100160000Y-90416919D01*
X99873085Y-90445178D01*
X99597196Y-90528868D01*
X99342934Y-90664773D01*
X99120072Y-90847671D01*
X98937173Y-91070533D01*
X98890000Y-91158788D01*
X98842827Y-91070533D01*
X98659929Y-90847671D01*
X98437067Y-90664773D01*
X98182805Y-90528868D01*
X97906916Y-90445178D01*
X97620000Y-90416919D01*
X97333085Y-90445178D01*
X97057196Y-90528868D01*
X96802934Y-90664773D01*
X96580072Y-90847671D01*
X96397173Y-91070533D01*
X96350000Y-91158788D01*
X96302827Y-91070533D01*
X96119929Y-90847671D01*
X95897067Y-90664773D01*
X95642805Y-90528868D01*
X95366916Y-90445178D01*
X95080000Y-90416919D01*
X94793085Y-90445178D01*
X94517196Y-90528868D01*
X94262934Y-90664773D01*
X94040072Y-90847671D01*
X93857173Y-91070533D01*
X93810000Y-91158788D01*
X93762827Y-91070533D01*
X93579929Y-90847671D01*
X93357067Y-90664773D01*
X93102805Y-90528868D01*
X92826916Y-90445178D01*
X92540000Y-90416919D01*
X92253085Y-90445178D01*
X91977196Y-90528868D01*
X91722934Y-90664773D01*
X91500072Y-90847671D01*
X91317173Y-91070533D01*
X91270000Y-91158788D01*
X91222827Y-91070533D01*
X91039929Y-90847671D01*
X90817067Y-90664773D01*
X90562805Y-90528868D01*
X90286916Y-90445178D01*
X90000000Y-90416919D01*
X89713085Y-90445178D01*
X89437196Y-90528868D01*
X89182934Y-90664773D01*
X88960072Y-90847671D01*
X88777173Y-91070533D01*
X88730000Y-91158788D01*
X88682827Y-91070533D01*
X88499929Y-90847671D01*
X88277067Y-90664773D01*
X88022805Y-90528868D01*
X87746916Y-90445178D01*
X87460000Y-90416919D01*
X87173085Y-90445178D01*
X86897196Y-90528868D01*
X86642934Y-90664773D01*
X86420072Y-90847671D01*
X86237173Y-91070533D01*
X86190000Y-91158788D01*
X86142827Y-91070533D01*
X85959929Y-90847671D01*
X85737067Y-90664773D01*
X85482805Y-90528868D01*
X85206916Y-90445178D01*
X84920000Y-90416919D01*
X84633085Y-90445178D01*
X84357196Y-90528868D01*
X84102934Y-90664773D01*
X83880072Y-90847671D01*
X83697173Y-91070533D01*
X83650000Y-91158788D01*
X83602827Y-91070533D01*
X83419929Y-90847671D01*
X83197067Y-90664773D01*
X82942805Y-90528868D01*
X82666916Y-90445178D01*
X82380000Y-90416919D01*
X82093085Y-90445178D01*
X81817196Y-90528868D01*
X81562934Y-90664773D01*
X81340072Y-90847671D01*
X81157173Y-91070533D01*
X81021268Y-91324795D01*
X80978158Y-91466911D01*
X80977941Y-91466086D01*
X80873842Y-91252184D01*
X80730014Y-91062701D01*
X80551983Y-90904918D01*
X80346591Y-90784899D01*
X80180418Y-90722723D01*
X79994000Y-90772080D01*
X79686000Y-90772080D01*
X79499582Y-90722723D01*
X79333409Y-90784899D01*
X79128017Y-90904918D01*
X78949986Y-91062701D01*
X78806158Y-91252184D01*
X78766503Y-91333667D01*
X78766503Y-91024000D01*
X78754918Y-90906379D01*
X78720610Y-90793279D01*
X78664896Y-90689045D01*
X78589917Y-90597683D01*
X78498555Y-90522704D01*
X78400000Y-90470025D01*
X78400000Y-90255634D01*
X79755635Y-88900000D01*
X115245966Y-88900000D01*
X115300000Y-88905322D01*
X115354034Y-88900000D01*
X115354036Y-88900000D01*
X115515638Y-88884084D01*
X115722988Y-88821184D01*
X115914084Y-88719042D01*
X115998212Y-88650000D01*
X132247097Y-88650000D01*
X132247097Y-90350000D01*
X132258682Y-90467621D01*
X132292990Y-90580721D01*
X132348704Y-90684955D01*
X132423683Y-90776317D01*
X132515045Y-90851296D01*
X132619279Y-90907010D01*
X132732379Y-90941318D01*
X132746665Y-90942725D01*
X132573711Y-91115679D01*
X132415027Y-91353167D01*
X132305723Y-91617051D01*
X132250000Y-91897187D01*
X132250000Y-92182813D01*
X132305723Y-92462949D01*
X132415027Y-92726833D01*
X132573711Y-92964321D01*
X132775679Y-93166289D01*
X133013167Y-93324973D01*
X133277051Y-93434277D01*
X133557187Y-93490000D01*
X133842813Y-93490000D01*
X134122949Y-93434277D01*
X134386833Y-93324973D01*
X134624321Y-93166289D01*
X134826289Y-92964321D01*
X134984973Y-92726833D01*
X135094277Y-92462949D01*
X135150000Y-92182813D01*
X135150000Y-91897187D01*
X135094277Y-91617051D01*
X134984973Y-91353167D01*
X134826289Y-91115679D01*
X134653335Y-90942725D01*
X134667621Y-90941318D01*
X134780721Y-90907010D01*
X134884955Y-90851296D01*
X134976317Y-90776317D01*
X135051296Y-90684955D01*
X135107010Y-90580721D01*
X135141318Y-90467621D01*
X135152903Y-90350000D01*
X135152903Y-88650000D01*
X135141318Y-88532379D01*
X135107010Y-88419279D01*
X135051296Y-88315045D01*
X134976317Y-88223683D01*
X134884955Y-88148704D01*
X134780721Y-88092990D01*
X134667621Y-88058682D01*
X134550000Y-88047097D01*
X132850000Y-88047097D01*
X132732379Y-88058682D01*
X132619279Y-88092990D01*
X132515045Y-88148704D01*
X132423683Y-88223683D01*
X132348704Y-88315045D01*
X132292990Y-88419279D01*
X132258682Y-88532379D01*
X132247097Y-88650000D01*
X115998212Y-88650000D01*
X116081581Y-88581581D01*
X116116033Y-88539601D01*
X120339606Y-84316029D01*
X120381581Y-84281581D01*
X120460113Y-84185889D01*
X120519042Y-84114085D01*
X120621183Y-83922989D01*
X120621184Y-83922988D01*
X120684084Y-83715638D01*
X120700000Y-83554036D01*
X120700000Y-83554035D01*
X120705322Y-83500001D01*
X120700000Y-83445967D01*
X120700000Y-82929845D01*
X120747433Y-82898151D01*
X120998151Y-82647433D01*
X121195139Y-82352620D01*
X121330827Y-82025041D01*
X121400000Y-81677284D01*
X121400000Y-81322716D01*
X121330827Y-80974959D01*
X121195139Y-80647380D01*
X121029844Y-80399999D01*
X121644365Y-80399999D01*
X123083971Y-81839606D01*
X123118419Y-81881581D01*
X123285916Y-82019042D01*
X123477012Y-82121184D01*
X123684362Y-82184084D01*
X123845964Y-82200000D01*
X123845966Y-82200000D01*
X123900000Y-82205322D01*
X123954034Y-82200000D01*
X129845966Y-82200000D01*
X129900000Y-82205322D01*
X129954034Y-82200000D01*
X129954036Y-82200000D01*
X130115638Y-82184084D01*
X130322988Y-82121184D01*
X130514084Y-82019042D01*
X130681581Y-81881581D01*
X130716033Y-81839601D01*
X131505634Y-81050000D01*
X132247097Y-81050000D01*
X132247097Y-82750000D01*
X132258682Y-82867621D01*
X132292990Y-82980721D01*
X132348704Y-83084955D01*
X132423683Y-83176317D01*
X132515045Y-83251296D01*
X132619279Y-83307010D01*
X132732379Y-83341318D01*
X132746665Y-83342725D01*
X132573711Y-83515679D01*
X132415027Y-83753167D01*
X132305723Y-84017051D01*
X132250000Y-84297187D01*
X132250000Y-84582813D01*
X132305723Y-84862949D01*
X132415027Y-85126833D01*
X132573711Y-85364321D01*
X132775679Y-85566289D01*
X133013167Y-85724973D01*
X133277051Y-85834277D01*
X133557187Y-85890000D01*
X133842813Y-85890000D01*
X134122949Y-85834277D01*
X134386833Y-85724973D01*
X134624321Y-85566289D01*
X134826289Y-85364321D01*
X134984973Y-85126833D01*
X135094277Y-84862949D01*
X135150000Y-84582813D01*
X135150000Y-84297187D01*
X135094277Y-84017051D01*
X134984973Y-83753167D01*
X134826289Y-83515679D01*
X134653335Y-83342725D01*
X134667621Y-83341318D01*
X134780721Y-83307010D01*
X134884955Y-83251296D01*
X134976317Y-83176317D01*
X135051296Y-83084955D01*
X135107010Y-82980721D01*
X135141318Y-82867621D01*
X135152903Y-82750000D01*
X135152903Y-81050000D01*
X135141318Y-80932379D01*
X135107010Y-80819279D01*
X135051296Y-80715045D01*
X134976317Y-80623683D01*
X134884955Y-80548704D01*
X134780721Y-80492990D01*
X134667621Y-80458682D01*
X134550000Y-80447097D01*
X132850000Y-80447097D01*
X132732379Y-80458682D01*
X132619279Y-80492990D01*
X132515045Y-80548704D01*
X132423683Y-80623683D01*
X132348704Y-80715045D01*
X132292990Y-80819279D01*
X132258682Y-80932379D01*
X132247097Y-81050000D01*
X131505634Y-81050000D01*
X132155636Y-80399999D01*
X141904087Y-80399999D01*
X141968813Y-80725401D01*
X142104501Y-81052980D01*
X142301489Y-81347793D01*
X142552207Y-81598511D01*
X142847020Y-81795499D01*
X143174599Y-81931187D01*
X143522356Y-82000360D01*
X143876924Y-82000360D01*
X144224681Y-81931187D01*
X144552260Y-81795499D01*
X144847073Y-81598511D01*
X145097791Y-81347793D01*
X145294779Y-81052980D01*
X145430467Y-80725401D01*
X145499640Y-80377644D01*
X145499640Y-80023076D01*
X145430467Y-79675319D01*
X145294779Y-79347740D01*
X145097791Y-79052927D01*
X144847073Y-78802209D01*
X144552260Y-78605221D01*
X144224681Y-78469533D01*
X143876924Y-78400360D01*
X143522356Y-78400360D01*
X143453657Y-78414025D01*
X143413363Y-78380957D01*
X143222267Y-78278815D01*
X143014917Y-78215915D01*
X142853315Y-78199999D01*
X142853313Y-78199999D01*
X142799279Y-78194677D01*
X142745245Y-78199999D01*
X131754035Y-78199999D01*
X131700001Y-78194677D01*
X131645967Y-78199999D01*
X131645965Y-78199999D01*
X131484363Y-78215915D01*
X131277013Y-78278815D01*
X131085917Y-78380957D01*
X130918420Y-78518418D01*
X130883972Y-78560393D01*
X129444366Y-80000000D01*
X124355635Y-80000000D01*
X122916032Y-78560398D01*
X122881580Y-78518418D01*
X122714083Y-78380957D01*
X122522987Y-78278815D01*
X122315637Y-78215915D01*
X122154035Y-78199999D01*
X122154033Y-78199999D01*
X122099999Y-78194677D01*
X122045965Y-78199999D01*
X120021323Y-78199999D01*
X120065128Y-78156194D01*
X120136085Y-78050000D01*
X125147097Y-78050000D01*
X125158682Y-78167621D01*
X125192990Y-78280721D01*
X125248704Y-78384955D01*
X125323683Y-78476317D01*
X125415045Y-78551296D01*
X125519279Y-78607010D01*
X125632379Y-78641318D01*
X125750000Y-78652903D01*
X127450000Y-78652903D01*
X127567621Y-78641318D01*
X127680721Y-78607010D01*
X127784955Y-78551296D01*
X127876317Y-78476317D01*
X127951296Y-78384955D01*
X128007010Y-78280721D01*
X128041318Y-78167621D01*
X128052903Y-78050000D01*
X128052903Y-77697300D01*
X128076775Y-77756390D01*
X128205751Y-77953124D01*
X128370630Y-78120916D01*
X128565075Y-78253317D01*
X128781614Y-78345240D01*
X128801727Y-78351334D01*
X128986000Y-78301790D01*
X128986000Y-77354000D01*
X129294000Y-77354000D01*
X129294000Y-78301790D01*
X129478273Y-78351334D01*
X129498386Y-78345240D01*
X129714925Y-78253317D01*
X129909370Y-78120916D01*
X130074249Y-77953124D01*
X130203225Y-77756390D01*
X130291342Y-77538274D01*
X130242585Y-77354000D01*
X129294000Y-77354000D01*
X128986000Y-77354000D01*
X128966000Y-77354000D01*
X128966000Y-77046000D01*
X128986000Y-77046000D01*
X128986000Y-76098210D01*
X129294000Y-76098210D01*
X129294000Y-77046000D01*
X130242585Y-77046000D01*
X130291342Y-76861726D01*
X130203225Y-76643610D01*
X130074249Y-76446876D01*
X129909370Y-76279084D01*
X129714925Y-76146683D01*
X129498386Y-76054760D01*
X129478273Y-76048666D01*
X129294000Y-76098210D01*
X128986000Y-76098210D01*
X128801727Y-76048666D01*
X128781614Y-76054760D01*
X128565075Y-76146683D01*
X128370630Y-76279084D01*
X128205751Y-76446876D01*
X128076775Y-76643610D01*
X128052903Y-76702700D01*
X128052903Y-76350000D01*
X128041318Y-76232379D01*
X128007010Y-76119279D01*
X127951296Y-76015045D01*
X127876317Y-75923683D01*
X127784955Y-75848704D01*
X127680721Y-75792990D01*
X127567621Y-75758682D01*
X127450000Y-75747097D01*
X125750000Y-75747097D01*
X125632379Y-75758682D01*
X125519279Y-75792990D01*
X125415045Y-75848704D01*
X125323683Y-75923683D01*
X125248704Y-76015045D01*
X125192990Y-76119279D01*
X125158682Y-76232379D01*
X125147097Y-76350000D01*
X120136085Y-76350000D01*
X120065128Y-76243806D01*
X119856196Y-76034874D01*
X119610519Y-75870717D01*
X119337536Y-75757644D01*
X119047739Y-75700000D01*
X118752265Y-75700000D01*
X118462468Y-75757644D01*
X118189485Y-75870717D01*
X117943808Y-76034874D01*
X117734876Y-76243806D01*
X117570719Y-76489483D01*
X117457646Y-76762466D01*
X117400002Y-77052263D01*
X117400002Y-77347737D01*
X117457646Y-77637534D01*
X117570719Y-77910517D01*
X117734876Y-78156194D01*
X117778681Y-78199999D01*
X117729844Y-78199999D01*
X117698150Y-78152566D01*
X117447432Y-77901848D01*
X117152619Y-77704860D01*
X116825040Y-77569172D01*
X116477283Y-77499999D01*
X116122715Y-77499999D01*
X115774958Y-77569172D01*
X115447379Y-77704860D01*
X115308125Y-77797906D01*
X115311310Y-77787408D01*
X115323610Y-77662528D01*
X115323610Y-77662521D01*
X115327721Y-77620780D01*
X115323610Y-77579039D01*
X115323610Y-76020958D01*
X115327721Y-75979220D01*
X115323610Y-75937482D01*
X115323610Y-75937472D01*
X115311310Y-75812592D01*
X115262707Y-75652366D01*
X115183778Y-75504702D01*
X115165740Y-75482723D01*
X115104171Y-75407700D01*
X115104167Y-75407696D01*
X115077558Y-75375273D01*
X115045135Y-75348664D01*
X114400001Y-74703531D01*
X114400001Y-59300000D01*
X114597737Y-59300000D01*
X114887534Y-59242356D01*
X115160517Y-59129283D01*
X115406194Y-58965126D01*
X115615126Y-58756194D01*
X115779283Y-58510517D01*
X115892356Y-58237534D01*
X115950000Y-57947737D01*
X115950000Y-57652263D01*
X115892356Y-57362466D01*
X115779283Y-57089483D01*
X115615126Y-56843806D01*
X115406194Y-56634874D01*
X115160517Y-56470717D01*
X114887534Y-56357644D01*
X114597737Y-56300000D01*
X114302263Y-56300000D01*
X114012466Y-56357644D01*
X113739483Y-56470717D01*
X113493806Y-56634874D01*
X113284874Y-56843806D01*
X113120717Y-57089483D01*
X113007644Y-57362466D01*
X112950000Y-57652263D01*
X112950000Y-57947737D01*
X112974808Y-58072453D01*
X112946054Y-58096051D01*
X112839834Y-58225480D01*
X112813622Y-58274519D01*
X112760904Y-58373145D01*
X112712301Y-58533370D01*
X112695890Y-58699999D01*
X112700002Y-58741750D01*
X112700001Y-75013871D01*
X112695890Y-75055612D01*
X112700001Y-75097353D01*
X112700001Y-75097360D01*
X112709299Y-75191762D01*
X112573085Y-75205178D01*
X112297196Y-75288868D01*
X112042934Y-75424773D01*
X111820072Y-75607671D01*
X111637173Y-75830533D01*
X111590000Y-75918788D01*
X111542827Y-75830533D01*
X111359929Y-75607671D01*
X111137067Y-75424773D01*
X110882805Y-75288868D01*
X110606916Y-75205178D01*
X110320000Y-75176919D01*
X110033085Y-75205178D01*
X109757196Y-75288868D01*
X109502934Y-75424773D01*
X109280072Y-75607671D01*
X109097173Y-75830533D01*
X109050000Y-75918788D01*
X109002827Y-75830533D01*
X108819929Y-75607671D01*
X108597067Y-75424773D01*
X108342805Y-75288868D01*
X108066916Y-75205178D01*
X107780000Y-75176919D01*
X107493085Y-75205178D01*
X107217196Y-75288868D01*
X106962934Y-75424773D01*
X106740072Y-75607671D01*
X106557173Y-75830533D01*
X106510000Y-75918788D01*
X106462827Y-75830533D01*
X106279929Y-75607671D01*
X106057067Y-75424773D01*
X105802805Y-75288868D01*
X105526916Y-75205178D01*
X105240000Y-75176919D01*
X104953085Y-75205178D01*
X104677196Y-75288868D01*
X104422934Y-75424773D01*
X104200072Y-75607671D01*
X104017173Y-75830533D01*
X103970000Y-75918788D01*
X103922827Y-75830533D01*
X103739929Y-75607671D01*
X103517067Y-75424773D01*
X103262805Y-75288868D01*
X102986916Y-75205178D01*
X102700000Y-75176919D01*
X102413085Y-75205178D01*
X102137196Y-75288868D01*
X101882934Y-75424773D01*
X101660072Y-75607671D01*
X101477173Y-75830533D01*
X101430000Y-75918788D01*
X101382827Y-75830533D01*
X101199929Y-75607671D01*
X100977067Y-75424773D01*
X100722805Y-75288868D01*
X100446916Y-75205178D01*
X100160000Y-75176919D01*
X99873085Y-75205178D01*
X99597196Y-75288868D01*
X99342934Y-75424773D01*
X99120072Y-75607671D01*
X98937173Y-75830533D01*
X98890000Y-75918788D01*
X98842827Y-75830533D01*
X98659929Y-75607671D01*
X98437067Y-75424773D01*
X98182805Y-75288868D01*
X97906916Y-75205178D01*
X97620000Y-75176919D01*
X97333085Y-75205178D01*
X97057196Y-75288868D01*
X96802934Y-75424773D01*
X96580072Y-75607671D01*
X96397173Y-75830533D01*
X96350000Y-75918788D01*
X96302827Y-75830533D01*
X96119929Y-75607671D01*
X95897067Y-75424773D01*
X95642805Y-75288868D01*
X95366916Y-75205178D01*
X95080000Y-75176919D01*
X94793085Y-75205178D01*
X94517196Y-75288868D01*
X94262934Y-75424773D01*
X94040072Y-75607671D01*
X93857173Y-75830533D01*
X93810000Y-75918788D01*
X93762827Y-75830533D01*
X93579929Y-75607671D01*
X93357067Y-75424773D01*
X93102805Y-75288868D01*
X92826916Y-75205178D01*
X92540000Y-75176919D01*
X92253085Y-75205178D01*
X91977196Y-75288868D01*
X91722934Y-75424773D01*
X91500072Y-75607671D01*
X91317173Y-75830533D01*
X91270000Y-75918788D01*
X91222827Y-75830533D01*
X91039929Y-75607671D01*
X90817067Y-75424773D01*
X90562805Y-75288868D01*
X90286916Y-75205178D01*
X90000000Y-75176919D01*
X89713085Y-75205178D01*
X89437196Y-75288868D01*
X89182934Y-75424773D01*
X88960072Y-75607671D01*
X88777173Y-75830533D01*
X88730000Y-75918788D01*
X88682827Y-75830533D01*
X88499929Y-75607671D01*
X88277067Y-75424773D01*
X88022805Y-75288868D01*
X87746916Y-75205178D01*
X87460000Y-75176919D01*
X87173085Y-75205178D01*
X86897196Y-75288868D01*
X86642934Y-75424773D01*
X86420072Y-75607671D01*
X86237173Y-75830533D01*
X86101268Y-76084795D01*
X86058158Y-76226911D01*
X86057941Y-76226086D01*
X85953842Y-76012184D01*
X85810014Y-75822701D01*
X85631983Y-75664918D01*
X85426591Y-75544899D01*
X85260418Y-75482723D01*
X85074000Y-75532080D01*
X85074000Y-76646000D01*
X85094000Y-76646000D01*
X85094000Y-76954000D01*
X85074000Y-76954000D01*
X85074000Y-78067920D01*
X85260418Y-78117277D01*
X85426591Y-78055101D01*
X85631983Y-77935082D01*
X85810014Y-77777299D01*
X85953842Y-77587816D01*
X86057941Y-77373914D01*
X86058158Y-77373089D01*
X86101268Y-77515204D01*
X86237173Y-77769466D01*
X86420071Y-77992328D01*
X86642933Y-78175227D01*
X86897195Y-78311132D01*
X87173084Y-78394822D01*
X87460000Y-78423081D01*
X87746915Y-78394822D01*
X88022804Y-78311132D01*
X88277066Y-78175227D01*
X88499928Y-77992329D01*
X88682827Y-77769467D01*
X88730000Y-77681211D01*
X88777173Y-77769466D01*
X88960071Y-77992328D01*
X89182933Y-78175227D01*
X89437195Y-78311132D01*
X89713084Y-78394822D01*
X90000000Y-78423081D01*
X90286915Y-78394822D01*
X90562804Y-78311132D01*
X90817066Y-78175227D01*
X91039928Y-77992329D01*
X91222827Y-77769467D01*
X91270000Y-77681211D01*
X91317173Y-77769466D01*
X91500071Y-77992328D01*
X91690000Y-78148200D01*
X91690001Y-84998249D01*
X91685889Y-85040000D01*
X91702300Y-85206629D01*
X91750903Y-85366854D01*
X91750904Y-85366855D01*
X91829833Y-85514519D01*
X91936053Y-85643948D01*
X91968481Y-85670561D01*
X92869438Y-86571519D01*
X92896052Y-86603948D01*
X93013091Y-86700000D01*
X79354033Y-86700000D01*
X79299999Y-86694678D01*
X79245965Y-86700000D01*
X79245964Y-86700000D01*
X79084362Y-86715916D01*
X78877012Y-86778816D01*
X78788057Y-86826363D01*
X78685915Y-86880958D01*
X78606176Y-86946399D01*
X78518419Y-87018419D01*
X78483973Y-87060392D01*
X76560399Y-88983967D01*
X76518419Y-89018419D01*
X76380958Y-89185916D01*
X76278816Y-89377013D01*
X76215916Y-89584363D01*
X76200000Y-89745964D01*
X76194678Y-89800000D01*
X76200000Y-89854034D01*
X76200000Y-90470025D01*
X76101445Y-90522704D01*
X76010083Y-90597683D01*
X75935104Y-90689045D01*
X75879390Y-90793279D01*
X75845082Y-90906379D01*
X75833497Y-91024000D01*
X60325000Y-91024000D01*
X60325000Y-75784000D01*
X75833497Y-75784000D01*
X75833497Y-77816000D01*
X75845082Y-77933621D01*
X75879390Y-78046721D01*
X75935104Y-78150955D01*
X76010083Y-78242317D01*
X76101445Y-78317296D01*
X76205679Y-78373010D01*
X76318779Y-78407318D01*
X76436400Y-78418903D01*
X78163600Y-78418903D01*
X78281221Y-78407318D01*
X78394321Y-78373010D01*
X78498555Y-78317296D01*
X78589917Y-78242317D01*
X78664896Y-78150955D01*
X78720610Y-78046721D01*
X78754101Y-77936314D01*
X78800071Y-77992328D01*
X79022933Y-78175227D01*
X79277195Y-78311132D01*
X79553084Y-78394822D01*
X79840000Y-78423081D01*
X80126915Y-78394822D01*
X80402804Y-78311132D01*
X80657066Y-78175227D01*
X80879928Y-77992329D01*
X81062827Y-77769467D01*
X81110000Y-77681211D01*
X81157173Y-77769466D01*
X81340071Y-77992328D01*
X81562933Y-78175227D01*
X81817195Y-78311132D01*
X82093084Y-78394822D01*
X82380000Y-78423081D01*
X82666915Y-78394822D01*
X82942804Y-78311132D01*
X83197066Y-78175227D01*
X83419928Y-77992329D01*
X83602827Y-77769467D01*
X83738732Y-77515205D01*
X83781842Y-77373089D01*
X83782059Y-77373914D01*
X83886158Y-77587816D01*
X84029986Y-77777299D01*
X84208017Y-77935082D01*
X84413409Y-78055101D01*
X84579582Y-78117277D01*
X84766000Y-78067920D01*
X84766000Y-76954000D01*
X84746000Y-76954000D01*
X84746000Y-76646000D01*
X84766000Y-76646000D01*
X84766000Y-75532080D01*
X84579582Y-75482723D01*
X84413409Y-75544899D01*
X84208017Y-75664918D01*
X84029986Y-75822701D01*
X83886158Y-76012184D01*
X83782059Y-76226086D01*
X83781842Y-76226911D01*
X83738732Y-76084796D01*
X83602827Y-75830533D01*
X83419929Y-75607671D01*
X83197067Y-75424773D01*
X82942805Y-75288868D01*
X82666916Y-75205178D01*
X82380000Y-75176919D01*
X82093085Y-75205178D01*
X81817196Y-75288868D01*
X81562934Y-75424773D01*
X81340072Y-75607671D01*
X81157173Y-75830533D01*
X81110000Y-75918788D01*
X81062827Y-75830533D01*
X80879929Y-75607671D01*
X80657067Y-75424773D01*
X80402805Y-75288868D01*
X80126916Y-75205178D01*
X79840000Y-75176919D01*
X79553085Y-75205178D01*
X79277196Y-75288868D01*
X79022934Y-75424773D01*
X78800072Y-75607671D01*
X78754101Y-75663686D01*
X78720610Y-75553279D01*
X78664896Y-75449045D01*
X78589917Y-75357683D01*
X78498555Y-75282704D01*
X78394321Y-75226990D01*
X78281221Y-75192682D01*
X78163600Y-75181097D01*
X76436400Y-75181097D01*
X76318779Y-75192682D01*
X76205679Y-75226990D01*
X76101445Y-75282704D01*
X76010083Y-75357683D01*
X75935104Y-75449045D01*
X75879390Y-75553279D01*
X75845082Y-75666379D01*
X75833497Y-75784000D01*
X60325000Y-75784000D01*
X60325000Y-69650000D01*
X84098306Y-69650000D01*
X84105064Y-69718612D01*
X84125077Y-69784587D01*
X84157577Y-69845391D01*
X84201315Y-69898685D01*
X84254609Y-69942423D01*
X84315413Y-69974923D01*
X84381388Y-69994936D01*
X84450000Y-70001694D01*
X85058500Y-70000000D01*
X85146000Y-69912500D01*
X85146000Y-68954000D01*
X84187500Y-68954000D01*
X84100000Y-69041500D01*
X84098306Y-69650000D01*
X60325000Y-69650000D01*
X60325000Y-67950000D01*
X84098306Y-67950000D01*
X84100000Y-68558500D01*
X84187500Y-68646000D01*
X85146000Y-68646000D01*
X85146000Y-67687500D01*
X85058500Y-67600000D01*
X84450000Y-67598306D01*
X84381388Y-67605064D01*
X84315413Y-67625077D01*
X84254609Y-67657577D01*
X84201315Y-67701315D01*
X84157577Y-67754609D01*
X84125077Y-67815413D01*
X84105064Y-67881388D01*
X84098306Y-67950000D01*
X60325000Y-67950000D01*
X60325000Y-65752263D01*
X81899998Y-65752263D01*
X81899998Y-66047737D01*
X81957642Y-66337534D01*
X82070715Y-66610517D01*
X82234872Y-66856194D01*
X82443804Y-67065126D01*
X82689481Y-67229283D01*
X82962464Y-67342356D01*
X83252261Y-67400000D01*
X83547735Y-67400000D01*
X83837532Y-67342356D01*
X84110515Y-67229283D01*
X84356192Y-67065126D01*
X84565124Y-66856194D01*
X84636081Y-66750000D01*
X89044032Y-66750000D01*
X89085773Y-66754111D01*
X89127514Y-66750000D01*
X89127522Y-66750000D01*
X89252402Y-66737700D01*
X89412628Y-66689097D01*
X89560292Y-66610168D01*
X89689721Y-66503948D01*
X89716339Y-66471514D01*
X96476998Y-59710856D01*
X96602263Y-59735773D01*
X96897737Y-59735773D01*
X97187534Y-59678129D01*
X97242599Y-59655320D01*
X89428486Y-67469434D01*
X89396052Y-67496052D01*
X89289832Y-67625482D01*
X89249298Y-67701315D01*
X89210903Y-67773146D01*
X89179801Y-67875679D01*
X89162300Y-67933372D01*
X89150000Y-68058252D01*
X89150000Y-68058259D01*
X89145889Y-68100000D01*
X89150000Y-68141741D01*
X89150000Y-68173588D01*
X89124973Y-68113167D01*
X88966289Y-67875679D01*
X88764321Y-67673711D01*
X88526833Y-67515027D01*
X88262949Y-67405723D01*
X87982813Y-67350000D01*
X87697187Y-67350000D01*
X87417051Y-67405723D01*
X87153167Y-67515027D01*
X86915679Y-67673711D01*
X86713711Y-67875679D01*
X86555027Y-68113167D01*
X86500876Y-68243900D01*
X86501694Y-67950000D01*
X86494936Y-67881388D01*
X86474923Y-67815413D01*
X86442423Y-67754609D01*
X86398685Y-67701315D01*
X86345391Y-67657577D01*
X86284587Y-67625077D01*
X86218612Y-67605064D01*
X86150000Y-67598306D01*
X85541500Y-67600000D01*
X85454000Y-67687500D01*
X85454000Y-68646000D01*
X85474000Y-68646000D01*
X85474000Y-68954000D01*
X85454000Y-68954000D01*
X85454000Y-69912500D01*
X85541500Y-70000000D01*
X86150000Y-70001694D01*
X86218612Y-69994936D01*
X86284587Y-69974923D01*
X86345391Y-69942423D01*
X86398685Y-69898685D01*
X86442423Y-69845391D01*
X86474923Y-69784587D01*
X86494936Y-69718612D01*
X86501694Y-69650000D01*
X86500876Y-69356100D01*
X86555027Y-69486833D01*
X86713711Y-69724321D01*
X86915679Y-69926289D01*
X87153167Y-70084973D01*
X87417051Y-70194277D01*
X87697187Y-70250000D01*
X87982813Y-70250000D01*
X88262949Y-70194277D01*
X88526833Y-70084973D01*
X88764321Y-69926289D01*
X88966289Y-69724321D01*
X89124973Y-69486833D01*
X89150000Y-69426412D01*
X89150001Y-72285450D01*
X89150000Y-72285460D01*
X89150000Y-72363917D01*
X89043806Y-72434874D01*
X88834874Y-72643806D01*
X88670717Y-72889483D01*
X88557644Y-73162466D01*
X88500000Y-73452263D01*
X88500000Y-73747737D01*
X88557644Y-74037534D01*
X88670717Y-74310517D01*
X88834874Y-74556194D01*
X89043806Y-74765126D01*
X89289483Y-74929283D01*
X89562466Y-75042356D01*
X89852263Y-75100000D01*
X90147737Y-75100000D01*
X90437534Y-75042356D01*
X90710517Y-74929283D01*
X90956194Y-74765126D01*
X91165126Y-74556194D01*
X91329283Y-74310517D01*
X91442356Y-74037534D01*
X91500000Y-73747737D01*
X91500000Y-73452263D01*
X91442356Y-73162466D01*
X91329283Y-72889483D01*
X91165126Y-72643806D01*
X90956194Y-72434874D01*
X90850000Y-72363917D01*
X90850000Y-69316000D01*
X93232306Y-69316000D01*
X93239064Y-69384612D01*
X93259077Y-69450587D01*
X93291577Y-69511391D01*
X93335315Y-69564685D01*
X93388609Y-69608423D01*
X93449413Y-69640923D01*
X93515388Y-69660936D01*
X93584000Y-69667694D01*
X94358500Y-69666000D01*
X94446000Y-69578500D01*
X94446000Y-68454000D01*
X93321500Y-68454000D01*
X93234000Y-68541500D01*
X93232306Y-69316000D01*
X90850000Y-69316000D01*
X90850000Y-68452080D01*
X92018080Y-67284000D01*
X93232306Y-67284000D01*
X93234000Y-68058500D01*
X93321500Y-68146000D01*
X94446000Y-68146000D01*
X94446000Y-67021500D01*
X94754000Y-67021500D01*
X94754000Y-68146000D01*
X94774000Y-68146000D01*
X94774000Y-68454000D01*
X94754000Y-68454000D01*
X94754000Y-69578500D01*
X94841500Y-69666000D01*
X95616000Y-69667694D01*
X95684612Y-69660936D01*
X95750587Y-69640923D01*
X95811391Y-69608423D01*
X95864685Y-69564685D01*
X95908423Y-69511391D01*
X95940923Y-69450587D01*
X95955887Y-69401256D01*
X96109860Y-69555229D01*
X96374537Y-69732081D01*
X96668630Y-69853898D01*
X96980838Y-69916000D01*
X97299162Y-69916000D01*
X97611370Y-69853898D01*
X97905463Y-69732081D01*
X98170140Y-69555229D01*
X98395229Y-69330140D01*
X98572081Y-69065463D01*
X98693898Y-68771370D01*
X98756000Y-68459162D01*
X98756000Y-68140838D01*
X98693898Y-67828630D01*
X98572081Y-67534537D01*
X98395229Y-67269860D01*
X98170140Y-67044771D01*
X97905463Y-66867919D01*
X97611370Y-66746102D01*
X97299162Y-66684000D01*
X96980838Y-66684000D01*
X96668630Y-66746102D01*
X96374537Y-66867919D01*
X96109860Y-67044771D01*
X95955887Y-67198744D01*
X95940923Y-67149413D01*
X95908423Y-67088609D01*
X95864685Y-67035315D01*
X95811391Y-66991577D01*
X95750587Y-66959077D01*
X95684612Y-66939064D01*
X95616000Y-66932306D01*
X94841500Y-66934000D01*
X94754000Y-67021500D01*
X94446000Y-67021500D01*
X94358500Y-66934000D01*
X93584000Y-66932306D01*
X93515388Y-66939064D01*
X93449413Y-66959077D01*
X93388609Y-66991577D01*
X93335315Y-67035315D01*
X93291577Y-67088609D01*
X93259077Y-67149413D01*
X93239064Y-67215388D01*
X93232306Y-67284000D01*
X92018080Y-67284000D01*
X108452080Y-50850000D01*
X139347097Y-50850000D01*
X139347097Y-52550000D01*
X139358682Y-52667621D01*
X139392990Y-52780721D01*
X139448704Y-52884955D01*
X139523683Y-52976317D01*
X139615045Y-53051296D01*
X139719279Y-53107010D01*
X139832379Y-53141318D01*
X139950000Y-53152903D01*
X141650000Y-53152903D01*
X141767621Y-53141318D01*
X141880721Y-53107010D01*
X141984955Y-53051296D01*
X142076317Y-52976317D01*
X142151296Y-52884955D01*
X142207010Y-52780721D01*
X142241318Y-52667621D01*
X142252903Y-52550000D01*
X142252903Y-50850000D01*
X142241318Y-50732379D01*
X142207010Y-50619279D01*
X142195202Y-50597187D01*
X143450000Y-50597187D01*
X143450000Y-50882813D01*
X143505723Y-51162949D01*
X143615027Y-51426833D01*
X143773711Y-51664321D01*
X143975679Y-51866289D01*
X144213167Y-52024973D01*
X144477051Y-52134277D01*
X144757187Y-52190000D01*
X145042813Y-52190000D01*
X145322949Y-52134277D01*
X145586833Y-52024973D01*
X145824321Y-51866289D01*
X146026289Y-51664321D01*
X146184973Y-51426833D01*
X146294277Y-51162949D01*
X146350000Y-50882813D01*
X146350000Y-50597187D01*
X146294277Y-50317051D01*
X146184973Y-50053167D01*
X146026289Y-49815679D01*
X145824321Y-49613711D01*
X145586833Y-49455027D01*
X145456100Y-49400876D01*
X145750000Y-49401694D01*
X145818612Y-49394936D01*
X145884587Y-49374923D01*
X145945391Y-49342423D01*
X145998685Y-49298685D01*
X146042423Y-49245391D01*
X146074923Y-49184587D01*
X146094936Y-49118612D01*
X146101694Y-49050000D01*
X146100000Y-48441500D01*
X146012500Y-48354000D01*
X145054000Y-48354000D01*
X145054000Y-48374000D01*
X144746000Y-48374000D01*
X144746000Y-48354000D01*
X143787500Y-48354000D01*
X143700000Y-48441500D01*
X143698306Y-49050000D01*
X143705064Y-49118612D01*
X143725077Y-49184587D01*
X143757577Y-49245391D01*
X143801315Y-49298685D01*
X143854609Y-49342423D01*
X143915413Y-49374923D01*
X143981388Y-49394936D01*
X144050000Y-49401694D01*
X144343900Y-49400876D01*
X144213167Y-49455027D01*
X143975679Y-49613711D01*
X143773711Y-49815679D01*
X143615027Y-50053167D01*
X143505723Y-50317051D01*
X143450000Y-50597187D01*
X142195202Y-50597187D01*
X142151296Y-50515045D01*
X142076317Y-50423683D01*
X141984955Y-50348704D01*
X141880721Y-50292990D01*
X141767621Y-50258682D01*
X141753335Y-50257275D01*
X141926289Y-50084321D01*
X142084973Y-49846833D01*
X142194277Y-49582949D01*
X142250000Y-49302813D01*
X142250000Y-49017187D01*
X142194277Y-48737051D01*
X142084973Y-48473167D01*
X141926289Y-48235679D01*
X141724321Y-48033711D01*
X141486833Y-47875027D01*
X141222949Y-47765723D01*
X140942813Y-47710000D01*
X140657187Y-47710000D01*
X140377051Y-47765723D01*
X140113167Y-47875027D01*
X139875679Y-48033711D01*
X139673711Y-48235679D01*
X139515027Y-48473167D01*
X139405723Y-48737051D01*
X139350000Y-49017187D01*
X139350000Y-49302813D01*
X139405723Y-49582949D01*
X139515027Y-49846833D01*
X139673711Y-50084321D01*
X139846665Y-50257275D01*
X139832379Y-50258682D01*
X139719279Y-50292990D01*
X139615045Y-50348704D01*
X139523683Y-50423683D01*
X139448704Y-50515045D01*
X139392990Y-50619279D01*
X139358682Y-50732379D01*
X139347097Y-50850000D01*
X108452080Y-50850000D01*
X110271520Y-49030561D01*
X110303948Y-49003948D01*
X110410168Y-48874519D01*
X110489097Y-48726855D01*
X110537700Y-48566630D01*
X110542191Y-48521029D01*
X110550000Y-48441749D01*
X110550000Y-48441742D01*
X110554111Y-48400001D01*
X110550000Y-48358260D01*
X110550000Y-47350000D01*
X143698306Y-47350000D01*
X143700000Y-47958500D01*
X143787500Y-48046000D01*
X144746000Y-48046000D01*
X144746000Y-47087500D01*
X145054000Y-47087500D01*
X145054000Y-48046000D01*
X146012500Y-48046000D01*
X146100000Y-47958500D01*
X146101694Y-47350000D01*
X146094936Y-47281388D01*
X146074923Y-47215413D01*
X146042423Y-47154609D01*
X145998685Y-47101315D01*
X145945391Y-47057577D01*
X145884587Y-47025077D01*
X145818612Y-47005064D01*
X145750000Y-46998306D01*
X145141500Y-47000000D01*
X145054000Y-47087500D01*
X144746000Y-47087500D01*
X144658500Y-47000000D01*
X144050000Y-46998306D01*
X143981388Y-47005064D01*
X143915413Y-47025077D01*
X143854609Y-47057577D01*
X143801315Y-47101315D01*
X143757577Y-47154609D01*
X143725077Y-47215413D01*
X143705064Y-47281388D01*
X143698306Y-47350000D01*
X110550000Y-47350000D01*
X110550000Y-45452263D01*
X113500000Y-45452263D01*
X113500000Y-45747737D01*
X113557644Y-46037534D01*
X113670717Y-46310517D01*
X113834874Y-46556194D01*
X114043806Y-46765126D01*
X114289483Y-46929283D01*
X114562466Y-47042356D01*
X114852263Y-47100000D01*
X115147737Y-47100000D01*
X115437534Y-47042356D01*
X115710517Y-46929283D01*
X115956194Y-46765126D01*
X116165126Y-46556194D01*
X116236083Y-46450000D01*
X126100340Y-46450000D01*
X126142081Y-46454111D01*
X126183822Y-46450000D01*
X126183830Y-46450000D01*
X126308710Y-46437700D01*
X126468936Y-46389097D01*
X126616600Y-46310168D01*
X126746029Y-46203948D01*
X126772647Y-46171514D01*
X128111521Y-44832641D01*
X128143948Y-44806029D01*
X128250168Y-44676600D01*
X128329097Y-44528936D01*
X128346021Y-44473145D01*
X128377700Y-44368711D01*
X128381958Y-44325481D01*
X128390000Y-44243830D01*
X128390000Y-44243823D01*
X128394111Y-44202082D01*
X128391442Y-44174985D01*
X128464321Y-44126289D01*
X128666289Y-43924321D01*
X128810000Y-43709242D01*
X128953711Y-43924321D01*
X129155679Y-44126289D01*
X129393167Y-44284973D01*
X129657051Y-44394277D01*
X129937187Y-44450000D01*
X130222813Y-44450000D01*
X130502949Y-44394277D01*
X130766833Y-44284973D01*
X130958078Y-44157187D01*
X140910000Y-44157187D01*
X140910000Y-44442813D01*
X140965723Y-44722949D01*
X141075027Y-44986833D01*
X141233711Y-45224321D01*
X141435679Y-45426289D01*
X141673167Y-45584973D01*
X141937051Y-45694277D01*
X142217187Y-45750000D01*
X142502813Y-45750000D01*
X142782949Y-45694277D01*
X143046833Y-45584973D01*
X143284321Y-45426289D01*
X143457275Y-45253335D01*
X143458682Y-45267621D01*
X143492990Y-45380721D01*
X143548704Y-45484955D01*
X143623683Y-45576317D01*
X143715045Y-45651296D01*
X143819279Y-45707010D01*
X143932379Y-45741318D01*
X144050000Y-45752903D01*
X145750000Y-45752903D01*
X145867621Y-45741318D01*
X145980721Y-45707010D01*
X146084955Y-45651296D01*
X146176317Y-45576317D01*
X146251296Y-45484955D01*
X146307010Y-45380721D01*
X146341318Y-45267621D01*
X146352903Y-45150000D01*
X146352903Y-43450000D01*
X146341318Y-43332379D01*
X146307010Y-43219279D01*
X146251296Y-43115045D01*
X146176317Y-43023683D01*
X146084955Y-42948704D01*
X145980721Y-42892990D01*
X145867621Y-42858682D01*
X145750000Y-42847097D01*
X144050000Y-42847097D01*
X143932379Y-42858682D01*
X143819279Y-42892990D01*
X143715045Y-42948704D01*
X143623683Y-43023683D01*
X143548704Y-43115045D01*
X143492990Y-43219279D01*
X143458682Y-43332379D01*
X143457275Y-43346665D01*
X143284321Y-43173711D01*
X143046833Y-43015027D01*
X142782949Y-42905723D01*
X142502813Y-42850000D01*
X142217187Y-42850000D01*
X141937051Y-42905723D01*
X141673167Y-43015027D01*
X141435679Y-43173711D01*
X141233711Y-43375679D01*
X141075027Y-43613167D01*
X140965723Y-43877051D01*
X140910000Y-44157187D01*
X130958078Y-44157187D01*
X131004321Y-44126289D01*
X131206289Y-43924321D01*
X131364973Y-43686833D01*
X131474277Y-43422949D01*
X131530000Y-43142813D01*
X131530000Y-42857187D01*
X131474277Y-42577051D01*
X131364973Y-42313167D01*
X131206289Y-42075679D01*
X131004321Y-41873711D01*
X130766833Y-41715027D01*
X130502949Y-41605723D01*
X130222813Y-41550000D01*
X129937187Y-41550000D01*
X129657051Y-41605723D01*
X129393167Y-41715027D01*
X129155679Y-41873711D01*
X128953711Y-42075679D01*
X128810000Y-42290758D01*
X128666289Y-42075679D01*
X128464321Y-41873711D01*
X128226833Y-41715027D01*
X127962949Y-41605723D01*
X127682813Y-41550000D01*
X127397187Y-41550000D01*
X127117051Y-41605723D01*
X126853167Y-41715027D01*
X126615679Y-41873711D01*
X126413711Y-42075679D01*
X126255027Y-42313167D01*
X126200876Y-42443900D01*
X126201694Y-42150000D01*
X126194936Y-42081388D01*
X126174923Y-42015413D01*
X126142423Y-41954609D01*
X126098685Y-41901315D01*
X126045391Y-41857577D01*
X125984587Y-41825077D01*
X125918612Y-41805064D01*
X125850000Y-41798306D01*
X125241500Y-41800000D01*
X125154000Y-41887500D01*
X125154000Y-42846000D01*
X125174000Y-42846000D01*
X125174000Y-43154000D01*
X125154000Y-43154000D01*
X125154000Y-44112500D01*
X125241500Y-44200000D01*
X125850000Y-44201694D01*
X125918612Y-44194936D01*
X125984587Y-44174923D01*
X126045391Y-44142423D01*
X126098685Y-44098685D01*
X126142423Y-44045391D01*
X126174923Y-43984587D01*
X126194936Y-43918612D01*
X126201694Y-43850000D01*
X126200876Y-43556100D01*
X126255027Y-43686833D01*
X126413711Y-43924321D01*
X126514695Y-44025305D01*
X125790001Y-44750000D01*
X116236083Y-44750000D01*
X116165126Y-44643806D01*
X115956194Y-44434874D01*
X115710517Y-44270717D01*
X115437534Y-44157644D01*
X115147737Y-44100000D01*
X114852263Y-44100000D01*
X114562466Y-44157644D01*
X114289483Y-44270717D01*
X114043806Y-44434874D01*
X113834874Y-44643806D01*
X113670717Y-44889483D01*
X113557644Y-45162466D01*
X113500000Y-45452263D01*
X110550000Y-45452263D01*
X110550000Y-43850000D01*
X123798306Y-43850000D01*
X123805064Y-43918612D01*
X123825077Y-43984587D01*
X123857577Y-44045391D01*
X123901315Y-44098685D01*
X123954609Y-44142423D01*
X124015413Y-44174923D01*
X124081388Y-44194936D01*
X124150000Y-44201694D01*
X124758500Y-44200000D01*
X124846000Y-44112500D01*
X124846000Y-43154000D01*
X123887500Y-43154000D01*
X123800000Y-43241500D01*
X123798306Y-43850000D01*
X110550000Y-43850000D01*
X110550000Y-43436083D01*
X110656194Y-43365126D01*
X110865126Y-43156194D01*
X111029283Y-42910517D01*
X111142356Y-42637534D01*
X111200000Y-42347737D01*
X111200000Y-42150000D01*
X123798306Y-42150000D01*
X123800000Y-42758500D01*
X123887500Y-42846000D01*
X124846000Y-42846000D01*
X124846000Y-41887500D01*
X124758500Y-41800000D01*
X124150000Y-41798306D01*
X124081388Y-41805064D01*
X124015413Y-41825077D01*
X123954609Y-41857577D01*
X123901315Y-41901315D01*
X123857577Y-41954609D01*
X123825077Y-42015413D01*
X123805064Y-42081388D01*
X123798306Y-42150000D01*
X111200000Y-42150000D01*
X111200000Y-42052263D01*
X111142356Y-41762466D01*
X111029283Y-41489483D01*
X110865126Y-41243806D01*
X110656194Y-41034874D01*
X110410517Y-40870717D01*
X110137534Y-40757644D01*
X109847737Y-40700000D01*
X109552263Y-40700000D01*
X109262466Y-40757644D01*
X108989483Y-40870717D01*
X108743806Y-41034874D01*
X108534874Y-41243806D01*
X108370717Y-41489483D01*
X108257644Y-41762466D01*
X108200000Y-42052263D01*
X108200000Y-42347737D01*
X108257644Y-42637534D01*
X108370717Y-42910517D01*
X108534874Y-43156194D01*
X108743806Y-43365126D01*
X108850000Y-43436083D01*
X108850001Y-48047918D01*
X98169547Y-58728372D01*
X98192356Y-58673307D01*
X98250000Y-58383510D01*
X98250000Y-58088036D01*
X98192356Y-57798239D01*
X98079283Y-57525256D01*
X97915126Y-57279579D01*
X97706194Y-57070647D01*
X97600000Y-56999690D01*
X97600000Y-56352080D01*
X99726997Y-54225083D01*
X99852263Y-54250000D01*
X100147737Y-54250000D01*
X100437534Y-54192356D01*
X100710517Y-54079283D01*
X100956194Y-53915126D01*
X101165126Y-53706194D01*
X101329283Y-53460517D01*
X101442356Y-53187534D01*
X101500000Y-52897737D01*
X101500000Y-52602263D01*
X101442356Y-52312466D01*
X101329283Y-52039483D01*
X101165126Y-51793806D01*
X100956194Y-51584874D01*
X100710517Y-51420717D01*
X100437534Y-51307644D01*
X100147737Y-51250000D01*
X99852263Y-51250000D01*
X99562466Y-51307644D01*
X99289483Y-51420717D01*
X99043806Y-51584874D01*
X98834874Y-51793806D01*
X98670717Y-52039483D01*
X98557644Y-52312466D01*
X98500000Y-52602263D01*
X98500000Y-52897737D01*
X98524917Y-53023003D01*
X96178481Y-55369439D01*
X96146053Y-55396052D01*
X96039833Y-55525481D01*
X96024428Y-55554302D01*
X95960903Y-55673146D01*
X95912300Y-55833371D01*
X95895889Y-56000000D01*
X95900001Y-56041751D01*
X95900001Y-56999690D01*
X95793806Y-57070647D01*
X95584874Y-57279579D01*
X95420717Y-57525256D01*
X95307644Y-57798239D01*
X95250000Y-58088036D01*
X95250000Y-58383510D01*
X95274917Y-58508775D01*
X88733693Y-65050000D01*
X84636081Y-65050000D01*
X84565124Y-64943806D01*
X84356192Y-64734874D01*
X84110515Y-64570717D01*
X83837532Y-64457644D01*
X83547735Y-64400000D01*
X83252261Y-64400000D01*
X82962464Y-64457644D01*
X82689481Y-64570717D01*
X82443804Y-64734874D01*
X82234872Y-64943806D01*
X82070715Y-65189483D01*
X81957642Y-65462466D01*
X81899998Y-65752263D01*
X60325000Y-65752263D01*
X60325000Y-56793168D01*
X64100000Y-56793168D01*
X64100000Y-57206832D01*
X64180702Y-57612547D01*
X64339004Y-57994723D01*
X64568823Y-58338672D01*
X64861328Y-58631177D01*
X65205277Y-58860996D01*
X65587453Y-59019298D01*
X65993168Y-59100000D01*
X66406832Y-59100000D01*
X66812547Y-59019298D01*
X67194723Y-58860996D01*
X67538672Y-58631177D01*
X67831177Y-58338672D01*
X68060996Y-57994723D01*
X68150000Y-57779847D01*
X68150001Y-61963917D01*
X68043806Y-62034874D01*
X67834874Y-62243806D01*
X67670717Y-62489483D01*
X67557644Y-62762466D01*
X67500000Y-63052263D01*
X67500000Y-63347737D01*
X67557644Y-63637534D01*
X67670717Y-63910517D01*
X67834874Y-64156194D01*
X68043806Y-64365126D01*
X68289483Y-64529283D01*
X68562466Y-64642356D01*
X68852263Y-64700000D01*
X69147737Y-64700000D01*
X69437534Y-64642356D01*
X69710517Y-64529283D01*
X69956194Y-64365126D01*
X70165126Y-64156194D01*
X70329283Y-63910517D01*
X70442356Y-63637534D01*
X70500000Y-63347737D01*
X70500000Y-63052263D01*
X70442356Y-62762466D01*
X70329283Y-62489483D01*
X70165126Y-62243806D01*
X69956194Y-62034874D01*
X69850000Y-61963917D01*
X69850000Y-56793168D01*
X73600000Y-56793168D01*
X73600000Y-57206832D01*
X73680702Y-57612547D01*
X73839004Y-57994723D01*
X74068823Y-58338672D01*
X74361328Y-58631177D01*
X74705277Y-58860996D01*
X75087453Y-59019298D01*
X75493168Y-59100000D01*
X75906832Y-59100000D01*
X76312547Y-59019298D01*
X76694723Y-58860996D01*
X77038672Y-58631177D01*
X77331177Y-58338672D01*
X77560996Y-57994723D01*
X77719298Y-57612547D01*
X77800000Y-57206832D01*
X77800000Y-56793168D01*
X77719298Y-56387453D01*
X77560996Y-56005277D01*
X77331177Y-55661328D01*
X77038672Y-55368823D01*
X76694723Y-55139004D01*
X76312547Y-54980702D01*
X75906832Y-54900000D01*
X75493168Y-54900000D01*
X75087453Y-54980702D01*
X74705277Y-55139004D01*
X74361328Y-55368823D01*
X74068823Y-55661328D01*
X73839004Y-56005277D01*
X73680702Y-56387453D01*
X73600000Y-56793168D01*
X69850000Y-56793168D01*
X69850000Y-56744082D01*
X76604793Y-49989290D01*
X76637221Y-49962677D01*
X76743441Y-49833248D01*
X76822370Y-49685584D01*
X76844172Y-49613711D01*
X76870973Y-49525359D01*
X76883153Y-49401694D01*
X76883273Y-49400478D01*
X76883273Y-49400471D01*
X76887384Y-49358730D01*
X76883273Y-49316989D01*
X76883273Y-48802810D01*
X76989467Y-48731853D01*
X77198399Y-48522921D01*
X77362556Y-48277244D01*
X77475629Y-48004261D01*
X77496625Y-47898706D01*
X82850000Y-53252081D01*
X82850001Y-58385450D01*
X82850000Y-58385460D01*
X82850000Y-58463917D01*
X82743806Y-58534874D01*
X82534874Y-58743806D01*
X82370717Y-58989483D01*
X82257644Y-59262466D01*
X82200000Y-59552263D01*
X82200000Y-59847737D01*
X82257644Y-60137534D01*
X82370717Y-60410517D01*
X82534874Y-60656194D01*
X82743806Y-60865126D01*
X82989483Y-61029283D01*
X83262466Y-61142356D01*
X83552263Y-61200000D01*
X83847737Y-61200000D01*
X84137534Y-61142356D01*
X84410517Y-61029283D01*
X84656194Y-60865126D01*
X84865126Y-60656194D01*
X85029283Y-60410517D01*
X85142356Y-60137534D01*
X85200000Y-59847737D01*
X85200000Y-59552263D01*
X85142356Y-59262466D01*
X85029283Y-58989483D01*
X84865126Y-58743806D01*
X84656194Y-58534874D01*
X84550000Y-58463917D01*
X84550000Y-52941741D01*
X84554111Y-52900000D01*
X84550000Y-52858259D01*
X84550000Y-52858251D01*
X84537700Y-52733371D01*
X84489097Y-52573145D01*
X84410168Y-52425481D01*
X84303948Y-52296052D01*
X84271521Y-52269440D01*
X77102081Y-45100000D01*
X85145889Y-45100000D01*
X85150001Y-45141751D01*
X85150000Y-48958259D01*
X85145889Y-49000000D01*
X85150000Y-49041741D01*
X85150000Y-49041748D01*
X85156739Y-49110168D01*
X85162300Y-49166629D01*
X85170027Y-49192101D01*
X85210903Y-49326854D01*
X85289832Y-49474518D01*
X85396052Y-49603948D01*
X85428486Y-49630566D01*
X86424917Y-50626997D01*
X86400000Y-50752263D01*
X86400000Y-51047737D01*
X86457644Y-51337534D01*
X86570717Y-51610517D01*
X86734874Y-51856194D01*
X86943806Y-52065126D01*
X87189483Y-52229283D01*
X87462466Y-52342356D01*
X87752263Y-52400000D01*
X88047737Y-52400000D01*
X88337534Y-52342356D01*
X88610517Y-52229283D01*
X88856194Y-52065126D01*
X89065126Y-51856194D01*
X89229283Y-51610517D01*
X89342356Y-51337534D01*
X89400000Y-51047737D01*
X89400000Y-50752263D01*
X89342356Y-50462466D01*
X89229283Y-50189483D01*
X89065126Y-49943806D01*
X88856194Y-49734874D01*
X88610517Y-49570717D01*
X88337534Y-49457644D01*
X88047737Y-49400000D01*
X87752263Y-49400000D01*
X87626997Y-49424917D01*
X86850000Y-48647920D01*
X86850000Y-47257187D01*
X86910000Y-47257187D01*
X86910000Y-47542813D01*
X86965723Y-47822949D01*
X87075027Y-48086833D01*
X87233711Y-48324321D01*
X87435679Y-48526289D01*
X87673167Y-48684973D01*
X87937051Y-48794277D01*
X88217187Y-48850000D01*
X88502813Y-48850000D01*
X88782949Y-48794277D01*
X89046833Y-48684973D01*
X89284321Y-48526289D01*
X89457275Y-48353335D01*
X89458682Y-48367621D01*
X89492990Y-48480721D01*
X89548704Y-48584955D01*
X89623683Y-48676317D01*
X89715045Y-48751296D01*
X89819279Y-48807010D01*
X89932379Y-48841318D01*
X90050000Y-48852903D01*
X91750000Y-48852903D01*
X91867621Y-48841318D01*
X91980721Y-48807010D01*
X92084955Y-48751296D01*
X92176317Y-48676317D01*
X92251296Y-48584955D01*
X92307010Y-48480721D01*
X92341318Y-48367621D01*
X92352903Y-48250000D01*
X92352903Y-46550000D01*
X92341318Y-46432379D01*
X92307010Y-46319279D01*
X92251296Y-46215045D01*
X92176317Y-46123683D01*
X92084955Y-46048704D01*
X91980721Y-45992990D01*
X91867621Y-45958682D01*
X91750000Y-45947097D01*
X90050000Y-45947097D01*
X89932379Y-45958682D01*
X89819279Y-45992990D01*
X89715045Y-46048704D01*
X89623683Y-46123683D01*
X89548704Y-46215045D01*
X89492990Y-46319279D01*
X89458682Y-46432379D01*
X89457275Y-46446665D01*
X89284321Y-46273711D01*
X89046833Y-46115027D01*
X88782949Y-46005723D01*
X88502813Y-45950000D01*
X88217187Y-45950000D01*
X87937051Y-46005723D01*
X87673167Y-46115027D01*
X87435679Y-46273711D01*
X87233711Y-46475679D01*
X87075027Y-46713167D01*
X86965723Y-46977051D01*
X86910000Y-47257187D01*
X86850000Y-47257187D01*
X86850000Y-45452080D01*
X88952081Y-43350000D01*
X97458259Y-43350000D01*
X97500000Y-43354111D01*
X97541741Y-43350000D01*
X97541749Y-43350000D01*
X97666629Y-43337700D01*
X97826855Y-43289097D01*
X97974519Y-43210168D01*
X98103948Y-43103948D01*
X98130566Y-43071514D01*
X101226998Y-39975083D01*
X101352263Y-40000000D01*
X101647737Y-40000000D01*
X101937534Y-39942356D01*
X102210517Y-39829283D01*
X102456194Y-39665126D01*
X102665126Y-39456194D01*
X102829283Y-39210517D01*
X102942356Y-38937534D01*
X103000000Y-38647737D01*
X103000000Y-38450001D01*
X124447920Y-38450001D01*
X125024916Y-39026998D01*
X124999999Y-39152263D01*
X124999999Y-39447737D01*
X125057643Y-39737534D01*
X125170716Y-40010517D01*
X125334873Y-40256194D01*
X125543805Y-40465126D01*
X125789482Y-40629283D01*
X126062465Y-40742356D01*
X126352262Y-40800000D01*
X126647736Y-40800000D01*
X126937533Y-40742356D01*
X127210516Y-40629283D01*
X127456193Y-40465126D01*
X127665125Y-40256194D01*
X127829282Y-40010517D01*
X127942355Y-39737534D01*
X127999999Y-39447737D01*
X127999999Y-39152263D01*
X127942355Y-38862466D01*
X127829282Y-38589483D01*
X127665125Y-38343806D01*
X127456193Y-38134874D01*
X127210516Y-37970717D01*
X126937533Y-37857644D01*
X126647736Y-37800000D01*
X126352262Y-37800000D01*
X126226997Y-37824917D01*
X125430566Y-37028487D01*
X125403948Y-36996053D01*
X125274519Y-36889833D01*
X125126855Y-36810904D01*
X124966629Y-36762301D01*
X124841749Y-36750001D01*
X124841741Y-36750001D01*
X124800000Y-36745890D01*
X124758259Y-36750001D01*
X102441740Y-36750001D01*
X102399999Y-36745890D01*
X102358258Y-36750001D01*
X102358250Y-36750001D01*
X102233370Y-36762301D01*
X102073144Y-36810904D01*
X101925480Y-36889833D01*
X101796051Y-36996053D01*
X101772453Y-37024807D01*
X101647737Y-37000000D01*
X101352263Y-37000000D01*
X101062466Y-37057644D01*
X100789483Y-37170717D01*
X100543806Y-37334874D01*
X100334874Y-37543806D01*
X100170717Y-37789483D01*
X100057644Y-38062466D01*
X100000000Y-38352263D01*
X100000000Y-38647737D01*
X100024917Y-38773002D01*
X97147920Y-41650000D01*
X88641740Y-41650000D01*
X88599999Y-41645889D01*
X88558258Y-41650000D01*
X88558251Y-41650000D01*
X88449013Y-41660759D01*
X88433370Y-41662300D01*
X88273145Y-41710903D01*
X88125481Y-41789832D01*
X87996052Y-41896052D01*
X87969439Y-41928480D01*
X85428481Y-44469439D01*
X85396053Y-44496052D01*
X85369440Y-44528480D01*
X85369439Y-44528481D01*
X85369066Y-44528936D01*
X85289833Y-44625481D01*
X85285616Y-44633371D01*
X85210903Y-44773146D01*
X85162300Y-44933371D01*
X85145889Y-45100000D01*
X77102081Y-45100000D01*
X76230566Y-44228486D01*
X76203948Y-44196052D01*
X76074519Y-44089832D01*
X75926855Y-44010903D01*
X75766629Y-43962300D01*
X75641749Y-43950000D01*
X75641741Y-43950000D01*
X75600000Y-43945889D01*
X75558259Y-43950000D01*
X72136083Y-43950000D01*
X72065126Y-43843806D01*
X71856194Y-43634874D01*
X71610517Y-43470717D01*
X71337534Y-43357644D01*
X71047737Y-43300000D01*
X70752263Y-43300000D01*
X70462466Y-43357644D01*
X70189483Y-43470717D01*
X69943806Y-43634874D01*
X69734874Y-43843806D01*
X69570717Y-44089483D01*
X69457644Y-44362466D01*
X69400000Y-44652263D01*
X69400000Y-44947737D01*
X69457644Y-45237534D01*
X69570717Y-45510517D01*
X69734874Y-45756194D01*
X69903680Y-45925000D01*
X69784874Y-46043806D01*
X69700000Y-46170828D01*
X69615126Y-46043806D01*
X69406194Y-45834874D01*
X69160517Y-45670717D01*
X68887534Y-45557644D01*
X68597737Y-45500000D01*
X68302263Y-45500000D01*
X68012466Y-45557644D01*
X67739483Y-45670717D01*
X67493806Y-45834874D01*
X67284874Y-46043806D01*
X67120717Y-46289483D01*
X67007644Y-46562466D01*
X66950000Y-46852263D01*
X66950000Y-47147737D01*
X67007644Y-47437534D01*
X67120717Y-47710517D01*
X67284874Y-47956194D01*
X67493806Y-48165126D01*
X67620828Y-48250000D01*
X67493806Y-48334874D01*
X67284874Y-48543806D01*
X67120717Y-48789483D01*
X67007644Y-49062466D01*
X66950000Y-49352263D01*
X66950000Y-49647737D01*
X67007644Y-49937534D01*
X67120717Y-50210517D01*
X67284874Y-50456194D01*
X67493806Y-50665126D01*
X67739483Y-50829283D01*
X68012466Y-50942356D01*
X68302263Y-51000000D01*
X68597737Y-51000000D01*
X68887534Y-50942356D01*
X69160517Y-50829283D01*
X69406194Y-50665126D01*
X69615126Y-50456194D01*
X69700000Y-50329172D01*
X69784874Y-50456194D01*
X69993806Y-50665126D01*
X70239483Y-50829283D01*
X70512466Y-50942356D01*
X70802263Y-51000000D01*
X71097737Y-51000000D01*
X71387534Y-50942356D01*
X71660517Y-50829283D01*
X71906194Y-50665126D01*
X72115126Y-50456194D01*
X72200000Y-50329172D01*
X72284874Y-50456194D01*
X72493806Y-50665126D01*
X72739483Y-50829283D01*
X73012466Y-50942356D01*
X73208560Y-50981361D01*
X68428486Y-55761436D01*
X68396052Y-55788054D01*
X68289832Y-55917484D01*
X68210903Y-56065148D01*
X68162300Y-56225374D01*
X68160353Y-56245146D01*
X68060996Y-56005277D01*
X67831177Y-55661328D01*
X67538672Y-55368823D01*
X67194723Y-55139004D01*
X66812547Y-54980702D01*
X66406832Y-54900000D01*
X65993168Y-54900000D01*
X65587453Y-54980702D01*
X65205277Y-55139004D01*
X64861328Y-55368823D01*
X64568823Y-55661328D01*
X64339004Y-56005277D01*
X64180702Y-56387453D01*
X64100000Y-56793168D01*
X60325000Y-56793168D01*
X60325000Y-40100000D01*
X70000000Y-40100000D01*
X70019509Y-40098079D01*
X70038268Y-40092388D01*
X70055557Y-40083147D01*
X70070711Y-40070711D01*
X70083147Y-40055557D01*
X70092388Y-40038268D01*
X70098079Y-40019509D01*
X70100000Y-40000000D01*
X70100000Y-34292620D01*
X129585168Y-34292620D01*
X129732061Y-34501561D01*
X130021400Y-34636153D01*
X130331438Y-34711712D01*
X130650260Y-34725334D01*
X130965612Y-34676495D01*
X131265377Y-34567071D01*
X131387939Y-34501561D01*
X131534832Y-34292620D01*
X130560000Y-33317789D01*
X129585168Y-34292620D01*
X70100000Y-34292620D01*
X70100000Y-33190260D01*
X128934666Y-33190260D01*
X128983505Y-33505612D01*
X129092929Y-33805377D01*
X129158439Y-33927939D01*
X129367380Y-34074832D01*
X130342211Y-33100000D01*
X130777789Y-33100000D01*
X131752620Y-34074832D01*
X131961561Y-33927939D01*
X132096153Y-33638600D01*
X132171712Y-33328562D01*
X132185334Y-33009740D01*
X132136495Y-32694388D01*
X132027071Y-32394623D01*
X131961561Y-32272061D01*
X131752620Y-32125168D01*
X130777789Y-33100000D01*
X130342211Y-33100000D01*
X129367380Y-32125168D01*
X129158439Y-32272061D01*
X129023847Y-32561400D01*
X128948288Y-32871438D01*
X128934666Y-33190260D01*
X70100000Y-33190260D01*
X70100000Y-31907380D01*
X129585168Y-31907380D01*
X130560000Y-32882211D01*
X131534832Y-31907380D01*
X131480432Y-31830000D01*
X133767097Y-31830000D01*
X133767097Y-34370000D01*
X133778682Y-34487621D01*
X133812990Y-34600721D01*
X133868704Y-34704955D01*
X133943683Y-34796317D01*
X134035045Y-34871296D01*
X134139279Y-34927010D01*
X134252379Y-34961318D01*
X134370000Y-34972903D01*
X136910000Y-34972903D01*
X137027621Y-34961318D01*
X137140721Y-34927010D01*
X137244955Y-34871296D01*
X137336317Y-34796317D01*
X137411296Y-34704955D01*
X137467010Y-34600721D01*
X137501318Y-34487621D01*
X137512903Y-34370000D01*
X137512903Y-31830000D01*
X137501318Y-31712379D01*
X137467010Y-31599279D01*
X137411296Y-31495045D01*
X137336317Y-31403683D01*
X137244955Y-31328704D01*
X137140721Y-31272990D01*
X137027621Y-31238682D01*
X136910000Y-31227097D01*
X134370000Y-31227097D01*
X134252379Y-31238682D01*
X134139279Y-31272990D01*
X134035045Y-31328704D01*
X133943683Y-31403683D01*
X133868704Y-31495045D01*
X133812990Y-31599279D01*
X133778682Y-31712379D01*
X133767097Y-31830000D01*
X131480432Y-31830000D01*
X131387939Y-31698439D01*
X131098600Y-31563847D01*
X130788562Y-31488288D01*
X130469740Y-31474666D01*
X130154388Y-31523505D01*
X129854623Y-31632929D01*
X129732061Y-31698439D01*
X129585168Y-31907380D01*
X70100000Y-31907380D01*
X70100000Y-30325000D01*
X139900000Y-30325000D01*
X139900000Y-40025051D01*
G37*
G04 #@! TD.AperFunction*
M02*
