G04 #@! TF.GenerationSoftware,KiCad,Pcbnew,(5.1.9)-1*
G04 #@! TF.CreationDate,2021-04-11T12:34:01+02:00*
G04 #@! TF.ProjectId,bab_top,6261625f-746f-4702-9e6b-696361645f70,rev?*
G04 #@! TF.SameCoordinates,Original*
G04 #@! TF.FileFunction,Soldermask,Bot*
G04 #@! TF.FilePolarity,Negative*
%FSLAX46Y46*%
G04 Gerber Fmt 4.6, Leading zero omitted, Abs format (unit mm)*
G04 Created by KiCad (PCBNEW (5.1.9)-1) date 2021-04-11 12:34:01*
%MOMM*%
%LPD*%
G01*
G04 APERTURE LIST*
%ADD10C,0.100000*%
%ADD11C,0.150000*%
%ADD12C,0.300000*%
%ADD13C,0.400000*%
G04 #@! TA.AperFunction,Profile*
%ADD14C,0.150000*%
G04 #@! TD*
%ADD15O,2.127200X2.432000*%
%ADD16C,2.940000*%
%ADD17C,2.200000*%
%ADD18C,3.400000*%
%ADD19O,2.432000X2.432000*%
%ADD20O,2.100000X2.100000*%
%ADD21C,2.800000*%
G04 APERTURE END LIST*
D10*
D11*
X177002200Y-166007200D02*
X177002200Y-198007200D01*
X285002200Y-198007200D01*
X285002200Y-166007200D01*
X177002200Y-166007200D01*
D10*
D11*
X10000000Y-10000000D02*
X10000000Y-200007200D01*
X287002200Y-200007200D01*
X287002200Y-10000000D01*
X10000000Y-10000000D01*
D10*
D11*
X12000000Y-12000000D02*
X12000000Y-198007200D01*
X285002200Y-198007200D01*
X285002200Y-12000000D01*
X12000000Y-12000000D01*
D10*
D11*
X60000000Y-12000000D02*
X60000000Y-10000000D01*
D10*
D11*
X110000000Y-12000000D02*
X110000000Y-10000000D01*
D10*
D11*
X160000000Y-12000000D02*
X160000000Y-10000000D01*
D10*
D11*
X210000000Y-12000000D02*
X210000000Y-10000000D01*
D10*
D11*
X260000000Y-12000000D02*
X260000000Y-10000000D01*
D10*
D11*
X36065476Y-11588095D02*
X35322619Y-11588095D01*
X35694047Y-11588095D02*
X35694047Y-10288095D01*
X35570238Y-10473809D01*
X35446428Y-10597619D01*
X35322619Y-10659523D01*
D10*
D11*
X85322619Y-10411904D02*
X85384523Y-10350000D01*
X85508333Y-10288095D01*
X85817857Y-10288095D01*
X85941666Y-10350000D01*
X86003571Y-10411904D01*
X86065476Y-10535714D01*
X86065476Y-10659523D01*
X86003571Y-10845238D01*
X85260714Y-11588095D01*
X86065476Y-11588095D01*
D10*
D11*
X135260714Y-10288095D02*
X136065476Y-10288095D01*
X135632142Y-10783333D01*
X135817857Y-10783333D01*
X135941666Y-10845238D01*
X136003571Y-10907142D01*
X136065476Y-11030952D01*
X136065476Y-11340476D01*
X136003571Y-11464285D01*
X135941666Y-11526190D01*
X135817857Y-11588095D01*
X135446428Y-11588095D01*
X135322619Y-11526190D01*
X135260714Y-11464285D01*
D10*
D11*
X185941666Y-10721428D02*
X185941666Y-11588095D01*
X185632142Y-10226190D02*
X185322619Y-11154761D01*
X186127380Y-11154761D01*
D10*
D11*
X236003571Y-10288095D02*
X235384523Y-10288095D01*
X235322619Y-10907142D01*
X235384523Y-10845238D01*
X235508333Y-10783333D01*
X235817857Y-10783333D01*
X235941666Y-10845238D01*
X236003571Y-10907142D01*
X236065476Y-11030952D01*
X236065476Y-11340476D01*
X236003571Y-11464285D01*
X235941666Y-11526190D01*
X235817857Y-11588095D01*
X235508333Y-11588095D01*
X235384523Y-11526190D01*
X235322619Y-11464285D01*
D10*
D11*
X285941666Y-10288095D02*
X285694047Y-10288095D01*
X285570238Y-10350000D01*
X285508333Y-10411904D01*
X285384523Y-10597619D01*
X285322619Y-10845238D01*
X285322619Y-11340476D01*
X285384523Y-11464285D01*
X285446428Y-11526190D01*
X285570238Y-11588095D01*
X285817857Y-11588095D01*
X285941666Y-11526190D01*
X286003571Y-11464285D01*
X286065476Y-11340476D01*
X286065476Y-11030952D01*
X286003571Y-10907142D01*
X285941666Y-10845238D01*
X285817857Y-10783333D01*
X285570238Y-10783333D01*
X285446428Y-10845238D01*
X285384523Y-10907142D01*
X285322619Y-11030952D01*
D10*
D11*
X60000000Y-198007200D02*
X60000000Y-200007200D01*
D10*
D11*
X110000000Y-198007200D02*
X110000000Y-200007200D01*
D10*
D11*
X160000000Y-198007200D02*
X160000000Y-200007200D01*
D10*
D11*
X210000000Y-198007200D02*
X210000000Y-200007200D01*
D10*
D11*
X260000000Y-198007200D02*
X260000000Y-200007200D01*
D10*
D11*
X36065476Y-199595295D02*
X35322619Y-199595295D01*
X35694047Y-199595295D02*
X35694047Y-198295295D01*
X35570238Y-198481009D01*
X35446428Y-198604819D01*
X35322619Y-198666723D01*
D10*
D11*
X85322619Y-198419104D02*
X85384523Y-198357200D01*
X85508333Y-198295295D01*
X85817857Y-198295295D01*
X85941666Y-198357200D01*
X86003571Y-198419104D01*
X86065476Y-198542914D01*
X86065476Y-198666723D01*
X86003571Y-198852438D01*
X85260714Y-199595295D01*
X86065476Y-199595295D01*
D10*
D11*
X135260714Y-198295295D02*
X136065476Y-198295295D01*
X135632142Y-198790533D01*
X135817857Y-198790533D01*
X135941666Y-198852438D01*
X136003571Y-198914342D01*
X136065476Y-199038152D01*
X136065476Y-199347676D01*
X136003571Y-199471485D01*
X135941666Y-199533390D01*
X135817857Y-199595295D01*
X135446428Y-199595295D01*
X135322619Y-199533390D01*
X135260714Y-199471485D01*
D10*
D11*
X185941666Y-198728628D02*
X185941666Y-199595295D01*
X185632142Y-198233390D02*
X185322619Y-199161961D01*
X186127380Y-199161961D01*
D10*
D11*
X236003571Y-198295295D02*
X235384523Y-198295295D01*
X235322619Y-198914342D01*
X235384523Y-198852438D01*
X235508333Y-198790533D01*
X235817857Y-198790533D01*
X235941666Y-198852438D01*
X236003571Y-198914342D01*
X236065476Y-199038152D01*
X236065476Y-199347676D01*
X236003571Y-199471485D01*
X235941666Y-199533390D01*
X235817857Y-199595295D01*
X235508333Y-199595295D01*
X235384523Y-199533390D01*
X235322619Y-199471485D01*
D10*
D11*
X285941666Y-198295295D02*
X285694047Y-198295295D01*
X285570238Y-198357200D01*
X285508333Y-198419104D01*
X285384523Y-198604819D01*
X285322619Y-198852438D01*
X285322619Y-199347676D01*
X285384523Y-199471485D01*
X285446428Y-199533390D01*
X285570238Y-199595295D01*
X285817857Y-199595295D01*
X285941666Y-199533390D01*
X286003571Y-199471485D01*
X286065476Y-199347676D01*
X286065476Y-199038152D01*
X286003571Y-198914342D01*
X285941666Y-198852438D01*
X285817857Y-198790533D01*
X285570238Y-198790533D01*
X285446428Y-198852438D01*
X285384523Y-198914342D01*
X285322619Y-199038152D01*
D10*
D11*
X10000000Y-60000000D02*
X12000000Y-60000000D01*
D10*
D11*
X10000000Y-110000000D02*
X12000000Y-110000000D01*
D10*
D11*
X10000000Y-160000000D02*
X12000000Y-160000000D01*
D10*
D11*
X10690476Y-35216666D02*
X11309523Y-35216666D01*
X10566666Y-35588095D02*
X11000000Y-34288095D01*
X11433333Y-35588095D01*
D10*
D11*
X11092857Y-84907142D02*
X11278571Y-84969047D01*
X11340476Y-85030952D01*
X11402380Y-85154761D01*
X11402380Y-85340476D01*
X11340476Y-85464285D01*
X11278571Y-85526190D01*
X11154761Y-85588095D01*
X10659523Y-85588095D01*
X10659523Y-84288095D01*
X11092857Y-84288095D01*
X11216666Y-84350000D01*
X11278571Y-84411904D01*
X11340476Y-84535714D01*
X11340476Y-84659523D01*
X11278571Y-84783333D01*
X11216666Y-84845238D01*
X11092857Y-84907142D01*
X10659523Y-84907142D01*
D10*
D11*
X11402380Y-135464285D02*
X11340476Y-135526190D01*
X11154761Y-135588095D01*
X11030952Y-135588095D01*
X10845238Y-135526190D01*
X10721428Y-135402380D01*
X10659523Y-135278571D01*
X10597619Y-135030952D01*
X10597619Y-134845238D01*
X10659523Y-134597619D01*
X10721428Y-134473809D01*
X10845238Y-134350000D01*
X11030952Y-134288095D01*
X11154761Y-134288095D01*
X11340476Y-134350000D01*
X11402380Y-134411904D01*
D10*
D11*
X10659523Y-185588095D02*
X10659523Y-184288095D01*
X10969047Y-184288095D01*
X11154761Y-184350000D01*
X11278571Y-184473809D01*
X11340476Y-184597619D01*
X11402380Y-184845238D01*
X11402380Y-185030952D01*
X11340476Y-185278571D01*
X11278571Y-185402380D01*
X11154761Y-185526190D01*
X10969047Y-185588095D01*
X10659523Y-185588095D01*
D10*
D11*
X287002200Y-60000000D02*
X285002200Y-60000000D01*
D10*
D11*
X287002200Y-110000000D02*
X285002200Y-110000000D01*
D10*
D11*
X287002200Y-160000000D02*
X285002200Y-160000000D01*
D10*
D11*
X285692676Y-35216666D02*
X286311723Y-35216666D01*
X285568866Y-35588095D02*
X286002200Y-34288095D01*
X286435533Y-35588095D01*
D10*
D11*
X286095057Y-84907142D02*
X286280771Y-84969047D01*
X286342676Y-85030952D01*
X286404580Y-85154761D01*
X286404580Y-85340476D01*
X286342676Y-85464285D01*
X286280771Y-85526190D01*
X286156961Y-85588095D01*
X285661723Y-85588095D01*
X285661723Y-84288095D01*
X286095057Y-84288095D01*
X286218866Y-84350000D01*
X286280771Y-84411904D01*
X286342676Y-84535714D01*
X286342676Y-84659523D01*
X286280771Y-84783333D01*
X286218866Y-84845238D01*
X286095057Y-84907142D01*
X285661723Y-84907142D01*
D10*
D11*
X286404580Y-135464285D02*
X286342676Y-135526190D01*
X286156961Y-135588095D01*
X286033152Y-135588095D01*
X285847438Y-135526190D01*
X285723628Y-135402380D01*
X285661723Y-135278571D01*
X285599819Y-135030952D01*
X285599819Y-134845238D01*
X285661723Y-134597619D01*
X285723628Y-134473809D01*
X285847438Y-134350000D01*
X286033152Y-134288095D01*
X286156961Y-134288095D01*
X286342676Y-134350000D01*
X286404580Y-134411904D01*
D10*
D11*
X285661723Y-185588095D02*
X285661723Y-184288095D01*
X285971247Y-184288095D01*
X286156961Y-184350000D01*
X286280771Y-184473809D01*
X286342676Y-184597619D01*
X286404580Y-184845238D01*
X286404580Y-185030952D01*
X286342676Y-185278571D01*
X286280771Y-185402380D01*
X286156961Y-185526190D01*
X285971247Y-185588095D01*
X285661723Y-185588095D01*
D10*
D11*
X200434342Y-193785771D02*
X200434342Y-192285771D01*
X200791485Y-192285771D01*
X201005771Y-192357200D01*
X201148628Y-192500057D01*
X201220057Y-192642914D01*
X201291485Y-192928628D01*
X201291485Y-193142914D01*
X201220057Y-193428628D01*
X201148628Y-193571485D01*
X201005771Y-193714342D01*
X200791485Y-193785771D01*
X200434342Y-193785771D01*
X202577200Y-193785771D02*
X202577200Y-193000057D01*
X202505771Y-192857200D01*
X202362914Y-192785771D01*
X202077200Y-192785771D01*
X201934342Y-192857200D01*
X202577200Y-193714342D02*
X202434342Y-193785771D01*
X202077200Y-193785771D01*
X201934342Y-193714342D01*
X201862914Y-193571485D01*
X201862914Y-193428628D01*
X201934342Y-193285771D01*
X202077200Y-193214342D01*
X202434342Y-193214342D01*
X202577200Y-193142914D01*
X203077200Y-192785771D02*
X203648628Y-192785771D01*
X203291485Y-192285771D02*
X203291485Y-193571485D01*
X203362914Y-193714342D01*
X203505771Y-193785771D01*
X203648628Y-193785771D01*
X204720057Y-193714342D02*
X204577200Y-193785771D01*
X204291485Y-193785771D01*
X204148628Y-193714342D01*
X204077200Y-193571485D01*
X204077200Y-193000057D01*
X204148628Y-192857200D01*
X204291485Y-192785771D01*
X204577200Y-192785771D01*
X204720057Y-192857200D01*
X204791485Y-193000057D01*
X204791485Y-193142914D01*
X204077200Y-193285771D01*
X205434342Y-193642914D02*
X205505771Y-193714342D01*
X205434342Y-193785771D01*
X205362914Y-193714342D01*
X205434342Y-193642914D01*
X205434342Y-193785771D01*
X205434342Y-192857200D02*
X205505771Y-192928628D01*
X205434342Y-193000057D01*
X205362914Y-192928628D01*
X205434342Y-192857200D01*
X205434342Y-193000057D01*
D10*
D11*
X177002200Y-194507200D02*
X285002200Y-194507200D01*
D10*
D11*
X178434342Y-196585771D02*
X178434342Y-195085771D01*
X179291485Y-196585771D02*
X178648628Y-195728628D01*
X179291485Y-195085771D02*
X178434342Y-195942914D01*
X179934342Y-196585771D02*
X179934342Y-195585771D01*
X179934342Y-195085771D02*
X179862914Y-195157200D01*
X179934342Y-195228628D01*
X180005771Y-195157200D01*
X179934342Y-195085771D01*
X179934342Y-195228628D01*
X181505771Y-196442914D02*
X181434342Y-196514342D01*
X181220057Y-196585771D01*
X181077200Y-196585771D01*
X180862914Y-196514342D01*
X180720057Y-196371485D01*
X180648628Y-196228628D01*
X180577200Y-195942914D01*
X180577200Y-195728628D01*
X180648628Y-195442914D01*
X180720057Y-195300057D01*
X180862914Y-195157200D01*
X181077200Y-195085771D01*
X181220057Y-195085771D01*
X181434342Y-195157200D01*
X181505771Y-195228628D01*
X182791485Y-196585771D02*
X182791485Y-195800057D01*
X182720057Y-195657200D01*
X182577200Y-195585771D01*
X182291485Y-195585771D01*
X182148628Y-195657200D01*
X182791485Y-196514342D02*
X182648628Y-196585771D01*
X182291485Y-196585771D01*
X182148628Y-196514342D01*
X182077200Y-196371485D01*
X182077200Y-196228628D01*
X182148628Y-196085771D01*
X182291485Y-196014342D01*
X182648628Y-196014342D01*
X182791485Y-195942914D01*
X184148628Y-196585771D02*
X184148628Y-195085771D01*
X184148628Y-196514342D02*
X184005771Y-196585771D01*
X183720057Y-196585771D01*
X183577200Y-196514342D01*
X183505771Y-196442914D01*
X183434342Y-196300057D01*
X183434342Y-195871485D01*
X183505771Y-195728628D01*
X183577200Y-195657200D01*
X183720057Y-195585771D01*
X184005771Y-195585771D01*
X184148628Y-195657200D01*
X186005771Y-195800057D02*
X186505771Y-195800057D01*
X186720057Y-196585771D02*
X186005771Y-196585771D01*
X186005771Y-195085771D01*
X186720057Y-195085771D01*
X187362914Y-196442914D02*
X187434342Y-196514342D01*
X187362914Y-196585771D01*
X187291485Y-196514342D01*
X187362914Y-196442914D01*
X187362914Y-196585771D01*
X188077200Y-196585771D02*
X188077200Y-195085771D01*
X188434342Y-195085771D01*
X188648628Y-195157200D01*
X188791485Y-195300057D01*
X188862914Y-195442914D01*
X188934342Y-195728628D01*
X188934342Y-195942914D01*
X188862914Y-196228628D01*
X188791485Y-196371485D01*
X188648628Y-196514342D01*
X188434342Y-196585771D01*
X188077200Y-196585771D01*
X189577200Y-196442914D02*
X189648628Y-196514342D01*
X189577200Y-196585771D01*
X189505771Y-196514342D01*
X189577200Y-196442914D01*
X189577200Y-196585771D01*
X190220057Y-196157200D02*
X190934342Y-196157200D01*
X190077200Y-196585771D02*
X190577200Y-195085771D01*
X191077200Y-196585771D01*
X191577200Y-196442914D02*
X191648628Y-196514342D01*
X191577200Y-196585771D01*
X191505771Y-196514342D01*
X191577200Y-196442914D01*
X191577200Y-196585771D01*
X194577200Y-196585771D02*
X194577200Y-195085771D01*
X194720057Y-196014342D02*
X195148628Y-196585771D01*
X195148628Y-195585771D02*
X194577200Y-196157200D01*
X195791485Y-196585771D02*
X195791485Y-195585771D01*
X195791485Y-195085771D02*
X195720057Y-195157200D01*
X195791485Y-195228628D01*
X195862914Y-195157200D01*
X195791485Y-195085771D01*
X195791485Y-195228628D01*
X197148628Y-196514342D02*
X197005771Y-196585771D01*
X196720057Y-196585771D01*
X196577200Y-196514342D01*
X196505771Y-196442914D01*
X196434342Y-196300057D01*
X196434342Y-195871485D01*
X196505771Y-195728628D01*
X196577200Y-195657200D01*
X196720057Y-195585771D01*
X197005771Y-195585771D01*
X197148628Y-195657200D01*
X198434342Y-196585771D02*
X198434342Y-195800057D01*
X198362914Y-195657200D01*
X198220057Y-195585771D01*
X197934342Y-195585771D01*
X197791485Y-195657200D01*
X198434342Y-196514342D02*
X198291485Y-196585771D01*
X197934342Y-196585771D01*
X197791485Y-196514342D01*
X197720057Y-196371485D01*
X197720057Y-196228628D01*
X197791485Y-196085771D01*
X197934342Y-196014342D01*
X198291485Y-196014342D01*
X198434342Y-195942914D01*
X199791485Y-196585771D02*
X199791485Y-195085771D01*
X199791485Y-196514342D02*
X199648628Y-196585771D01*
X199362914Y-196585771D01*
X199220057Y-196514342D01*
X199148628Y-196442914D01*
X199077200Y-196300057D01*
X199077200Y-195871485D01*
X199148628Y-195728628D01*
X199220057Y-195657200D01*
X199362914Y-195585771D01*
X199648628Y-195585771D01*
X199791485Y-195657200D01*
X202077200Y-197157200D02*
X202005771Y-197085771D01*
X201862914Y-196871485D01*
X201791485Y-196728628D01*
X201720057Y-196514342D01*
X201648628Y-196157200D01*
X201648628Y-195871485D01*
X201720057Y-195514342D01*
X201791485Y-195300057D01*
X201862914Y-195157200D01*
X202005771Y-194942914D01*
X202077200Y-194871485D01*
X203362914Y-195085771D02*
X202648628Y-195085771D01*
X202577200Y-195800057D01*
X202648628Y-195728628D01*
X202791485Y-195657200D01*
X203148628Y-195657200D01*
X203291485Y-195728628D01*
X203362914Y-195800057D01*
X203434342Y-195942914D01*
X203434342Y-196300057D01*
X203362914Y-196442914D01*
X203291485Y-196514342D01*
X203148628Y-196585771D01*
X202791485Y-196585771D01*
X202648628Y-196514342D01*
X202577200Y-196442914D01*
X204077200Y-196442914D02*
X204148628Y-196514342D01*
X204077200Y-196585771D01*
X204005771Y-196514342D01*
X204077200Y-196442914D01*
X204077200Y-196585771D01*
X205577200Y-196585771D02*
X204720057Y-196585771D01*
X205148628Y-196585771D02*
X205148628Y-195085771D01*
X205005771Y-195300057D01*
X204862914Y-195442914D01*
X204720057Y-195514342D01*
X206220057Y-196442914D02*
X206291485Y-196514342D01*
X206220057Y-196585771D01*
X206148628Y-196514342D01*
X206220057Y-196442914D01*
X206220057Y-196585771D01*
X207005771Y-196585771D02*
X207291485Y-196585771D01*
X207434342Y-196514342D01*
X207505771Y-196442914D01*
X207648628Y-196228628D01*
X207720057Y-195942914D01*
X207720057Y-195371485D01*
X207648628Y-195228628D01*
X207577200Y-195157200D01*
X207434342Y-195085771D01*
X207148628Y-195085771D01*
X207005771Y-195157200D01*
X206934342Y-195228628D01*
X206862914Y-195371485D01*
X206862914Y-195728628D01*
X206934342Y-195871485D01*
X207005771Y-195942914D01*
X207148628Y-196014342D01*
X207434342Y-196014342D01*
X207577200Y-195942914D01*
X207648628Y-195871485D01*
X207720057Y-195728628D01*
X208220057Y-197157200D02*
X208291485Y-197085771D01*
X208434342Y-196871485D01*
X208505771Y-196728628D01*
X208577200Y-196514342D01*
X208648628Y-196157200D01*
X208648628Y-195871485D01*
X208577200Y-195514342D01*
X208505771Y-195300057D01*
X208434342Y-195157200D01*
X208291485Y-194942914D01*
X208220057Y-194871485D01*
X209362914Y-196014342D02*
X210505771Y-196014342D01*
X212005771Y-196585771D02*
X211148628Y-196585771D01*
X211577200Y-196585771D02*
X211577200Y-195085771D01*
X211434342Y-195300057D01*
X211291485Y-195442914D01*
X211148628Y-195514342D01*
D10*
D11*
X177002200Y-191507200D02*
X285002200Y-191507200D01*
D10*
D12*
X264411485Y-193785771D02*
X263911485Y-193071485D01*
X263554342Y-193785771D02*
X263554342Y-192285771D01*
X264125771Y-192285771D01*
X264268628Y-192357200D01*
X264340057Y-192428628D01*
X264411485Y-192571485D01*
X264411485Y-192785771D01*
X264340057Y-192928628D01*
X264268628Y-193000057D01*
X264125771Y-193071485D01*
X263554342Y-193071485D01*
X265625771Y-193714342D02*
X265482914Y-193785771D01*
X265197200Y-193785771D01*
X265054342Y-193714342D01*
X264982914Y-193571485D01*
X264982914Y-193000057D01*
X265054342Y-192857200D01*
X265197200Y-192785771D01*
X265482914Y-192785771D01*
X265625771Y-192857200D01*
X265697200Y-193000057D01*
X265697200Y-193142914D01*
X264982914Y-193285771D01*
X266197200Y-192785771D02*
X266554342Y-193785771D01*
X266911485Y-192785771D01*
X267482914Y-193642914D02*
X267554342Y-193714342D01*
X267482914Y-193785771D01*
X267411485Y-193714342D01*
X267482914Y-193642914D01*
X267482914Y-193785771D01*
X267482914Y-192857200D02*
X267554342Y-192928628D01*
X267482914Y-193000057D01*
X267411485Y-192928628D01*
X267482914Y-192857200D01*
X267482914Y-193000057D01*
D10*
D11*
X178362914Y-193714342D02*
X178577200Y-193785771D01*
X178934342Y-193785771D01*
X179077200Y-193714342D01*
X179148628Y-193642914D01*
X179220057Y-193500057D01*
X179220057Y-193357200D01*
X179148628Y-193214342D01*
X179077200Y-193142914D01*
X178934342Y-193071485D01*
X178648628Y-193000057D01*
X178505771Y-192928628D01*
X178434342Y-192857200D01*
X178362914Y-192714342D01*
X178362914Y-192571485D01*
X178434342Y-192428628D01*
X178505771Y-192357200D01*
X178648628Y-192285771D01*
X179005771Y-192285771D01*
X179220057Y-192357200D01*
X179862914Y-193785771D02*
X179862914Y-192785771D01*
X179862914Y-192285771D02*
X179791485Y-192357200D01*
X179862914Y-192428628D01*
X179934342Y-192357200D01*
X179862914Y-192285771D01*
X179862914Y-192428628D01*
X180434342Y-192785771D02*
X181220057Y-192785771D01*
X180434342Y-193785771D01*
X181220057Y-193785771D01*
X182362914Y-193714342D02*
X182220057Y-193785771D01*
X181934342Y-193785771D01*
X181791485Y-193714342D01*
X181720057Y-193571485D01*
X181720057Y-193000057D01*
X181791485Y-192857200D01*
X181934342Y-192785771D01*
X182220057Y-192785771D01*
X182362914Y-192857200D01*
X182434342Y-193000057D01*
X182434342Y-193142914D01*
X181720057Y-193285771D01*
X183077200Y-193642914D02*
X183148628Y-193714342D01*
X183077200Y-193785771D01*
X183005771Y-193714342D01*
X183077200Y-193642914D01*
X183077200Y-193785771D01*
X183077200Y-192857200D02*
X183148628Y-192928628D01*
X183077200Y-193000057D01*
X183005771Y-192928628D01*
X183077200Y-192857200D01*
X183077200Y-193000057D01*
X184862914Y-193357200D02*
X185577200Y-193357200D01*
X184720057Y-193785771D02*
X185220057Y-192285771D01*
X185720057Y-193785771D01*
X186862914Y-192785771D02*
X186862914Y-193785771D01*
X186505771Y-192214342D02*
X186148628Y-193285771D01*
X187077200Y-193285771D01*
D10*
D11*
X263434342Y-196585771D02*
X263434342Y-195085771D01*
X264791485Y-196585771D02*
X264791485Y-195085771D01*
X264791485Y-196514342D02*
X264648628Y-196585771D01*
X264362914Y-196585771D01*
X264220057Y-196514342D01*
X264148628Y-196442914D01*
X264077200Y-196300057D01*
X264077200Y-195871485D01*
X264148628Y-195728628D01*
X264220057Y-195657200D01*
X264362914Y-195585771D01*
X264648628Y-195585771D01*
X264791485Y-195657200D01*
X265505771Y-196442914D02*
X265577200Y-196514342D01*
X265505771Y-196585771D01*
X265434342Y-196514342D01*
X265505771Y-196442914D01*
X265505771Y-196585771D01*
X265505771Y-195657200D02*
X265577200Y-195728628D01*
X265505771Y-195800057D01*
X265434342Y-195728628D01*
X265505771Y-195657200D01*
X265505771Y-195800057D01*
X268148628Y-196585771D02*
X267291485Y-196585771D01*
X267720057Y-196585771D02*
X267720057Y-195085771D01*
X267577200Y-195300057D01*
X267434342Y-195442914D01*
X267291485Y-195514342D01*
X269862914Y-195014342D02*
X268577200Y-196942914D01*
X271148628Y-196585771D02*
X270291485Y-196585771D01*
X270720057Y-196585771D02*
X270720057Y-195085771D01*
X270577200Y-195300057D01*
X270434342Y-195442914D01*
X270291485Y-195514342D01*
D10*
D11*
X177002200Y-187507200D02*
X285002200Y-187507200D01*
D10*
D13*
X178714580Y-188211961D02*
X179857438Y-188211961D01*
X179036009Y-190211961D02*
X179286009Y-188211961D01*
X180274104Y-190211961D02*
X180440771Y-188878628D01*
X180524104Y-188211961D02*
X180416961Y-188307200D01*
X180500295Y-188402438D01*
X180607438Y-188307200D01*
X180524104Y-188211961D01*
X180500295Y-188402438D01*
X181107438Y-188878628D02*
X181869342Y-188878628D01*
X181476485Y-188211961D02*
X181262200Y-189926247D01*
X181333628Y-190116723D01*
X181512200Y-190211961D01*
X181702676Y-190211961D01*
X182655057Y-190211961D02*
X182476485Y-190116723D01*
X182405057Y-189926247D01*
X182619342Y-188211961D01*
X184190771Y-190116723D02*
X183988390Y-190211961D01*
X183607438Y-190211961D01*
X183428866Y-190116723D01*
X183357438Y-189926247D01*
X183452676Y-189164342D01*
X183571723Y-188973866D01*
X183774104Y-188878628D01*
X184155057Y-188878628D01*
X184333628Y-188973866D01*
X184405057Y-189164342D01*
X184381247Y-189354819D01*
X183405057Y-189545295D01*
X185155057Y-190021485D02*
X185238390Y-190116723D01*
X185131247Y-190211961D01*
X185047914Y-190116723D01*
X185155057Y-190021485D01*
X185131247Y-190211961D01*
X185286009Y-188973866D02*
X185369342Y-189069104D01*
X185262200Y-189164342D01*
X185178866Y-189069104D01*
X185286009Y-188973866D01*
X185262200Y-189164342D01*
D10*
D11*
X178934342Y-185600057D02*
X178434342Y-185600057D01*
X178434342Y-186385771D02*
X178434342Y-184885771D01*
X179148628Y-184885771D01*
X179720057Y-186385771D02*
X179720057Y-185385771D01*
X179720057Y-184885771D02*
X179648628Y-184957200D01*
X179720057Y-185028628D01*
X179791485Y-184957200D01*
X179720057Y-184885771D01*
X179720057Y-185028628D01*
X180648628Y-186385771D02*
X180505771Y-186314342D01*
X180434342Y-186171485D01*
X180434342Y-184885771D01*
X181791485Y-186314342D02*
X181648628Y-186385771D01*
X181362914Y-186385771D01*
X181220057Y-186314342D01*
X181148628Y-186171485D01*
X181148628Y-185600057D01*
X181220057Y-185457200D01*
X181362914Y-185385771D01*
X181648628Y-185385771D01*
X181791485Y-185457200D01*
X181862914Y-185600057D01*
X181862914Y-185742914D01*
X181148628Y-185885771D01*
X182505771Y-186242914D02*
X182577200Y-186314342D01*
X182505771Y-186385771D01*
X182434342Y-186314342D01*
X182505771Y-186242914D01*
X182505771Y-186385771D01*
X182505771Y-185457200D02*
X182577200Y-185528628D01*
X182505771Y-185600057D01*
X182434342Y-185528628D01*
X182505771Y-185457200D01*
X182505771Y-185600057D01*
X184362914Y-186385771D02*
X184362914Y-184885771D01*
X184362914Y-185457200D02*
X184505771Y-185385771D01*
X184791485Y-185385771D01*
X184934342Y-185457200D01*
X185005771Y-185528628D01*
X185077200Y-185671485D01*
X185077200Y-186100057D01*
X185005771Y-186242914D01*
X184934342Y-186314342D01*
X184791485Y-186385771D01*
X184505771Y-186385771D01*
X184362914Y-186314342D01*
X186362914Y-186385771D02*
X186362914Y-185600057D01*
X186291485Y-185457200D01*
X186148628Y-185385771D01*
X185862914Y-185385771D01*
X185720057Y-185457200D01*
X186362914Y-186314342D02*
X186220057Y-186385771D01*
X185862914Y-186385771D01*
X185720057Y-186314342D01*
X185648628Y-186171485D01*
X185648628Y-186028628D01*
X185720057Y-185885771D01*
X185862914Y-185814342D01*
X186220057Y-185814342D01*
X186362914Y-185742914D01*
X187077200Y-186385771D02*
X187077200Y-184885771D01*
X187077200Y-185457200D02*
X187220057Y-185385771D01*
X187505771Y-185385771D01*
X187648628Y-185457200D01*
X187720057Y-185528628D01*
X187791485Y-185671485D01*
X187791485Y-186100057D01*
X187720057Y-186242914D01*
X187648628Y-186314342D01*
X187505771Y-186385771D01*
X187220057Y-186385771D01*
X187077200Y-186314342D01*
X188077200Y-186528628D02*
X189220057Y-186528628D01*
X189362914Y-185385771D02*
X189934342Y-185385771D01*
X189577200Y-184885771D02*
X189577200Y-186171485D01*
X189648628Y-186314342D01*
X189791485Y-186385771D01*
X189934342Y-186385771D01*
X190648628Y-186385771D02*
X190505771Y-186314342D01*
X190434342Y-186242914D01*
X190362914Y-186100057D01*
X190362914Y-185671485D01*
X190434342Y-185528628D01*
X190505771Y-185457200D01*
X190648628Y-185385771D01*
X190862914Y-185385771D01*
X191005771Y-185457200D01*
X191077200Y-185528628D01*
X191148628Y-185671485D01*
X191148628Y-186100057D01*
X191077200Y-186242914D01*
X191005771Y-186314342D01*
X190862914Y-186385771D01*
X190648628Y-186385771D01*
X191791485Y-185385771D02*
X191791485Y-186885771D01*
X191791485Y-185457200D02*
X191934342Y-185385771D01*
X192220057Y-185385771D01*
X192362914Y-185457200D01*
X192434342Y-185528628D01*
X192505771Y-185671485D01*
X192505771Y-186100057D01*
X192434342Y-186242914D01*
X192362914Y-186314342D01*
X192220057Y-186385771D01*
X191934342Y-186385771D01*
X191791485Y-186314342D01*
X193148628Y-186242914D02*
X193220057Y-186314342D01*
X193148628Y-186385771D01*
X193077200Y-186314342D01*
X193148628Y-186242914D01*
X193148628Y-186385771D01*
X193862914Y-186385771D02*
X193862914Y-184885771D01*
X194005771Y-185814342D02*
X194434342Y-186385771D01*
X194434342Y-185385771D02*
X193862914Y-185957200D01*
X195077200Y-186385771D02*
X195077200Y-185385771D01*
X195077200Y-184885771D02*
X195005771Y-184957200D01*
X195077200Y-185028628D01*
X195148628Y-184957200D01*
X195077200Y-184885771D01*
X195077200Y-185028628D01*
X196434342Y-186314342D02*
X196291485Y-186385771D01*
X196005771Y-186385771D01*
X195862914Y-186314342D01*
X195791485Y-186242914D01*
X195720057Y-186100057D01*
X195720057Y-185671485D01*
X195791485Y-185528628D01*
X195862914Y-185457200D01*
X196005771Y-185385771D01*
X196291485Y-185385771D01*
X196434342Y-185457200D01*
X197720057Y-186385771D02*
X197720057Y-185600057D01*
X197648628Y-185457200D01*
X197505771Y-185385771D01*
X197220057Y-185385771D01*
X197077200Y-185457200D01*
X197720057Y-186314342D02*
X197577200Y-186385771D01*
X197220057Y-186385771D01*
X197077200Y-186314342D01*
X197005771Y-186171485D01*
X197005771Y-186028628D01*
X197077200Y-185885771D01*
X197220057Y-185814342D01*
X197577200Y-185814342D01*
X197720057Y-185742914D01*
X199077200Y-186385771D02*
X199077200Y-184885771D01*
X199077200Y-186314342D02*
X198934342Y-186385771D01*
X198648628Y-186385771D01*
X198505771Y-186314342D01*
X198434342Y-186242914D01*
X198362914Y-186100057D01*
X198362914Y-185671485D01*
X198434342Y-185528628D01*
X198505771Y-185457200D01*
X198648628Y-185385771D01*
X198934342Y-185385771D01*
X199077200Y-185457200D01*
X199434342Y-186528628D02*
X200577200Y-186528628D01*
X200934342Y-185385771D02*
X200934342Y-186885771D01*
X200934342Y-185457200D02*
X201077200Y-185385771D01*
X201362914Y-185385771D01*
X201505771Y-185457200D01*
X201577200Y-185528628D01*
X201648628Y-185671485D01*
X201648628Y-186100057D01*
X201577200Y-186242914D01*
X201505771Y-186314342D01*
X201362914Y-186385771D01*
X201077200Y-186385771D01*
X200934342Y-186314342D01*
X202934342Y-186314342D02*
X202791485Y-186385771D01*
X202505771Y-186385771D01*
X202362914Y-186314342D01*
X202291485Y-186242914D01*
X202220057Y-186100057D01*
X202220057Y-185671485D01*
X202291485Y-185528628D01*
X202362914Y-185457200D01*
X202505771Y-185385771D01*
X202791485Y-185385771D01*
X202934342Y-185457200D01*
X203577200Y-186385771D02*
X203577200Y-184885771D01*
X203577200Y-185457200D02*
X203720057Y-185385771D01*
X204005771Y-185385771D01*
X204148628Y-185457200D01*
X204220057Y-185528628D01*
X204291485Y-185671485D01*
X204291485Y-186100057D01*
X204220057Y-186242914D01*
X204148628Y-186314342D01*
X204005771Y-186385771D01*
X203720057Y-186385771D01*
X203577200Y-186314342D01*
D10*
D11*
X177002200Y-181507200D02*
X285002200Y-181507200D01*
D10*
D11*
X178362914Y-183614342D02*
X178577200Y-183685771D01*
X178934342Y-183685771D01*
X179077200Y-183614342D01*
X179148628Y-183542914D01*
X179220057Y-183400057D01*
X179220057Y-183257200D01*
X179148628Y-183114342D01*
X179077200Y-183042914D01*
X178934342Y-182971485D01*
X178648628Y-182900057D01*
X178505771Y-182828628D01*
X178434342Y-182757200D01*
X178362914Y-182614342D01*
X178362914Y-182471485D01*
X178434342Y-182328628D01*
X178505771Y-182257200D01*
X178648628Y-182185771D01*
X179005771Y-182185771D01*
X179220057Y-182257200D01*
X179862914Y-183685771D02*
X179862914Y-182185771D01*
X180505771Y-183685771D02*
X180505771Y-182900057D01*
X180434342Y-182757200D01*
X180291485Y-182685771D01*
X180077200Y-182685771D01*
X179934342Y-182757200D01*
X179862914Y-182828628D01*
X181791485Y-183614342D02*
X181648628Y-183685771D01*
X181362914Y-183685771D01*
X181220057Y-183614342D01*
X181148628Y-183471485D01*
X181148628Y-182900057D01*
X181220057Y-182757200D01*
X181362914Y-182685771D01*
X181648628Y-182685771D01*
X181791485Y-182757200D01*
X181862914Y-182900057D01*
X181862914Y-183042914D01*
X181148628Y-183185771D01*
X183077200Y-183614342D02*
X182934342Y-183685771D01*
X182648628Y-183685771D01*
X182505771Y-183614342D01*
X182434342Y-183471485D01*
X182434342Y-182900057D01*
X182505771Y-182757200D01*
X182648628Y-182685771D01*
X182934342Y-182685771D01*
X183077200Y-182757200D01*
X183148628Y-182900057D01*
X183148628Y-183042914D01*
X182434342Y-183185771D01*
X183577200Y-182685771D02*
X184148628Y-182685771D01*
X183791485Y-182185771D02*
X183791485Y-183471485D01*
X183862914Y-183614342D01*
X184005771Y-183685771D01*
X184148628Y-183685771D01*
X184648628Y-183542914D02*
X184720057Y-183614342D01*
X184648628Y-183685771D01*
X184577200Y-183614342D01*
X184648628Y-183542914D01*
X184648628Y-183685771D01*
X184648628Y-182757200D02*
X184720057Y-182828628D01*
X184648628Y-182900057D01*
X184577200Y-182828628D01*
X184648628Y-182757200D01*
X184648628Y-182900057D01*
D10*
D11*
X197002200Y-191507200D02*
X197002200Y-194507200D01*
D10*
D11*
X261002200Y-191507200D02*
X261002200Y-198007200D01*
D14*
X150000000Y-30000000D02*
X150000000Y-120000000D01*
X60000000Y-30000000D02*
X60000000Y-120000000D01*
X150000000Y-30000000D02*
X60000000Y-30000000D01*
X60000000Y-120000000D02*
X150000000Y-120000000D01*
X146666666Y-115000000D02*
G75*
G03*
X146666666Y-115000000I-1666666J0D01*
G01*
X142500000Y-115000000D02*
X147500000Y-115000000D01*
X145000000Y-112500000D02*
X145000000Y-117500000D01*
X66633903Y-35008759D02*
G75*
G03*
X66633903Y-35008759I-1666666J0D01*
G01*
X62467237Y-35008759D02*
X67467237Y-35008759D01*
X64967237Y-32508759D02*
X64967237Y-37508759D01*
X66605474Y-105026938D02*
G75*
G03*
X66605474Y-105026938I-1666666J0D01*
G01*
X62438808Y-105026938D02*
X67438808Y-105026938D01*
X64938808Y-102526938D02*
X64938808Y-107526938D01*
X146666666Y-34989010D02*
G75*
G03*
X146666666Y-34989010I-1666666J0D01*
G01*
X142500000Y-34989010D02*
X147500000Y-34989010D01*
X145000000Y-32489010D02*
X145000000Y-37489010D01*
G36*
G01*
X76436400Y-75584000D02*
X78163600Y-75584000D01*
G75*
G02*
X78363600Y-75784000I0J-200000D01*
G01*
X78363600Y-77816000D01*
G75*
G02*
X78163600Y-78016000I-200000J0D01*
G01*
X76436400Y-78016000D01*
G75*
G02*
X76236400Y-77816000I0J200000D01*
G01*
X76236400Y-75784000D01*
G75*
G02*
X76436400Y-75584000I200000J0D01*
G01*
G37*
D15*
X79840000Y-76800000D03*
X82380000Y-76800000D03*
X84920000Y-76800000D03*
X87460000Y-76800000D03*
X90000000Y-76800000D03*
X92540000Y-76800000D03*
X95080000Y-76800000D03*
X97620000Y-76800000D03*
X100160000Y-76800000D03*
X102700000Y-76800000D03*
X105240000Y-76800000D03*
X107780000Y-76800000D03*
X110320000Y-76800000D03*
X112860000Y-76800000D03*
G36*
G01*
X76436400Y-90824000D02*
X78163600Y-90824000D01*
G75*
G02*
X78363600Y-91024000I0J-200000D01*
G01*
X78363600Y-93056000D01*
G75*
G02*
X78163600Y-93256000I-200000J0D01*
G01*
X76436400Y-93256000D01*
G75*
G02*
X76236400Y-93056000I0J200000D01*
G01*
X76236400Y-91024000D01*
G75*
G02*
X76436400Y-90824000I200000J0D01*
G01*
G37*
X79840000Y-92040000D03*
X82380000Y-92040000D03*
X84920000Y-92040000D03*
X87460000Y-92040000D03*
X90000000Y-92040000D03*
X92540000Y-92040000D03*
X95080000Y-92040000D03*
X97620000Y-92040000D03*
X100160000Y-92040000D03*
X102700000Y-92040000D03*
X105240000Y-92040000D03*
X107780000Y-92040000D03*
X110320000Y-92040000D03*
X112860000Y-92040000D03*
G36*
G01*
X137110000Y-31830000D02*
X137110000Y-34370000D01*
G75*
G02*
X136910000Y-34570000I-200000J0D01*
G01*
X134370000Y-34570000D01*
G75*
G02*
X134170000Y-34370000I0J200000D01*
G01*
X134170000Y-31830000D01*
G75*
G02*
X134370000Y-31630000I200000J0D01*
G01*
X136910000Y-31630000D01*
G75*
G02*
X137110000Y-31830000I0J-200000D01*
G01*
G37*
D16*
X130560000Y-33100000D03*
D17*
X73450000Y-49500000D03*
X70950000Y-49500000D03*
X68450000Y-49500000D03*
D18*
X75700000Y-57000000D03*
X66200000Y-57000000D03*
D17*
X73450000Y-47000000D03*
X70950000Y-47000000D03*
X68450000Y-47000000D03*
G36*
G01*
X95616000Y-69516000D02*
X93584000Y-69516000D01*
G75*
G02*
X93384000Y-69316000I0J200000D01*
G01*
X93384000Y-67284000D01*
G75*
G02*
X93584000Y-67084000I200000J0D01*
G01*
X95616000Y-67084000D01*
G75*
G02*
X95816000Y-67284000I0J-200000D01*
G01*
X95816000Y-69316000D01*
G75*
G02*
X95616000Y-69516000I-200000J0D01*
G01*
G37*
D19*
X97140000Y-68300000D03*
D17*
X142500000Y-97000000D03*
X140000000Y-97000000D03*
X137500000Y-97000000D03*
D18*
X144750000Y-104500000D03*
X135250000Y-104500000D03*
D17*
X112500000Y-97000000D03*
X110000000Y-97000000D03*
X107500000Y-97000000D03*
D18*
X114750000Y-104500000D03*
X105250000Y-104500000D03*
D17*
X82500000Y-96900000D03*
X80000000Y-96900000D03*
X77500000Y-96900000D03*
D18*
X84750000Y-104400000D03*
X75250000Y-104400000D03*
G36*
G01*
X125850000Y-44050000D02*
X124150000Y-44050000D01*
G75*
G02*
X123950000Y-43850000I0J200000D01*
G01*
X123950000Y-42150000D01*
G75*
G02*
X124150000Y-41950000I200000J0D01*
G01*
X125850000Y-41950000D01*
G75*
G02*
X126050000Y-42150000I0J-200000D01*
G01*
X126050000Y-43850000D01*
G75*
G02*
X125850000Y-44050000I-200000J0D01*
G01*
G37*
D20*
X127540000Y-43000000D03*
X130080000Y-43000000D03*
X133700000Y-92040000D03*
G36*
G01*
X132650000Y-90350000D02*
X132650000Y-88650000D01*
G75*
G02*
X132850000Y-88450000I200000J0D01*
G01*
X134550000Y-88450000D01*
G75*
G02*
X134750000Y-88650000I0J-200000D01*
G01*
X134750000Y-90350000D01*
G75*
G02*
X134550000Y-90550000I-200000J0D01*
G01*
X132850000Y-90550000D01*
G75*
G02*
X132650000Y-90350000I0J200000D01*
G01*
G37*
G36*
G01*
X132650000Y-82750000D02*
X132650000Y-81050000D01*
G75*
G02*
X132850000Y-80850000I200000J0D01*
G01*
X134550000Y-80850000D01*
G75*
G02*
X134750000Y-81050000I0J-200000D01*
G01*
X134750000Y-82750000D01*
G75*
G02*
X134550000Y-82950000I-200000J0D01*
G01*
X132850000Y-82950000D01*
G75*
G02*
X132650000Y-82750000I0J200000D01*
G01*
G37*
X133700000Y-84440000D03*
X88360000Y-47400000D03*
G36*
G01*
X90050000Y-46350000D02*
X91750000Y-46350000D01*
G75*
G02*
X91950000Y-46550000I0J-200000D01*
G01*
X91950000Y-48250000D01*
G75*
G02*
X91750000Y-48450000I-200000J0D01*
G01*
X90050000Y-48450000D01*
G75*
G02*
X89850000Y-48250000I0J200000D01*
G01*
X89850000Y-46550000D01*
G75*
G02*
X90050000Y-46350000I200000J0D01*
G01*
G37*
X144900000Y-50740000D03*
G36*
G01*
X143850000Y-49050000D02*
X143850000Y-47350000D01*
G75*
G02*
X144050000Y-47150000I200000J0D01*
G01*
X145750000Y-47150000D01*
G75*
G02*
X145950000Y-47350000I0J-200000D01*
G01*
X145950000Y-49050000D01*
G75*
G02*
X145750000Y-49250000I-200000J0D01*
G01*
X144050000Y-49250000D01*
G75*
G02*
X143850000Y-49050000I0J200000D01*
G01*
G37*
G36*
G01*
X84450000Y-67750000D02*
X86150000Y-67750000D01*
G75*
G02*
X86350000Y-67950000I0J-200000D01*
G01*
X86350000Y-69650000D01*
G75*
G02*
X86150000Y-69850000I-200000J0D01*
G01*
X84450000Y-69850000D01*
G75*
G02*
X84250000Y-69650000I0J200000D01*
G01*
X84250000Y-67950000D01*
G75*
G02*
X84450000Y-67750000I200000J0D01*
G01*
G37*
X87840000Y-68800000D03*
G36*
G01*
X141850000Y-50850000D02*
X141850000Y-52550000D01*
G75*
G02*
X141650000Y-52750000I-200000J0D01*
G01*
X139950000Y-52750000D01*
G75*
G02*
X139750000Y-52550000I0J200000D01*
G01*
X139750000Y-50850000D01*
G75*
G02*
X139950000Y-50650000I200000J0D01*
G01*
X141650000Y-50650000D01*
G75*
G02*
X141850000Y-50850000I0J-200000D01*
G01*
G37*
X140800000Y-49160000D03*
X142360000Y-44300000D03*
G36*
G01*
X144050000Y-43250000D02*
X145750000Y-43250000D01*
G75*
G02*
X145950000Y-43450000I0J-200000D01*
G01*
X145950000Y-45150000D01*
G75*
G02*
X145750000Y-45350000I-200000J0D01*
G01*
X144050000Y-45350000D01*
G75*
G02*
X143850000Y-45150000I0J200000D01*
G01*
X143850000Y-43450000D01*
G75*
G02*
X144050000Y-43250000I200000J0D01*
G01*
G37*
G36*
G01*
X127450000Y-78250000D02*
X125750000Y-78250000D01*
G75*
G02*
X125550000Y-78050000I0J200000D01*
G01*
X125550000Y-76350000D01*
G75*
G02*
X125750000Y-76150000I200000J0D01*
G01*
X127450000Y-76150000D01*
G75*
G02*
X127650000Y-76350000I0J-200000D01*
G01*
X127650000Y-78050000D01*
G75*
G02*
X127450000Y-78250000I-200000J0D01*
G01*
G37*
X129140000Y-77200000D03*
D17*
X69000000Y-63200000D03*
X76033273Y-47566727D03*
X114450000Y-57800000D03*
X106600000Y-82400000D03*
D21*
X143699640Y-80200360D03*
X116299999Y-79299999D03*
X101500000Y-83800000D03*
D17*
X87900000Y-50900000D03*
X101500000Y-38500000D03*
X126499999Y-39300000D03*
X96750000Y-58235773D03*
X100000000Y-52750000D03*
X83399998Y-65900000D03*
X115000000Y-45600000D03*
X105500000Y-63100000D03*
X67750000Y-75500000D03*
X115750000Y-67350000D03*
X112399988Y-51900000D03*
X118900000Y-96200000D03*
X118500000Y-88400000D03*
X144700000Y-94500000D03*
X111100000Y-39900000D03*
X85000000Y-62500000D03*
X118900002Y-77200000D03*
X109700000Y-42200000D03*
X90000000Y-73600000D03*
X70900000Y-44800000D03*
X83700000Y-59700000D03*
X116100000Y-84100000D03*
D21*
X119600000Y-81500000D03*
M02*
